<?xml version="1.0" encoding="utf-8"?>
<!-- Generator: Adobe Illustrator 27.4.1, SVG Export Plug-In . SVG Version: 6.00 Build 0)  -->
<svg version="1.1" id="レイヤー_1" xmlns="http://www.w3.org/2000/svg" xmlns:xlink="http://www.w3.org/1999/xlink" x="0px"
	 y="0px" viewBox="0 0 325.7 69.5" style="enable-background:new 0 0 325.7 69.5;" xml:space="preserve">
<style type="text/css">
	.st0{fill:#FFEA00;}
	.st1{fill:#22AC38;}
</style>
<path id="パス_72344" class="st0" d="M30,27h98v11H30V27z"/>
<path id="パス_72345" class="st1" d="M39.4,16.6c0-0.1,0-0.1,0-0.2c0,0-0.1-0.1-0.2-0.1H36c-0.1,0-0.1,0-0.1,0.1c0,0,0,0.1,0,0.1
	c0.2,0.4,0.4,0.9,0.5,1.3c0,0.1,0,0.2,0,0.3c0,0.2-0.1,0.4-0.2,0.6c-0.2,0.3-0.4,0.5-0.7,0.5c0,0,0,0,0,0l0,0H40c0,0,0,0,0,0
	s0,0,0,0c-0.4-0.1-0.7-0.3-0.8-0.6C39,18.5,39,18.3,39,18.1c0-0.2,0-0.3,0.1-0.4C39.2,17.3,39.3,17,39.4,16.6z M39.2,26
	C39.2,25.9,39.1,26,39.2,26C39.1,26,39.1,26,39.2,26c-0.1,0.2-0.1,0.2,0,0.2c0.5,0.3,1.2,0.9,2.3,1.8c0.3,0.2,0.5,0.5,0.5,0.9
	c0,0.1,0,0.1,0,0.2c0,0.3-0.1,0.6-0.3,0.8c-0.2,0.3-0.5,0.4-0.8,0.4l0,0c-0.3,0-0.6-0.1-0.9-0.4c-0.2-0.2-0.5-0.5-0.7-0.7
	c0,0-0.1,0-0.1,0c0,0-0.1,0.1-0.1,0.1v3.5c0,0.4-0.1,0.7-0.4,1c-0.3,0.3-0.6,0.4-1,0.4c-0.4,0-0.7-0.1-1-0.4c-0.3-0.3-0.4-0.6-0.4-1
	v-3.2c0,0,0-0.1,0-0.1c0,0-0.1,0-0.1,0c-0.6,0.8-1.2,1.6-1.9,2.3c-0.2,0.2-0.5,0.3-0.8,0.4c0,0-0.1,0-0.1,0c-0.4,0-0.7-0.2-0.9-0.5
	c-0.2-0.2-0.3-0.5-0.3-0.8c0-0.4,0.1-0.7,0.4-0.9c1.2-1,2.3-2.3,3.1-3.6c0,0,0-0.1,0-0.1c0,0-0.1-0.1-0.1-0.1h-2.2
	c-0.3,0-0.6-0.1-0.8-0.4c-0.2-0.2-0.4-0.5-0.4-0.8c0-0.3,0.1-0.6,0.4-0.8c0.2-0.2,0.5-0.4,0.8-0.4h2.8c0.1,0,0.2-0.1,0.2-0.2
	c0,0,0,0,0-0.1v-1.4c0-0.1-0.1-0.2-0.2-0.2c0,0,0,0-0.1,0h-2.9c-0.3,0-0.6-0.1-0.8-0.4c-0.2-0.2-0.3-0.5-0.3-0.8
	c0-0.3,0.1-0.6,0.3-0.8c0.2-0.2,0.5-0.4,0.8-0.4H34c0.1,0,0.1,0,0.1-0.1c0,0,0.1-0.1,0-0.2c-0.1-0.4-0.1-0.7-0.3-1.1
	c0-0.1,0-0.2,0-0.4c0-0.2,0.1-0.4,0.2-0.6c0.2-0.3,0.4-0.5,0.8-0.6v0c0,0,0,0,0,0c0,0,0,0,0,0h-1.4c-0.3,0-0.6-0.1-0.8-0.3
	c-0.2-0.2-0.3-0.5-0.3-0.8c0-0.3,0.1-0.6,0.3-0.8c0.2-0.2,0.5-0.3,0.8-0.3h2.6c0.1,0,0.2-0.1,0.2-0.2v-0.6c0-0.4,0.1-0.7,0.4-1
	c0.3-0.3,0.6-0.4,1-0.4c0.4,0,0.7,0.1,1,0.4c0.3,0.3,0.4,0.6,0.4,1v0.6c0,0.1,0.1,0.2,0.2,0.2c0,0,0,0,0.1,0h2.6
	c0.3,0,0.6,0.1,0.8,0.3c0.2,0.2,0.3,0.5,0.3,0.8c0,0.3-0.1,0.6-0.3,0.8c-0.2,0.2-0.5,0.3-0.8,0.3h-1.2c0,0,0,0,0,0s0,0,0,0
	c0.3,0,0.6,0.2,0.7,0.5c0.1,0.1,0.1,0.3,0.1,0.5c0,0.1,0,0.3-0.1,0.4c-0.2,0.6-0.4,1-0.6,1.3c0,0.1,0,0.1,0,0.2c0,0,0.1,0.1,0.1,0.1
	h1c0.3,0,0.6,0.1,0.8,0.4c0.2,0.2,0.3,0.5,0.3,0.8c0,0.3-0.1,0.6-0.3,0.8c-0.2,0.2-0.5,0.4-0.8,0.4h-2.8c-0.1,0-0.2,0.1-0.2,0.2
	c0,0,0,0,0,0.1v1.4c0,0.1,0.1,0.2,0.2,0.2c0,0,0,0,0.1,0h2.5c0.3,0,0.6,0.1,0.8,0.4c0.2,0.2,0.4,0.5,0.4,0.8c0,0.3-0.1,0.6-0.4,0.8
	c-0.2,0.2-0.5,0.4-0.8,0.4L39.2,26z M52.9,19.6c0.3,0,0.7,0.1,0.9,0.4c0.3,0.2,0.4,0.6,0.4,0.9c0,0.3-0.1,0.7-0.4,0.9
	c-0.2,0.3-0.6,0.4-0.9,0.4h-0.7c-0.1,0-0.2,0.1-0.2,0.2c0,0,0,0,0,0.1v10.1c0,0.4-0.1,0.7-0.4,1c-0.5,0.5-1.4,0.5-1.9,0c0,0,0,0,0,0
	c-0.3-0.3-0.4-0.6-0.4-1V22.4c0-0.1-0.1-0.2-0.2-0.2c0,0,0,0-0.1,0h-2c-0.1,0-0.2,0.1-0.2,0.2c0,0,0,0,0,0.1
	c-0.1,4.6-1,8.1-2.8,10.6c-0.2,0.3-0.5,0.4-0.8,0.4h0c-0.4,0-0.7-0.1-1-0.4c-0.3-0.2-0.4-0.6-0.5-0.9c0-0.1,0-0.1,0-0.2
	c0-0.3,0.1-0.6,0.3-0.8c0.9-1.2,1.5-2.7,1.7-4.2c0.3-1.7,0.4-3.4,0.4-5.1v-6.8c0-0.4,0.2-0.7,0.5-0.9c0.2-0.2,0.4-0.2,0.7-0.2
	c0.1,0,0.2,0,0.3,0c0.1,0,0.2,0,0.3,0c1.5-0.4,3.1-0.8,4.5-1.4c0.3-0.1,0.6-0.2,1-0.2c0.1,0,0.3,0,0.4,0c0.4,0.1,0.9,0.3,1.2,0.6
	c0.2,0.2,0.3,0.4,0.3,0.7v0.2c0,0.3-0.3,0.6-0.6,0.7c-1.9,0.7-3.8,1.2-5.7,1.6c-0.1,0-0.2,0.1-0.2,0.3v2.9c0,0.1,0.1,0.2,0.2,0.2
	c0,0,0,0,0.1,0L52.9,19.6z M64.9,27.3c0.2,0.3,0.4,0.7,0.4,1c0,0.4-0.1,0.8-0.4,1.1c-0.2,0.2-0.5,0.4-0.8,0.4H64
	c-0.3,0-0.6-0.2-0.8-0.5c-0.4-0.6-0.9-1.3-1.5-2.1c0,0-0.1,0-0.1,0c0,0-0.1,0-0.1,0.1c-0.4,2.1-1.4,4-2.8,5.6
	c-0.2,0.2-0.5,0.4-0.8,0.4h-0.1c-0.4,0-0.7-0.2-1-0.5c-0.2-0.2-0.4-0.6-0.4-0.9c0-0.4,0.1-0.7,0.4-1c1.5-1.6,2.4-4,2.6-7.1
	c0-0.1,0-0.1-0.1-0.2c0,0-0.1-0.1-0.2-0.1h-1.9c-0.3,0-0.7-0.1-0.9-0.4c-0.2-0.2-0.4-0.6-0.4-0.9c0-0.3,0.1-0.7,0.4-0.9
	c0.2-0.2,0.6-0.4,0.9-0.4h1.9c0.1,0,0.2-0.1,0.2-0.2c0,0,0,0,0-0.1v-2.6c0-0.1-0.1-0.2-0.2-0.2c0,0,0,0-0.1,0h-1.6
	c-0.3,0-0.7-0.1-0.9-0.4c-0.2-0.2-0.4-0.6-0.4-0.9c0-0.3,0.1-0.7,0.4-0.9c0.2-0.2,0.6-0.4,0.9-0.4h1.6c0.1,0,0.2-0.1,0.2-0.2
	c0,0,0,0,0-0.1v-1.9c0-0.4,0.1-0.7,0.4-0.9c0.3-0.3,0.6-0.4,0.9-0.4c0.4,0,0.7,0.1,0.9,0.4c0.3,0.2,0.4,0.6,0.4,0.9v1.9
	c0,0.1,0.1,0.2,0.2,0.2c0,0,0,0,0.1,0h1.5c0.3,0,0.7,0.1,0.9,0.4c0.2,0.2,0.4,0.6,0.4,0.9c0,0.3-0.1,0.7-0.4,0.9
	c-0.2,0.2-0.6,0.4-0.9,0.4h-1.5c-0.1,0-0.2,0.1-0.2,0.2c0,0,0,0,0,0.1v2.6c0,0.1,0.1,0.2,0.2,0.2c0,0,0,0,0.1,0h1.9
	c0.3,0,0.7,0.1,0.9,0.4c0.3,0.2,0.4,0.6,0.4,0.9c0,0.3-0.1,0.7-0.4,0.9c-0.2,0.2-0.6,0.4-0.9,0.4h-1.9c-0.1,0-0.2,0.1-0.3,0.2
	c0,0,0,0,0,0v0.1c0,0.1,0,0.3,0.1,0.4C62.9,25,63.8,26,64.9,27.3L64.9,27.3z M69.1,22.3c-0.1,0-0.2,0.1-0.2,0.2c0,0,0,0,0,0.1v1
	c0,0.1,0.1,0.2,0.2,0.2c0,0,0,0,0.1,0h4.8c0.1,0,0.2-0.1,0.2-0.2c0,0,0,0,0-0.1v-1c0-0.1-0.1-0.2-0.2-0.2c0,0,0,0-0.1,0H69.1z
	 M69.1,18.7c-0.1,0-0.2,0.1-0.2,0.2c0,0,0,0,0,0.1v0.9c0,0.1,0.1,0.2,0.2,0.2c0,0,0,0,0.1,0h4.8c0.1,0,0.2-0.1,0.2-0.2
	c0,0,0,0,0-0.1v-0.9c0-0.1-0.1-0.2-0.2-0.2c0,0,0,0-0.1,0L69.1,18.7z M69.1,15c-0.1,0-0.2,0.1-0.2,0.2c0,0,0,0,0,0.1v0.9
	c0,0.1,0.1,0.2,0.2,0.2c0,0,0,0,0.1,0h4.8c0.1,0,0.2-0.1,0.2-0.2c0,0,0,0,0-0.1v-0.9c0-0.1-0.1-0.2-0.2-0.2c0,0,0,0-0.1,0L69.1,15z
	 M74.8,31.1h0.8c0.2,0,0.3-0.1,0.3-0.3c0.1-0.4,0.1-0.8,0.1-1.3c0-0.3,0.2-0.5,0.4-0.6c0.1-0.1,0.3-0.1,0.4-0.1c0.1,0,0.2,0,0.4,0.1
	c0.3,0.1,0.6,0.4,0.9,0.7c0.2,0.2,0.3,0.5,0.3,0.8c0,0.1,0,0.1,0,0.2c0,0.8-0.3,1.7-0.8,2.4c-0.4,0.5-1,0.7-1.7,0.6h-1.6
	c-0.8,0.1-1.5-0.1-2.1-0.7c-0.4-0.8-0.6-1.6-0.5-2.5v-3.9c0-0.1-0.1-0.2-0.2-0.2c0,0,0,0-0.1,0h-0.8c-0.1,0-0.2,0.1-0.3,0.2
	c-0.1,1.5-0.6,2.9-1.3,4.2C68.4,32,67.3,33,66,33.6c-0.2,0.1-0.4,0.1-0.6,0.1c-0.2,0-0.3,0-0.4-0.1c-0.3-0.1-0.6-0.4-0.9-0.7
	c-0.1-0.2-0.2-0.4-0.2-0.6c0-0.1,0-0.2,0-0.3c0.1-0.3,0.3-0.5,0.5-0.7c1-0.4,1.8-1.1,2.4-2c0.5-0.9,0.8-2,0.9-3c0-0.1,0-0.2-0.1-0.2
	c-0.4,0-0.7-0.1-1-0.4c-0.3-0.2-0.4-0.6-0.4-1V14.6c0-0.5,0.2-1.1,0.6-1.5c0.4-0.4,0.9-0.6,1.4-0.6h6.6c0.5,0,1.1,0.2,1.4,0.6
	c0.4,0.4,0.6,0.9,0.6,1.5v9.7c0,0.5-0.2,1.1-0.6,1.4c-0.4,0.4-0.9,0.6-1.4,0.6h-0.3c-0.1,0-0.2,0.1-0.2,0.2c0,0,0,0,0,0.1v3.9
	c0,0.2,0,0.4,0.1,0.6C74.5,31.1,74.6,31.1,74.8,31.1L74.8,31.1z M85.9,15.7c0,0.1,0.1,0.2,0.2,0.2c0,0,0,0,0.1,0H89
	c0.5,0,1.1,0.2,1.4,0.6c0.4,0.4,0.6,0.9,0.6,1.4c0,1.7-0.1,4.4-0.2,7.9c-0.1,1.8-0.2,3.2-0.3,4.3c0,0.7-0.2,1.5-0.6,2.1
	c-0.2,0.3-0.5,0.6-0.8,0.8c-0.3,0.2-0.7,0.3-1,0.4c-0.5,0.1-0.9,0.1-1.4,0.1h0c-0.4,0-0.8-0.1-1.1-0.4c-0.3-0.3-0.5-0.7-0.7-1.1
	c0-0.1,0-0.2,0-0.3c0-0.2,0.1-0.4,0.2-0.6c0.2-0.3,0.4-0.4,0.8-0.4h0c0.3,0,0.6,0,0.8,0c0.3,0,0.6-0.2,0.8-0.4c0.4-0.9,0.5-2,0.5-3
	c0.1-1.7,0.2-4.5,0.3-8.4c0-0.1,0-0.1-0.1-0.2c0,0-0.1-0.1-0.2-0.1h-2c-0.1,0-0.2,0.1-0.3,0.2c0,0,0,0,0,0c-0.1,2-0.2,3.8-0.4,5.4
	c-0.2,1.6-0.5,3.1-1,4.6c-0.4,1.4-1,2.7-1.8,3.9c-0.2,0.3-0.5,0.5-0.9,0.4c-0.4,0-0.7-0.1-1-0.4c-0.3-0.3-0.5-0.6-0.5-1v-0.2
	c0-0.3,0.1-0.6,0.3-0.9c0.9-1.5,1.6-3.2,1.9-4.9c0.4-2.3,0.6-4.6,0.7-6.9c0-0.1,0-0.1-0.1-0.2c0,0-0.1-0.1-0.2-0.1h-1.2
	c-0.4,0-0.7-0.1-1-0.4c-0.3-0.3-0.4-0.6-0.4-1c0-0.4,0.1-0.7,0.4-1c0.3-0.3,0.6-0.4,1-0.4h1.2c0.1,0,0.2-0.1,0.2-0.2c0,0,0,0,0-0.1
	c0-0.6,0-1.4,0-2.3c0-0.4,0.1-0.7,0.4-1c0.3-0.3,0.6-0.4,1-0.4c0.4,0,0.7,0.1,1,0.4c0.3,0.3,0.4,0.6,0.4,1
	C85.9,14.2,85.9,15,85.9,15.7L85.9,15.7z M95.2,28.9c0,0.1,0.1,0.2,0.2,0.2c0,0,0,0,0.1,0H98c0.1,0,0.2-0.1,0.2-0.2c0,0,0,0,0-0.1
	V17.4c0-0.1-0.1-0.2-0.2-0.2c0,0,0,0-0.1,0h-2.6c-0.1,0-0.2,0.1-0.2,0.2c0,0,0,0,0,0.1L95.2,28.9z M92.4,16.4c0-0.5,0.2-1.1,0.6-1.4
	c0.4-0.4,0.9-0.6,1.4-0.6h4.6c0.5,0,1.1,0.2,1.4,0.6c0.4,0.4,0.6,0.9,0.6,1.4V32c0,0.4-0.1,0.8-0.4,1c-0.3,0.3-0.6,0.4-1,0.4h-0.1
	c-0.4,0-0.7-0.1-0.9-0.4c-0.3-0.2-0.4-0.6-0.4-0.9c0-0.1,0-0.1-0.1-0.1c0,0,0,0,0,0h-2.8c-0.1,0-0.2,0-0.2,0.1c0,0,0,0,0,0v0.1
	c0,0.4-0.1,0.7-0.4,1c-0.3,0.3-0.6,0.4-1,0.4c-0.4,0-0.7-0.1-1-0.4c-0.3-0.3-0.4-0.6-0.4-1L92.4,16.4z M121.8,14.8
	c0-0.1-0.1-0.2-0.2-0.2c0,0,0,0-0.1,0H118c-0.1,0-0.2,0.1-0.2,0.2c0,0,0,0,0,0.1v0.9c0,0.1,0.1,0.2,0.2,0.2c0,0,0,0,0.1,0h3.6
	c0.1,0,0.2-0.1,0.2-0.2c0,0,0,0,0-0.1V14.8z M117.6,19.1c0,0.1,0,0.1,0,0.2c0,0,0.1,0.1,0.2,0.1h3.7c0.1,0,0.2-0.1,0.2-0.2
	c0,0,0,0,0-0.1v-1c0-0.1-0.1-0.2-0.2-0.2c0,0,0,0-0.1,0H118c-0.1,0-0.2,0.1-0.3,0.2c0,0,0,0,0,0C117.7,18.6,117.7,18.9,117.6,19.1z
	 M121.8,21.5c0-0.1-0.1-0.2-0.2-0.2c0,0,0,0-0.1,0h-4.1c-0.1,0-0.3,0.1-0.3,0.2c-0.3,1.1-0.8,2.1-1.6,3c-0.2,0.2-0.5,0.4-0.9,0.4
	h-0.1c-0.4,0-0.7-0.2-1-0.4c-0.3-0.2-0.4-0.6-0.4-0.9c0-0.3,0.1-0.6,0.3-0.8c0.6-0.7,1-1.6,1.2-2.5c0.2-1,0.3-2,0.3-3v-2.8
	c0-0.5,0.2-1.1,0.6-1.4c0.4-0.4,0.9-0.6,1.4-0.6h5.4c0.5,0,1.1,0.2,1.4,0.6c0.4,0.4,0.6,0.9,0.6,1.4v8c0,0.5-0.1,1-0.2,1.5
	c-0.2,0.4-0.5,0.6-0.9,0.8c-0.7,0.3-1.5,0.4-2.2,0.4h-0.1c-0.3,0-0.6-0.1-0.9-0.3c-0.3-0.2-0.6-0.5-0.7-0.9c0-0.1-0.1-0.2-0.1-0.3
	c0-0.1,0-0.3,0.1-0.4c0.1-0.2,0.4-0.4,0.6-0.4c0.5,0,0.8,0,1.1,0c0.1,0,0.2,0,0.4-0.1c0.1-0.1,0.1-0.2,0.1-0.3L121.8,21.5z
	 M110.8,15.2c0-0.1-0.1-0.2-0.2-0.2c0,0,0,0-0.1,0H108c-0.1,0-0.2,0.1-0.2,0.2c0,0,0,0,0,0.1v1.3c0,0.1,0.1,0.2,0.2,0.2
	c0,0,0,0,0.1,0h2.5c0.1,0,0.2-0.1,0.2-0.2c0,0,0,0,0-0.1V15.2z M107.8,20.3c0,0.1,0.1,0.2,0.2,0.2c0,0,0,0,0.1,0h2.5
	c0.1,0,0.2-0.1,0.2-0.2c0,0,0,0,0-0.1V19c0-0.1-0.1-0.2-0.2-0.2c0,0,0,0-0.1,0H108c-0.1,0-0.2,0.1-0.2,0.2c0,0,0,0,0,0.1L107.8,20.3
	z M107.9,22.7c-0.1,0-0.1,0-0.1,0.1c0,0,0,0,0,0c0,0.3-0.1,0.6-0.3,0.8c-0.2,0.2-0.5,0.3-0.7,0.3h-0.3c-0.3,0-0.7-0.1-0.9-0.4
	c-0.2-0.2-0.4-0.6-0.4-0.9v-7.8c0-0.5,0.2-1.1,0.6-1.4c0.4-0.4,0.9-0.6,1.4-0.6h4.1c0.5,0,1.1,0.2,1.4,0.6c0.4,0.4,0.6,0.9,0.6,1.4
	v5.9c0,0.5-0.2,1.1-0.6,1.4c-0.4,0.4-0.9,0.6-1.4,0.6L107.9,22.7z M109.5,27.8c-0.1,0-0.2,0.1-0.2,0.2c0,0,0,0,0,0.1v2.7
	c0,0.1,0.1,0.2,0.2,0.2c0,0,0,0,0.1,0h1.6c0.1,0,0.2-0.1,0.2-0.2c0,0,0,0,0-0.1V28c0-0.1-0.1-0.2-0.2-0.2c0,0,0,0-0.1,0L109.5,27.8z
	 M116,28c0-0.1-0.1-0.2-0.2-0.2c0,0,0,0-0.1,0h-1.6c-0.1,0-0.2,0.1-0.2,0.2c0,0,0,0,0,0.1v2.7c0,0.1,0.1,0.2,0.2,0.2c0,0,0,0,0.1,0
	h1.6c0.1,0,0.2-0.1,0.2-0.2c0,0,0,0,0-0.1L116,28z M120.7,28c0-0.1-0.1-0.2-0.2-0.2c0,0,0,0-0.1,0h-1.6c-0.1,0-0.2,0.1-0.2,0.2
	c0,0,0,0,0,0.1v2.7c0,0.1,0.1,0.2,0.2,0.2c0,0,0,0,0.1,0h1.6c0.1,0,0.2-0.1,0.2-0.2c0,0,0,0,0-0.1L120.7,28z M123.5,30.8
	c0,0.1,0.1,0.2,0.2,0.2c0,0,0,0,0.1,0h1.2c0.3,0,0.6,0.1,0.9,0.4c0.2,0.2,0.4,0.5,0.4,0.9c0,0.3-0.1,0.6-0.4,0.9
	c-0.2,0.2-0.5,0.4-0.9,0.4h-19.9c-0.3,0-0.6-0.1-0.9-0.4c-0.2-0.2-0.4-0.5-0.4-0.9c0-0.3,0.1-0.6,0.4-0.9c0.2-0.2,0.5-0.4,0.9-0.4
	h1.4c0.1,0,0.2-0.1,0.2-0.2c0,0,0,0,0-0.1v-3.1c0-0.5,0.2-1.1,0.6-1.4c0.4-0.4,0.9-0.6,1.4-0.6h12.8c0.5,0,1.1,0.2,1.4,0.6
	c0.4,0.4,0.6,0.9,0.6,1.4L123.5,30.8z M133.3,27.7c1,0,2-1.6,2.9-4.7c0.6-1.8,1-3.7,1.2-5.5c0,0,0-0.1,0-0.1c0,0-0.1,0-0.2,0
	c-0.9,0.2-1.7,0.6-2.5,1.1c-0.7,0.5-1.3,1-1.8,1.7c-0.5,0.6-0.8,1.3-1.1,2c-0.2,0.6-0.4,1.3-0.4,2c0,0.9,0.1,1.8,0.5,2.6
	C132.2,27.3,132.7,27.6,133.3,27.7L133.3,27.7z M141.4,32.7c-0.2,0-0.4,0.1-0.5,0.1c-0.3,0-0.6-0.1-0.9-0.2c-0.5-0.2-0.8-0.5-1.1-1
	c-0.1-0.2-0.2-0.4-0.2-0.6c0-0.2,0-0.3,0.1-0.5c0.2-0.3,0.5-0.6,0.8-0.6c0.2,0,0.4-0.1,0.6-0.1c1.5-0.3,2.9-1.1,3.9-2.2
	c1-1.1,1.6-2.6,1.5-4.2c0-1.5-0.4-2.9-1.2-4.1c-0.9-1.1-2.1-1.9-3.5-2.1c-0.1,0-0.2,0-0.3,0.1c0,0,0,0,0,0.1
	c-0.3,2.1-0.8,4.2-1.4,6.2c-0.5,2-1.4,4-2.6,5.7c-0.8,1.2-2,1.9-3.5,2c-1.4,0-2.7-0.8-3.4-2c-1-1.5-1.5-3.2-1.4-4.9
	c0-1.3,0.3-2.7,0.8-3.9c0.5-1.2,1.3-2.3,2.3-3.2c1-0.9,2.2-1.7,3.5-2.2c1.4-0.6,2.8-0.8,4.3-0.8c1.8,0,3.5,0.4,5.1,1.2
	c1.4,0.8,2.6,1.9,3.4,3.4c0.8,1.4,1.2,3.1,1.2,4.7c0.1,2.1-0.6,4.1-1.9,5.8C145.6,31,143.6,32.2,141.4,32.7z M156.2,29.9
	c0.5,0,0.8-0.3,0.8-1c0-0.7,0-1.6,0-2.7c0-0.1,0-0.1-0.1-0.1c0,0-0.1,0-0.1,0c-0.6,0.3-1.2,0.7-1.6,1.2c-0.3,0.3-0.6,0.8-0.6,1.2
	c0,0.4,0.3,0.8,0.6,1C155.4,29.7,155.8,29.8,156.2,29.9z M159.6,21.3v0.6c0,0.1,0,0.1,0.1,0.2c0,0,0.1,0.1,0.2,0
	c1.4-0.4,2.9-0.5,4.3-0.6c1.7-0.1,3.3,0.4,4.7,1.4c1.2,0.9,1.9,2.3,1.9,3.8c0,1.3-0.4,2.7-1.3,3.7c-1.1,1.1-2.5,1.9-4,2.2
	c-0.5,0.1-1,0.2-1.5,0.2c-0.1,0-0.2,0-0.3,0c-0.4,0-0.7-0.1-1.1-0.3c-0.4-0.3-0.7-0.6-0.9-1.1c0-0.1-0.1-0.3-0.1-0.4
	c0-0.2,0.1-0.4,0.2-0.6c0.2-0.3,0.6-0.5,0.9-0.5c0.4,0,0.9-0.1,1.3-0.1c0.9-0.1,1.8-0.5,2.5-1.1c0.6-0.5,1-1.2,1-2
	c0-0.7-0.3-1.5-1-1.9c-0.8-0.5-1.6-0.7-2.5-0.7c-1.4,0-2.9,0.2-4.2,0.6c-0.1,0-0.2,0.2-0.2,0.3c0,0.4,0,1,0.1,1.7c0,0.7,0,1.2,0,1.7
	c0,0.4,0,0.8,0,1c0.1,1-0.1,2-0.7,2.9c-0.5,0.6-1.2,0.9-1.9,0.8c-0.9,0-1.7-0.2-2.5-0.6c-0.8-0.4-1.6-0.9-2.2-1.7
	c-0.6-0.6-0.9-1.4-0.9-2.3c0.1-1.1,0.6-2.2,1.5-2.9c1.1-1,2.3-1.9,3.7-2.5c0.1-0.1,0.2-0.2,0.2-0.3c0-0.3,0-0.8,0-1.4v-1.8
	c0-0.1,0-0.1-0.1-0.2c0,0-0.1-0.1-0.2-0.1c-0.5,0-0.8,0-1,0c-0.7,0-1.3,0-1.9,0c-0.4,0-0.8-0.2-1-0.5c-0.3-0.3-0.4-0.7-0.4-1.1
	c0-0.4,0.1-0.7,0.4-0.9c0.2-0.2,0.6-0.4,0.9-0.4h0.1c0.6,0,1.2,0.1,1.9,0.1c0.3,0,0.6,0,1.1,0c0.1,0,0.2-0.1,0.3-0.2c0,0,0,0,0,0
	v-2.3c0-0.4,0.1-0.8,0.4-1.1c0.3-0.3,0.7-0.5,1.1-0.5c0.4,0,0.8,0.2,1.1,0.5c0.2,0.3,0.4,0.6,0.4,1v0.1c0,0.2,0,0.3,0,0.4
	c0,0.4,0,0.9,0,1.5c0,0.1,0,0.1,0,0.2c0,0,0.1,0.1,0.2,0c1-0.1,1.9-0.3,2.7-0.5c0.1,0,0.2,0,0.3,0c0.3,0,0.5,0.1,0.7,0.2
	c0.3,0.2,0.5,0.6,0.5,1c0,0.4-0.1,0.8-0.4,1.1c-0.3,0.3-0.6,0.6-1.1,0.6c-0.8,0.1-1.8,0.3-2.8,0.4c-0.1,0-0.2,0.1-0.2,0.2
	c0,0,0,0,0,0C159.6,19.9,159.6,20.5,159.6,21.3L159.6,21.3z M166.7,18.1c-0.3-0.2-0.6-0.5-0.7-0.8c0-0.1,0-0.2,0-0.4
	c0-0.2,0.1-0.4,0.2-0.6c0.2-0.3,0.5-0.6,0.8-0.7c0.1,0,0.3-0.1,0.4-0.1c0.2,0,0.4,0.1,0.6,0.2c1.2,0.7,2.4,1.3,3.4,1.9
	c0.3,0.2,0.6,0.5,0.7,0.9c0,0.1,0,0.2,0,0.4c0,0.3-0.1,0.5-0.2,0.8c-0.2,0.3-0.5,0.5-0.8,0.6c-0.1,0-0.2,0-0.3,0
	c-0.3,0-0.5-0.1-0.8-0.2C169,19.4,167.8,18.7,166.7,18.1z M186.9,24.9c0,0.1,0.1,0.2,0.2,0.2c0,0,0,0,0.1,0h4.9
	c0.1,0,0.2-0.1,0.2-0.2c0,0,0,0,0-0.1v-2.1c0-0.1-0.1-0.2-0.2-0.2c0,0,0,0-0.1,0h-4.9c-0.1,0-0.2,0.1-0.2,0.2c0,0,0,0,0,0.1V24.9z
	 M178.7,24.9c0,0.1,0.1,0.2,0.2,0.2c0,0,0,0,0.1,0h4.7c0.1,0,0.2-0.1,0.2-0.2c0,0,0,0,0-0.1v-2.1c0-0.1-0.1-0.2-0.2-0.2
	c0,0,0,0-0.1,0h-4.7c-0.1,0-0.2,0.1-0.2,0.2c0,0,0,0,0,0.1V24.9z M183.9,17.8c0-0.1-0.1-0.2-0.2-0.2c0,0,0,0-0.1,0h-4.7
	c-0.1,0-0.2,0.1-0.2,0.2c0,0,0,0,0,0.1v1.9c0,0.1,0.1,0.2,0.2,0.2c0,0,0,0,0.1,0h4.7c0.1,0,0.2-0.1,0.2-0.2c0,0,0,0,0-0.1V17.8z
	 M192.3,17.8c0-0.1-0.1-0.2-0.2-0.2c0,0,0,0-0.1,0h-4.9c-0.1,0-0.2,0.1-0.2,0.2c0,0,0,0,0,0.1v1.9c0,0.1,0.1,0.2,0.2,0.2
	c0,0,0,0,0.1,0h4.9c0.1,0,0.2-0.1,0.2-0.2c0,0,0,0,0-0.1V17.8z M186.9,14.6c0,0.1,0.1,0.2,0.2,0.2c0,0,0,0,0.1,0h6
	c0.5,0,1.1,0.2,1.4,0.6c0.4,0.4,0.6,0.9,0.6,1.4v10.7c0,0.4-0.2,0.8-0.4,1c-0.3,0.3-0.7,0.4-1.1,0.4h-0.4c-0.3,0-0.5-0.1-0.7-0.3
	c-0.2-0.2-0.3-0.5-0.3-0.7c0-0.1,0-0.1-0.1-0.1c0,0,0,0,0,0h-5c-0.1,0-0.2,0.1-0.2,0.2c0,0,0,0,0,0.1v4.4c0,0.4-0.1,0.8-0.4,1.1
	c-0.3,0.3-0.7,0.4-1.1,0.4c-0.4,0-0.8-0.2-1.1-0.4c-0.3-0.3-0.5-0.7-0.4-1.1v-4.4c0-0.1-0.1-0.2-0.2-0.2c0,0,0,0-0.1,0h-4.8
	c-0.1,0-0.1,0-0.1,0.1c0,0,0,0,0,0c0,0.3-0.1,0.6-0.3,0.8c-0.2,0.2-0.5,0.3-0.8,0.3h-0.3c-0.4,0-0.7-0.1-1-0.4
	c-0.3-0.3-0.4-0.6-0.4-1V16.9c0-0.5,0.2-1.1,0.6-1.4c0.4-0.4,0.9-0.6,1.4-0.6h5.8c0.1,0,0.2-0.1,0.2-0.2c0,0,0,0,0-0.1v-1.5
	c0-0.4,0.2-0.8,0.4-1.1c0.3-0.3,0.7-0.4,1.1-0.4c0.4,0,0.8,0.1,1.1,0.4c0.3,0.3,0.4,0.7,0.4,1.1L186.9,14.6z M210.6,18.5
	c0-0.2,0.2-0.4,0.4-0.6c0.2-0.1,0.4-0.2,0.6-0.2c0,0,0.1,0,0.1,0c0,0,0,0,0,0c-0.1-0.9-0.2-1.6-0.2-2.1c0-0.1-0.1-0.2-0.2-0.2
	c0,0,0,0,0,0h-2.6c-0.4,0-0.7-0.1-0.9-0.4c-0.3-0.2-0.4-0.6-0.4-0.9c0-0.4,0.1-0.7,0.4-0.9c0.2-0.3,0.6-0.4,0.9-0.4h3.2
	c0.6,0,1.1,0.2,1.5,0.6c0.4,0.4,0.7,0.9,0.7,1.5c0.2,2.5,0.7,5,1.6,7.4c0.7,1.9,2,3.6,3.7,4.8c0.3,0.2,0.5,0.5,0.5,0.9
	c0,0,0,0.1,0,0.1c0,0.3-0.1,0.6-0.4,0.8c-0.3,0.3-0.7,0.5-1.1,0.6c-0.1,0-0.2,0-0.2,0c-0.3,0-0.7-0.1-1-0.3
	c-2.1-1.8-3.6-4.1-4.4-6.8c0,0,0-0.1-0.1-0.1c0,0-0.1,0-0.1,0c-0.9,2.6-2.4,4.9-4.4,6.7c-0.3,0.2-0.6,0.4-1,0.4c-0.1,0-0.1,0-0.2,0
	c-0.4,0-0.8-0.2-1.1-0.5c-0.2-0.2-0.4-0.6-0.4-0.9c0-0.4,0.2-0.8,0.5-1C208.3,25.1,209.8,22.3,210.6,18.5z M203.8,14.8
	c0.2,0.2,0.4,0.6,0.4,0.9v0.1c0,0.4-0.2,0.8-0.5,1c-0.2,0.2-0.5,0.3-0.9,0.3h-0.2c-0.4,0-0.7-0.2-1-0.5c-0.6-0.6-1.2-1.2-1.9-1.8
	c-0.3-0.2-0.4-0.5-0.4-0.9c0-0.3,0.1-0.6,0.4-0.8c0.3-0.2,0.7-0.4,1.1-0.4h0c0.4,0,0.7,0.1,1,0.4C202.5,13.6,203.2,14.1,203.8,14.8
	L203.8,14.8z M202.1,21c0.5,0,1.1,0.2,1.4,0.6c0.4,0.4,0.6,0.9,0.6,1.4v5.3c0,0.1,0,0.3,0.1,0.4c0.5,0.7,1.2,1.3,2,1.6
	c1,0.4,2.1,0.6,3.2,0.6c1.1,0,2.3,0.1,3.6,0.1c2,0,4-0.1,6.3-0.2h0.1c0.3,0,0.6,0.1,0.8,0.4c0.1,0.2,0.2,0.4,0.2,0.6
	c0,0.1,0,0.2-0.1,0.3c-0.1,0.4-0.4,0.8-0.7,1.1c-0.3,0.3-0.7,0.4-1.2,0.4c-1.8,0.1-3.5,0.1-5,0.1c-1.5,0-2.8,0-4-0.1
	c-1.3,0-2.5-0.2-3.7-0.7c-1-0.4-1.9-1-2.6-1.8c-0.1-0.1-0.2-0.1-0.3,0c-0.8,0.7-1.5,1.3-1.9,1.7c-0.2,0.2-0.5,0.3-0.8,0.3
	c-0.1,0-0.2,0-0.3,0c-0.4-0.1-0.7-0.4-0.9-0.7c-0.1-0.2-0.2-0.5-0.2-0.8c0-0.2,0-0.4,0.1-0.5c0.1-0.4,0.4-0.8,0.8-1.1
	c0.6-0.4,1.2-0.8,1.7-1.2c0.1-0.1,0.2-0.2,0.2-0.4v-4.6c0-0.1-0.1-0.2-0.2-0.2c0,0,0,0-0.1,0h-1.2c-0.3,0-0.7-0.1-0.9-0.4
	c-0.3-0.2-0.4-0.6-0.4-0.9c0-0.3,0.1-0.7,0.4-0.9c0.2-0.3,0.6-0.4,0.9-0.4L202.1,21z M227.8,27.4c0.7-1.1,1.3-2.3,1.9-3.6
	c0,0,0-0.1,0-0.1c0,0-0.1-0.1-0.1-0.1c-1,0.2-2,0.6-2.8,1.3c-0.6,0.5-1,1.3-1,2.1c0,0.3,0.1,0.6,0.3,0.8c0.1,0.2,0.4,0.3,0.6,0.3
	C227.1,28.2,227.5,27.9,227.8,27.4L227.8,27.4z M242.9,24.5c0.4,0.3,0.7,0.7,0.9,1.1c0.1,0.2,0.1,0.4,0.1,0.7c0,0.3-0.1,0.6-0.2,0.8
	c-0.2,0.4-0.5,0.7-0.9,0.8c-0.1,0-0.2,0-0.4,0c-0.3,0-0.6-0.1-0.8-0.3l-0.5-0.4c-0.1-0.1-0.2-0.1-0.3,0.1c-0.9,2.2-2.5,4.1-4.5,5.4
	c-0.3,0.2-0.8,0.4-1.2,0.4h-0.2c-0.5,0-1-0.2-1.3-0.5c-0.2-0.2-0.4-0.5-0.4-0.8c0-0.1,0-0.1,0-0.2c0-0.4,0.2-0.7,0.6-0.8
	c2-1.1,3.6-2.9,4.5-5c0.1-0.1,0-0.3-0.1-0.3c0,0,0,0,0,0c-1.6-0.9-3.3-1.5-5.1-1.8c-0.1,0-0.3,0.1-0.3,0.2c-0.8,1.9-1.7,3.7-2.6,5.5
	c-0.4,0.7-0.9,1.2-1.6,1.6c-0.6,0.3-1.4,0.5-2.1,0.5c-1,0-1.9-0.3-2.6-1c-0.7-0.7-1.1-1.8-1-2.8c0-1.8,0.8-3.5,2.2-4.6
	c1.6-1.3,3.6-2.1,5.7-2.1c0.1,0,0.3-0.1,0.3-0.2c1-2.2,1.5-3.5,1.7-3.8c0-0.1,0-0.1,0-0.2c0,0-0.1-0.1-0.1-0.1
	c-1.6,0-2.9,0.1-3.8,0.2c-0.1,0-0.3,0-0.4,0h-0.1c-0.3,0-0.7-0.1-0.9-0.4c-0.3-0.3-0.5-0.6-0.5-1.1c0-0.4,0.2-0.7,0.4-1
	c0.3-0.3,0.6-0.4,1-0.4h0.5c1.9,0,3.5-0.1,5-0.2l0.4,0c0.2,0,0.4-0.1,0.6-0.1c0.5,0,1.1,0.2,1.5,0.5c0.2,0.2,0.4,0.5,0.4,0.8v0.1
	c0,0.3-0.1,0.5-0.2,0.8c0,0,0,0,0,0.1c-0.8,1.6-1.6,3.2-2.2,4.9c0,0.1,0,0.1,0,0.2c0,0,0.1,0.1,0.1,0.1c1.6,0.3,3.2,0.7,4.7,1.4
	c0.1,0,0.1,0,0.2,0c0,0,0.1-0.1,0.1-0.1c0-0.2,0-0.4,0-0.6c0-0.4,0-0.7,0-1c0-0.4,0.2-0.8,0.5-1c0.2-0.2,0.5-0.4,0.9-0.4
	c0.1,0,0.1,0,0.2,0c0.4,0,0.8,0.3,1.1,0.6c0.2,0.3,0.4,0.6,0.4,1v0.1c-0.1,1-0.2,1.9-0.3,2.6c0,0.1,0,0.3,0.2,0.4
	C242.4,24.2,242.6,24.4,242.9,24.5L242.9,24.5z M251.7,15.9c0-0.1-0.1-0.2-0.2-0.2c0,0,0,0-0.1,0h-1.7c-0.1,0-0.2,0.1-0.2,0.2
	c0,0,0,0,0,0.1v3.8c0,0.1,0.1,0.2,0.2,0.2c0,0,0,0,0.1,0h1.7c0.1,0,0.2-0.1,0.2-0.2c0,0,0,0,0-0.1V15.9z M249.5,26.7
	c0,0.1,0.1,0.2,0.2,0.2c0,0,0,0,0.1,0h1.7c0.1,0,0.2-0.1,0.2-0.2c0,0,0,0,0-0.1v-4.1c0-0.1-0.1-0.2-0.2-0.2c0,0,0,0-0.1,0h-1.7
	c-0.1,0-0.2,0.1-0.2,0.2c0,0,0,0,0,0.1V26.7z M252.3,13.1c0.5,0,1.1,0.2,1.4,0.6c0.4,0.4,0.6,0.9,0.6,1.4v12.2
	c0,0.5-0.2,1.1-0.6,1.4c-0.4,0.4-0.9,0.6-1.4,0.6h-2.6c-0.1,0-0.2,0.1-0.2,0.2v0.6c0,0.4-0.1,0.7-0.4,0.9c-0.2,0.3-0.6,0.4-0.9,0.4
	c-0.3,0-0.7-0.1-0.9-0.4c-0.3-0.2-0.4-0.6-0.4-0.9V15.2c0-0.5,0.2-1.1,0.6-1.4c0.4-0.4,0.9-0.6,1.4-0.6L252.3,13.1z M256.6,28.5
	c-0.2-0.2-0.2-0.4-0.2-0.7c0-0.1,0-0.1,0-0.2c0-0.3,0.2-0.6,0.5-0.8c0.3-0.1,0.5-0.2,0.8-0.2c0.1,0,0.2,0,0.3,0
	c0.4,0,0.7,0.2,0.9,0.5c0.5,0.6,0.9,1.1,1.3,1.7c0.1,0.2,0.2,0.4,0.2,0.7c0,0.1,0,0.3,0,0.4c-0.1,0.4-0.4,0.7-0.7,0.9
	c-0.2,0.1-0.4,0.2-0.6,0.2c-0.1,0-0.3,0-0.4-0.1c-0.4-0.1-0.7-0.3-0.8-0.7C257.5,29.6,257.1,29,256.6,28.5L256.6,28.5z M268.1,19.2
	c0.2,0.2,0.4,0.5,0.4,0.9c0,0.3-0.1,0.6-0.4,0.9c-0.2,0.2-0.5,0.4-0.9,0.4h-1c-0.1,0-0.2,0.1-0.2,0.2c0,0,0,0,0,0.1v1.6
	c0,0.1,0.1,0.2,0.2,0.2c0,0,0,0,0.1,0h0.8c0.3,0,0.6,0.1,0.9,0.4c0.2,0.2,0.4,0.5,0.4,0.9c0,0.3-0.1,0.6-0.4,0.9
	c-0.2,0.2-0.5,0.4-0.9,0.4h-0.8c-0.1,0-0.2,0.1-0.2,0.2c0,0,0,0,0,0.1v5c0,0.6-0.1,1.1-0.3,1.6c-0.2,0.4-0.5,0.7-0.9,0.9
	c-0.8,0.3-1.7,0.4-2.6,0.4h-0.1c-0.4,0-0.7-0.1-1-0.4c-0.3-0.3-0.6-0.6-0.7-1c0-0.1,0-0.2,0-0.3c0-0.2,0.1-0.4,0.2-0.5
	c0.2-0.3,0.4-0.4,0.8-0.4h1.4c0.1,0,0.3,0,0.4-0.1c0.1-0.1,0.1-0.2,0.1-0.3v-4.9c0-0.1-0.1-0.2-0.2-0.2c0,0,0,0-0.1,0h-7
	c-0.3,0-0.6-0.1-0.9-0.4c-0.2-0.2-0.4-0.6-0.4-0.9c0-0.3,0.1-0.6,0.4-0.9c0.2-0.2,0.5-0.4,0.9-0.4h7c0.1,0,0.2-0.1,0.2-0.2
	c0,0,0,0,0-0.1v-1.6c0-0.1-0.1-0.2-0.2-0.2c0,0,0,0-0.1,0h-7c-0.3,0-0.7-0.1-0.9-0.4c-0.2-0.2-0.4-0.5-0.4-0.9
	c0-0.3,0.1-0.7,0.4-0.9c0.2-0.2,0.6-0.4,0.9-0.4h3.9c0.1,0,0.2-0.1,0.2-0.2c0,0,0,0,0-0.1v-1.6c0-0.1-0.1-0.2-0.2-0.2c0,0,0,0-0.1,0
	h-3.1c-0.3,0-0.7-0.1-0.9-0.4c-0.2-0.2-0.4-0.6-0.4-0.9c0-0.3,0.1-0.6,0.4-0.9c0.2-0.2,0.6-0.4,0.9-0.4h3.1c0.1,0,0.2-0.1,0.2-0.2
	c0,0,0,0,0-0.1v-0.9c0-0.4,0.1-0.7,0.4-1c0.3-0.3,0.6-0.4,1-0.4c0.4,0,0.7,0.1,1,0.4c0.3,0.3,0.4,0.6,0.4,1V14
	c0,0.1,0.1,0.2,0.2,0.2c0,0,0,0,0.1,0h3.3c0.3,0,0.7,0.1,0.9,0.4c0.2,0.2,0.4,0.5,0.4,0.9c0,0.3-0.1,0.7-0.4,0.9
	c-0.2,0.2-0.6,0.4-0.9,0.4h-3.3c-0.1,0-0.2,0.1-0.2,0.2c0,0,0,0,0,0.1v1.6c0,0.1,0.1,0.2,0.2,0.2c0,0,0,0,0.1,0h4
	C267.6,18.8,267.9,18.9,268.1,19.2L268.1,19.2z M280.4,18.4c-0.4,0-0.8-0.2-1.1-0.5c-0.3-0.3-0.4-0.7-0.4-1.1c0-0.4,0.2-0.8,0.4-1
	c0.3-0.2,0.6-0.4,1-0.4h0.1c1.1,0.1,2.2,0.1,3.4,0.1c1.2,0,2.5,0,3.8-0.1h0.1c0.3,0,0.7,0.1,0.9,0.4c0.3,0.3,0.5,0.6,0.5,1
	c0,0.4-0.2,0.8-0.4,1.1c-0.3,0.3-0.7,0.5-1.1,0.5c-1.2,0.1-2.4,0.1-3.6,0.1S281.6,18.5,280.4,18.4L280.4,18.4z M277.7,26.5
	c0.1-0.4,0.3-0.7,0.6-0.9c0.3-0.2,0.6-0.3,0.9-0.3c0.1,0,0.1,0,0.2,0c0.3,0,0.7,0.2,0.9,0.5c0.2,0.2,0.3,0.5,0.3,0.8v0.2
	c0,0.2,0,0.4,0,0.6c0,1.1,1.1,1.7,3.3,1.7c1.5,0,2.9-0.1,4.4-0.3c0.1,0,0.2,0,0.3,0c0.3,0,0.6,0.1,0.9,0.3c0.3,0.3,0.5,0.6,0.5,1.1
	c0,0.4-0.1,0.9-0.4,1.2c-0.3,0.3-0.7,0.6-1.1,0.6c-1.5,0.2-3,0.2-4.5,0.2c-1.6,0.1-3.2-0.3-4.5-1c-1-0.6-1.6-1.7-1.5-2.9
	C277.6,27.7,277.6,27.1,277.7,26.5L277.7,26.5z M271.7,15.1c0.1-0.4,0.3-0.9,0.6-1.1c0.3-0.3,0.6-0.4,1-0.4c0.1,0,0.1,0,0.2,0
	c0.4,0,0.8,0.2,1,0.6c0.2,0.2,0.3,0.5,0.3,0.8c0,0.1,0,0.2,0,0.4c0,0.2-0.1,0.4-0.1,0.5c-0.2,1.1-0.5,2.6-0.8,4.4
	c-0.2,1.4-0.4,2.9-0.4,4.3c0,0.4,0,0.9,0.1,1.3c0,0,0,0.1,0,0.1c0,0,0.1,0,0.1,0c0.1-0.3,0.3-0.8,0.6-1.3c0.1-0.2,0.3-0.4,0.5-0.4
	c0.2-0.1,0.5,0,0.6,0.1c0.2,0.2,0.4,0.4,0.5,0.7c0,0.1,0,0.2,0,0.4c0,0.1,0,0.3-0.1,0.4c-0.6,1.6-1,3.3-1.4,4.9
	c0,0.2-0.1,0.5-0.1,0.7c0,0.4-0.2,0.7-0.4,1c-0.2,0.3-0.6,0.4-0.9,0.5h-0.1c-0.3,0-0.7-0.1-1-0.3c-0.3-0.2-0.5-0.6-0.6-0.9
	c-0.4-2.1-0.6-4.3-0.6-6.4c0-0.7,0-1.4,0.1-2.1s0.1-1.5,0.2-2.3c0.1-0.8,0.2-1.4,0.2-1.9s0.2-1.1,0.3-1.8c0.1-0.7,0.2-1.1,0.2-1.3
	l0-0.3C271.6,15.3,271.7,15.2,271.7,15.1z M-1,62c0.1-0.4,0.3-0.8,0.6-1.1c0.3-0.2,0.7-0.4,1.1-0.4c0.1,0,0.1,0,0.2,0
	c0.4,0,0.7,0.2,1,0.6C2,61.4,2.1,61.7,2.1,62c0,0.1,0,0.2,0,0.2C2,62.6,2,62.9,2,63.2c0,0.8,0.5,1.6,1.2,1.9
	c1.1,0.5,2.4,0.8,3.7,0.7c2.3,0,4.5-0.2,6.7-0.6c0.1,0,0.2,0,0.3,0c0.3,0,0.6,0.1,0.8,0.3c0.3,0.2,0.5,0.6,0.5,1
	c0,0.5-0.1,0.9-0.4,1.3c-0.3,0.4-0.7,0.6-1.2,0.7C11.4,68.8,9.2,69,7,69c-2.1,0.1-4.2-0.3-6.1-1.3c-1.3-0.8-2.1-2.2-2.1-3.8
	C-1.2,63.3-1.1,62.6-1,62z M13.1,49.8c-0.1-0.2-0.1-0.5-0.1-0.7c0.1-0.2,0.2-0.4,0.5-0.5c0.1-0.1,0.3-0.1,0.5-0.1c0.1,0,0.3,0,0.4,0
	c0.3,0.1,0.5,0.3,0.7,0.5c0.3,0.5,0.6,1,0.9,1.5C16,50.6,16,50.8,16,51c0,0.1,0,0.2-0.1,0.3c-0.1,0.3-0.3,0.5-0.5,0.6
	C15.3,51.9,15.1,52,15,52c-0.1,0-0.3,0-0.4-0.1c-0.3-0.1-0.5-0.3-0.6-0.6c0-0.1-0.1-0.2-0.1-0.2c0,0,0,0,0,0c0,0,0,0,0,0v0.7
	c0,0.6-0.2,1.1-0.6,1.5c-0.4,0.4-0.9,0.6-1.5,0.7c-1.9,0.1-3.5,0.2-4.8,0.2c-1.6,0-3.2,0-4.9-0.1c-0.4,0-0.8-0.2-1.1-0.5
	c-0.3-0.3-0.5-0.7-0.5-1.2c0-0.4,0.2-0.8,0.5-1.1c0.3-0.2,0.6-0.4,1-0.4H2C3.4,50.9,5,51,6.9,51c2.1,0,4.3-0.1,6.5-0.3
	c0,0,0.1,0,0.1-0.1c0,0,0-0.1,0-0.1C13.4,50.2,13.2,50,13.1,49.8L13.1,49.8z M16,48.7c-0.1-0.1-0.1-0.3-0.1-0.4c0-0.1,0-0.2,0-0.3
	c0.1-0.2,0.2-0.4,0.5-0.5c0.2-0.1,0.3-0.1,0.5-0.1c0.1,0,0.2,0,0.4,0.1c0.3,0.1,0.5,0.2,0.7,0.5c0.3,0.5,0.6,1,0.9,1.5
	c0.1,0.1,0.1,0.3,0.1,0.4c0,0.1,0,0.2,0,0.3c-0.1,0.3-0.3,0.5-0.5,0.6c-0.1,0.1-0.3,0.1-0.4,0.1c-0.1,0-0.3,0-0.4-0.1
	c-0.3-0.1-0.5-0.3-0.6-0.5C16.6,49.7,16.3,49.2,16,48.7L16,48.7z M32.1,59.4c0,0.1,0.1,0.2,0.2,0.2c0,0,0,0,0.1,0H37
	c0.1,0,0.2-0.1,0.2-0.2c0,0,0,0,0-0.1V57c0-0.1-0.1-0.2-0.2-0.2c0,0,0,0-0.1,0h-4.6c-0.1,0-0.2,0.1-0.2,0.2c0,0,0,0,0,0.1V59.4z
	 M24.7,59.4c0,0.1,0,0.1,0,0.2c0,0,0.1,0.1,0.2,0.1H29c0.1,0,0.2-0.1,0.2-0.2c0,0,0,0,0-0.1V57c0-0.1-0.1-0.2-0.2-0.2c0,0,0,0-0.1,0
	H25c-0.1,0-0.2,0.1-0.2,0.2c0,0,0,0,0,0.1v0.2C24.7,57.9,24.7,58.7,24.7,59.4L24.7,59.4z M29.2,51.5c0-0.1-0.1-0.2-0.2-0.2
	c0,0,0,0-0.1,0H25c-0.1,0-0.2,0.1-0.2,0.2c0,0,0,0,0,0.1v2.3c0,0.1,0.1,0.2,0.2,0.2c0,0,0,0,0.1,0H29c0.1,0,0.2-0.1,0.2-0.2
	c0,0,0,0,0-0.1V51.5z M37,54.1c0.1,0,0.2-0.1,0.2-0.2c0,0,0,0,0-0.1v-2.3c0-0.1-0.1-0.2-0.2-0.2c0,0,0,0-0.1,0h-4.6
	c-0.1,0-0.2,0.1-0.2,0.2c0,0,0,0,0,0.1v2.3c0,0.1,0.1,0.2,0.2,0.2c0,0,0,0,0.1,0H37z M38,48.6c0.5,0,1.1,0.2,1.4,0.6
	c0.4,0.4,0.6,0.9,0.6,1.4V66c0,0.6-0.1,1.2-0.3,1.8c-0.2,0.4-0.6,0.8-1,0.9c-1,0.4-2.1,0.5-3.1,0.5h0c-0.4,0-0.8-0.1-1.1-0.4
	c-0.3-0.3-0.6-0.6-0.7-1c0-0.1-0.1-0.2-0.1-0.4c0-0.2,0.1-0.4,0.2-0.5c0.2-0.3,0.5-0.4,0.8-0.4h1.9c0.4,0,0.6-0.2,0.6-0.6v-3.4
	c0-0.1-0.1-0.2-0.2-0.2c0,0,0,0-0.1,0h-4.6c-0.1,0-0.2,0.1-0.2,0.2c0,0,0,0,0,0.1v5c0,0.4-0.1,0.7-0.4,1c-0.3,0.3-0.6,0.4-1,0.4
	c-0.4,0-0.7-0.1-1-0.4c-0.3-0.3-0.4-0.6-0.4-1v-5c0-0.1-0.1-0.2-0.2-0.2c0,0,0,0-0.1,0h-4.4c-0.1,0-0.3,0.1-0.3,0.2
	c-0.3,2-1,4-2.1,5.7c-0.2,0.3-0.5,0.5-0.9,0.5c0,0,0,0-0.1,0c-0.4,0-0.7-0.1-1-0.4c-0.3-0.2-0.5-0.6-0.5-0.9v-0.3
	c0-0.3,0.1-0.6,0.2-0.8c0.2-0.4,0.5-0.8,0.6-1.2c0.4-0.9,0.7-1.8,0.9-2.8c0.2-1,0.3-1.9,0.3-2.7s0.1-1.7,0.1-2.7v-6.5
	c0-0.5,0.2-1.1,0.6-1.4c0.4-0.4,0.9-0.6,1.4-0.6L38,48.6z M57.4,51.2c0,0,0-0.1,0-0.1c0,0-0.1-0.1-0.1-0.1h-5.6c0,0-0.1,0-0.1,0
	c0,0,0,0.1,0,0.1c0.2,0.4,0.3,0.8,0.4,1.1c0,0.1,0,0.1,0,0.2c0,0.1-0.1,0.1-0.2,0.1v0H57v0c-0.1,0-0.1-0.1-0.2-0.1
	c0-0.1,0-0.1,0-0.2C57.1,51.8,57.3,51.4,57.4,51.2z M63.7,52.6c0.3,0,0.6,0.1,0.8,0.3c0.2,0.2,0.3,0.5,0.3,0.8
	c0,0.3-0.1,0.6-0.3,0.8c-0.2,0.2-0.5,0.3-0.8,0.3H45.2c-0.3,0-0.6-0.1-0.8-0.3c-0.2-0.2-0.3-0.5-0.3-0.8c0-0.3,0.1-0.6,0.3-0.8
	c0.2-0.2,0.5-0.3,0.8-0.3h3.8c0,0,0.1,0,0.1-0.1c0,0,0-0.1,0-0.1c-0.1-0.4-0.3-0.8-0.5-1.4c0-0.1,0-0.1,0.1-0.1h-2.4
	c-0.3,0-0.6-0.1-0.8-0.3c-0.2-0.2-0.3-0.5-0.3-0.8c0-0.3,0.1-0.6,0.3-0.8c0.2-0.2,0.5-0.3,0.8-0.3h6.5c0.1,0,0.1,0,0.1-0.1
	c0,0,0,0,0,0c0-0.3,0.1-0.6,0.3-0.8c0.2-0.2,0.5-0.3,0.8-0.3h0.6c0.3,0,0.6,0.1,0.8,0.3c0.2,0.2,0.3,0.5,0.3,0.8
	c0,0.1,0,0.1,0.1,0.1c0,0,0,0,0,0h6.5c0.3,0,0.6,0.1,0.8,0.3c0.2,0.2,0.3,0.5,0.3,0.8c0,0.3-0.1,0.6-0.3,0.8
	c-0.2,0.2-0.5,0.3-0.8,0.3h-2.2c0.1,0,0.1,0.1,0.2,0.1c0,0.1,0,0.1,0,0.2c-0.1,0.2-0.4,0.6-0.7,1.1c0,0,0,0.1,0,0.1
	c0,0,0,0.1,0.1,0.1L63.7,52.6z M46.4,68.6c-0.3,0.3-0.6,0.4-1,0.4h-0.1c-0.4,0-0.8-0.1-1.1-0.4c-0.3-0.2-0.4-0.5-0.4-0.8
	c0-0.3,0.1-0.6,0.4-0.8c0.6-0.6,1.2-1.3,1.6-2.1c0.2-0.3,0.4-0.6,0.8-0.7c0.2-0.1,0.4-0.1,0.5-0.1c0.1,0,0.3,0,0.4,0.1
	c0.3,0.1,0.6,0.3,0.7,0.7c0.1,0.1,0.1,0.3,0.1,0.5c0,0.2,0,0.3-0.1,0.5c-0.2,0.5-0.5,1-0.8,1.5C47.1,67.8,46.8,68.2,46.4,68.6z
	 M49.6,60.2c-0.1,0-0.2,0.1-0.2,0.2c0,0,0,0,0,0.1v0.6c0,0.1,0.1,0.2,0.2,0.2c0,0,0,0,0.1,0h9.9c0.1,0,0.2-0.1,0.2-0.2
	c0,0,0,0,0-0.1v-0.6c0-0.1-0.1-0.2-0.2-0.2c0,0,0,0-0.1,0H49.6z M49.6,57.6c-0.1,0-0.2,0.1-0.2,0.2c0,0,0,0,0,0.1v0.6
	c0,0.1,0.1,0.2,0.2,0.2c0,0,0,0,0.1,0h9.9c0.1,0,0.2-0.1,0.2-0.2c0,0,0,0,0-0.1v-0.6c0-0.1-0.1-0.2-0.2-0.2c0,0,0,0-0.1,0L49.6,57.6
	z M53.4,67.4h3.3c0.2,0,0.5,0,0.7-0.1c0.2-0.1,0.3-0.3,0.3-0.5c0.1-0.3,0.2-0.5,0.5-0.7c0.2-0.1,0.3-0.1,0.5-0.1c0.1,0,0.2,0,0.3,0
	c0.4,0.1,0.7,0.4,0.9,0.7c0.1,0.2,0.2,0.4,0.2,0.7c0,0.1,0,0.2,0,0.3c-0.1,0.6-0.5,1.2-1,1.6c-0.6,0.3-1.4,0.5-2.1,0.4h-3.9
	c-1,0.1-2.1-0.1-3-0.6c-0.6-0.6-0.9-1.5-0.8-2.4v-0.5c0-0.5,0.2-1.1,0.6-1.4c0.4-0.4,0.9-0.6,1.4-0.6h0.5c-0.1,0-0.1-0.1-0.1-0.1
	c0-0.1,0-0.1,0.1-0.2l0.7-0.7c0,0,0,0,0-0.1c0,0,0,0-0.1,0h-3.8c-0.5,0-1.1-0.2-1.4-0.6c-0.4-0.4-0.6-0.9-0.6-1.4v-3.2
	c0-0.5,0.2-1.1,0.6-1.4c0.4-0.4,0.9-0.6,1.4-0.6h11.8c0.5,0,1.1,0.2,1.4,0.6c0.4,0.4,0.6,0.9,0.6,1.4V61c0,0.5-0.2,1.1-0.6,1.4
	c-0.4,0.4-0.9,0.6-1.4,0.6H55c0,0,0,0,0,0c0,0,0,0,0,0c0,0,0,0.1,0,0.1c0.4,0.2,0.9,0.4,1.3,0.7c0.3,0.2,0.4,0.4,0.5,0.8v0.1
	c0,0.3-0.1,0.5-0.3,0.7c-0.2,0.2-0.6,0.4-0.9,0.4h-0.1c-0.3,0-0.6-0.1-0.8-0.3c-0.7-0.5-1.4-0.9-2.2-1.2c0,0-0.1,0-0.1,0
	c0,0-0.1,0.1-0.1,0.1v2.2c0,0.3,0.1,0.5,0.2,0.6C52.7,67.4,53,67.4,53.4,67.4L53.4,67.4z M60.5,65.7c-0.2-0.2-0.3-0.4-0.3-0.7v-0.1
	c0-0.3,0.2-0.6,0.5-0.7C61,64,61.2,64,61.5,64h0.2c0.4,0,0.7,0.2,1,0.4c0.8,0.7,1.5,1.5,2.2,2.4c0.2,0.2,0.3,0.4,0.3,0.7
	c0,0.1,0,0.2,0,0.3c-0.1,0.3-0.3,0.6-0.6,0.8c-0.2,0.1-0.4,0.2-0.7,0.2c-0.1,0-0.2,0-0.4,0c-0.3-0.1-0.7-0.3-0.9-0.6
	C62,67.3,61.3,66.5,60.5,65.7L60.5,65.7z M67.8,52.5c0-0.5,0.2-0.9,0.5-1.2c0.3-0.3,0.7-0.5,1.2-0.5h0c0.5,0,0.9,0.2,1.2,0.6
	c0.3,0.3,0.4,0.7,0.4,1.1c0,0.1,0,0.1,0,0.2c0,0.4,0,0.8,0,1.1v1c0,1.5,0,2.8,0.1,4c0.4,3.8,1.2,5.8,2.5,5.8c0.7,0,1.3-1,2-2.9
	c0.1-0.4,0.4-0.6,0.8-0.7c0.1,0,0.2,0,0.2,0c0.3,0,0.5,0.1,0.7,0.4c0.4,0.4,0.6,1,0.7,1.5c0,0.2,0,0.3,0,0.5c0,0.4-0.1,0.8-0.3,1.2
	c-0.5,1.1-1.1,2.1-2,3c-0.6,0.6-1.4,0.9-2.3,0.9c-1.5,0-2.8-0.8-3.6-2.1c-1-1.4-1.6-3.6-2-6.6c-0.2-1.8-0.3-3.9-0.3-6.4L67.8,52.5z
	 M81.1,53.5c-0.1-0.2-0.2-0.4-0.2-0.7c0-0.1,0-0.3,0-0.4c0.1-0.3,0.4-0.6,0.7-0.7c0.2-0.1,0.5-0.1,0.7-0.1c0.2,0,0.4,0,0.7,0.1
	c0.4,0.1,0.8,0.4,1.1,0.8c0.8,1.4,1.5,2.8,2,4.3c0.5,1.6,1,3.2,1.3,4.8c0,0.1,0,0.2,0,0.4c0,0.4-0.1,0.7-0.3,1
	c-0.2,0.4-0.6,0.7-1.1,0.9c-0.1,0.1-0.3,0.1-0.5,0.1c-0.2,0-0.5-0.1-0.7-0.2c-0.3-0.2-0.6-0.6-0.6-1C83.8,59.6,82.8,56.4,81.1,53.5z
	 M101.9,58.6h-0.1c-0.3,0-0.6-0.1-0.8-0.3c-0.3-0.2-0.4-0.6-0.4-0.9c0-0.4,0.1-0.8,0.4-1c0.3-0.3,0.6-0.5,1-0.5
	c1.2-0.1,2.2-0.1,3.1-0.1c0.9,0,1.8,0,2.8,0.1c0.4,0,0.7,0.2,1,0.5c0.2,0.3,0.4,0.6,0.4,1c0,0.4-0.2,0.8-0.4,1
	c-0.2,0.2-0.5,0.3-0.9,0.3c0,0-0.1,0-0.1,0c-1-0.1-1.9-0.1-2.7-0.1C103.9,58.5,102.8,58.5,101.9,58.6L101.9,58.6z M100.9,51.4
	c0.1,0,0.2,0,0.3,0c0.3,0,0.5,0.1,0.7,0.3c0.3,0.2,0.5,0.6,0.5,0.9c0,0.4-0.1,0.8-0.4,1.2c-0.3,0.3-0.6,0.6-1.1,0.6
	c-0.9,0.2-1.9,0.3-2.9,0.4c-0.1,0-0.3,0.1-0.3,0.3c-0.2,1.1-0.5,2-0.7,2.8c-0.8,3.2-1.8,6.3-3.1,9.4c-0.2,0.5-0.5,0.8-1,1
	c-0.2,0.1-0.5,0.2-0.8,0.2c-0.2,0-0.4,0-0.6-0.1c-0.4-0.1-0.7-0.5-0.9-0.9c-0.1-0.2-0.1-0.4-0.1-0.6c0-0.2,0.1-0.5,0.2-0.7
	c0.6-1.3,1.2-2.8,1.8-4.5c0.6-1.7,1.1-3.3,1.5-4.7c0.1-0.4,0.3-1,0.4-1.7c0-0.1,0-0.1,0-0.2c0,0-0.1-0.1-0.1-0.1c-0.6,0-1,0-1.3,0
	c-0.5,0-0.9,0-1.4,0c-0.4,0-0.8-0.2-1.1-0.5c-0.3-0.3-0.5-0.7-0.4-1.1c0-0.4,0.1-0.7,0.4-0.9c0.2-0.2,0.6-0.4,0.9-0.4h0.1
	c0.5,0,1,0,1.5,0c0.6,0,1.3,0,1.9,0c0.1,0,0.3-0.1,0.3-0.2c0.1-0.4,0.1-0.8,0.2-1.1c0-0.2,0-0.4,0-0.6c0-0.5,0.3-0.9,0.6-1.2
	c0.3-0.3,0.7-0.4,1.1-0.4h0.1c0.5,0,0.9,0.3,1.1,0.6c0.2,0.3,0.3,0.6,0.3,0.9c0,0.1,0,0.3,0,0.4c0,0.2-0.1,0.3-0.1,0.4l-0.1,0.7
	c0,0.1,0,0.1,0,0.2c0,0,0.1,0.1,0.2,0C99.4,51.7,100.2,51.6,100.9,51.4L100.9,51.4z M98.8,63.1c0.1-0.4,0.3-0.7,0.6-1
	c0.3-0.2,0.6-0.3,0.9-0.3h0.2c0.4,0,0.7,0.2,0.9,0.5c0.2,0.2,0.3,0.5,0.3,0.8v0.2c0,0.2,0,0.4,0,0.6c0,0.5,0.2,1,0.7,1.3
	c0.8,0.4,1.6,0.5,2.5,0.5c1.2,0,2.3-0.1,3.4-0.2c0.1,0,0.1,0,0.2,0c0.3,0,0.6,0.1,0.8,0.3c0.3,0.2,0.4,0.6,0.4,0.9
	c0,0.4-0.2,0.9-0.5,1.2c-0.3,0.3-0.7,0.5-1.1,0.6c-1.2,0.1-2.3,0.2-3.3,0.2c-1.6,0.1-3.1-0.2-4.5-1c-1-0.6-1.6-1.7-1.5-2.8
	C98.6,64.2,98.7,63.6,98.8,63.1z M130.5,52c0.1,0.1,0.1,0.3,0.1,0.5c0,0.1,0,0.2-0.1,0.3c-0.1,0.3-0.3,0.5-0.5,0.6
	c-0.1,0.1-0.3,0.1-0.4,0.1c-0.1,0-0.3,0-0.4-0.1c-0.3-0.1-0.5-0.3-0.6-0.5c-0.3-0.6-0.6-1.1-0.8-1.5c-0.1-0.1-0.1-0.3-0.1-0.4
	c0-0.1,0-0.2,0-0.3c0.1-0.3,0.2-0.5,0.5-0.5c0.1-0.1,0.3-0.1,0.5-0.1c0.1,0,0.3,0,0.4,0.1c0.3,0.1,0.5,0.3,0.7,0.5
	C129.9,51,130.2,51.5,130.5,52L130.5,52z M124.2,58.9c0,0-0.1,0-0.1,0c-0.3,0-0.6-0.1-0.8-0.4c-0.3-0.2-0.4-0.6-0.4-0.9
	c0-0.4,0.1-0.8,0.4-1c0.3-0.3,0.6-0.5,1-0.5c1.1-0.1,2.2-0.1,3.2-0.1c1,0,1.9,0,2.7,0.1c0.4,0,0.7,0.2,1,0.5c0.2,0.3,0.4,0.7,0.4,1
	c0,0.4-0.2,0.8-0.4,1c-0.2,0.2-0.5,0.3-0.9,0.3c0,0-0.1,0-0.1,0c-1-0.1-1.9-0.1-2.6-0.1C126.3,58.7,125.2,58.8,124.2,58.9
	L124.2,58.9z M123.2,51.7c0.1,0,0.2,0,0.3,0c0.3,0,0.5,0.1,0.8,0.3c0.3,0.2,0.5,0.6,0.4,0.9c0,0.4-0.1,0.8-0.4,1.2
	c-0.3,0.3-0.6,0.6-1,0.6c-0.9,0.2-1.9,0.3-2.9,0.4c-0.1,0-0.3,0.1-0.3,0.3c-0.2,1.1-0.5,2-0.7,2.8c-0.8,3.2-1.9,6.3-3.1,9.4
	c-0.2,0.5-0.5,0.8-1,1c-0.2,0.1-0.5,0.2-0.8,0.2c-0.2,0-0.4,0-0.6-0.1c-0.4-0.1-0.8-0.4-0.9-0.9c-0.1-0.2-0.1-0.4-0.1-0.6
	c0-0.2,0.1-0.5,0.2-0.7c0.6-1.3,1.2-2.8,1.8-4.5c0.6-1.7,1.1-3.3,1.5-4.7c0.3-1.1,0.4-1.7,0.4-1.8c0,0,0-0.1,0-0.1
	c0,0-0.1-0.1-0.2-0.1c-0.6,0-1,0-1.3,0c-0.5,0-0.9,0-1.4,0c-0.4,0-0.8-0.2-1.1-0.5c-0.3-0.3-0.5-0.7-0.4-1.1c0-0.4,0.1-0.7,0.4-0.9
	c0.2-0.2,0.6-0.4,0.9-0.4h0.1c0.4,0,1,0,1.5,0c0.6,0,1.2,0,1.9-0.1c0.1,0,0.3-0.1,0.3-0.2c0.1-0.4,0.1-0.7,0.2-1.1
	c0-0.2,0.1-0.4,0.1-0.6c0-0.5,0.2-0.9,0.6-1.2c0.3-0.3,0.7-0.4,1.1-0.4h0.1c0.5,0,0.9,0.3,1.1,0.6c0.2,0.3,0.3,0.6,0.3,0.9
	c0,0.1,0,0.3,0,0.4c0,0.2-0.1,0.4-0.1,0.5l-0.1,0.7c0,0,0,0.1,0,0.1c0,0,0.1,0.1,0.2,0.1C121.6,52,122.4,51.9,123.2,51.7L123.2,51.7
	z M121,63.3c0.1-0.4,0.3-0.7,0.6-1c0.3-0.2,0.6-0.3,1-0.3h0.2c0.4,0,0.7,0.2,0.9,0.5c0.2,0.2,0.3,0.5,0.3,0.8c0,0.1,0,0.1,0,0.2
	c0,0.2,0,0.4,0,0.6c0,0.5,0.2,1,0.7,1.3c0.8,0.4,1.6,0.6,2.4,0.5c1.2,0,2.3-0.1,3.4-0.3h0.2c0.3,0,0.6,0.1,0.8,0.3
	c0.3,0.2,0.4,0.6,0.4,0.9c0,0.5-0.2,0.9-0.5,1.2c-0.3,0.3-0.7,0.5-1.1,0.5c-1.1,0.1-2.2,0.2-3.3,0.2c-1.6,0.1-3.1-0.2-4.5-1
	c-1-0.6-1.6-1.7-1.5-2.8C120.9,64.5,120.9,63.9,121,63.3z M130.5,50.2c-0.1-0.1-0.1-0.3-0.1-0.5c0-0.1,0-0.2,0-0.3
	c0.1-0.2,0.3-0.4,0.5-0.5c0.1-0.1,0.3-0.1,0.5-0.1c0.1,0,0.3,0,0.4,0c0.3,0.1,0.5,0.3,0.7,0.5c0.3,0.5,0.6,1,0.9,1.5
	c0.1,0.1,0.1,0.3,0.1,0.4c0,0.1,0,0.2-0.1,0.3c-0.1,0.3-0.3,0.5-0.5,0.6c-0.1,0.1-0.3,0.1-0.4,0.1c-0.1,0-0.3,0-0.4-0.1
	c-0.3-0.1-0.5-0.3-0.6-0.5C131.1,51.2,130.8,50.6,130.5,50.2z M144.6,49.5c0.3-0.4,0.8-0.6,1.3-0.6h0.1c0.4,0,0.8,0.2,1.2,0.4
	c0.3,0.3,0.5,0.7,0.5,1.1c0,0.5-0.2,0.9-0.6,1.2c0,0-0.2,0.2-0.6,0.5c-0.1,0.1-1.1,0.9-2.8,2.2c-1.7,1.4-2.9,2.3-3.5,2.8
	c-0.3,0.3-0.6,0.6-0.8,0.9c-0.1,0.2-0.1,0.4,0,0.6c0.2,0.3,0.5,0.7,0.9,0.9c0.1,0.1,1.1,0.9,3,2.5c1.9,1.6,3.3,2.8,4.3,3.6
	c0.4,0.3,0.6,0.8,0.6,1.3c0,0.5-0.2,1-0.6,1.3c-0.3,0.3-0.8,0.5-1.3,0.5h-0.1c-0.5,0-1-0.2-1.3-0.6c-0.3-0.4-0.6-0.6-0.8-0.8
	c-1-1-3.3-3.1-7.1-6.3c-0.6-0.5-1.2-1.1-1.5-1.8c-0.1-0.2-0.2-0.5-0.2-0.7c0-0.3,0.1-0.6,0.2-0.9c0.4-0.7,1-1.3,1.6-1.8
	c3.5-2.9,5.8-4.8,6.7-5.7C144.2,49.9,144.4,49.7,144.6,49.5L144.6,49.5z M152.4,58.1c0,0.3-0.2,0.5-0.5,0.7
	c-0.1,0.1-0.3,0.1-0.5,0.1c-0.1,0-0.2,0-0.3,0c-0.3-0.1-0.5-0.3-0.7-0.6c-0.1-0.2-0.1-0.4-0.1-0.6c0-0.1,0-0.2,0-0.3
	c0.3-1.4,0.5-2.8,0.6-4.2c0-0.3,0.1-0.5,0.4-0.7c0.2-0.1,0.4-0.2,0.6-0.2h0.1c0.3,0,0.6,0.2,0.7,0.4c0.2,0.2,0.3,0.4,0.3,0.7
	C153,55,152.8,56.6,152.4,58.1L152.4,58.1z M161.3,64.2c0,0.1,0.1,0.2,0.2,0.2c0,0,0,0,0.1,0h6.7c0.1,0,0.2-0.1,0.2-0.2
	c0,0,0,0,0-0.1v-0.7c0-0.1-0.1-0.2-0.2-0.2c0,0,0,0-0.1,0h-6.7c-0.1,0-0.2,0.1-0.2,0.2c0,0,0,0,0,0.1V64.2z M168.4,60.4
	c0-0.1-0.1-0.2-0.2-0.2c0,0,0,0-0.1,0h-6.7c-0.1,0-0.2,0.1-0.2,0.2c0,0,0,0,0,0.1V61c0,0.1,0.1,0.2,0.2,0.2c0,0,0,0,0.1,0h6.7
	c0.1,0,0.2-0.1,0.2-0.2c0,0,0,0,0-0.1V60.4z M169.1,58c0.5,0,1.1,0.2,1.4,0.6c0.4,0.4,0.6,0.9,0.6,1.4v7.1c0,0.5-0.1,1-0.2,1.5
	c-0.2,0.4-0.5,0.7-0.9,0.8c-0.8,0.3-1.6,0.4-2.4,0.4h0c-0.3,0-0.7-0.1-0.9-0.4c-0.3-0.2-0.5-0.5-0.6-0.9c0-0.1,0-0.2,0-0.3
	c0-0.2,0.1-0.3,0.2-0.5c0.1-0.2,0.4-0.4,0.7-0.4h1.1c0.1,0,0.3,0,0.4-0.1c0.1-0.1,0.1-0.2,0.1-0.3v-0.5c0-0.1-0.1-0.2-0.2-0.2
	c0,0,0,0-0.1,0h-6.7c-0.1,0-0.2,0.1-0.2,0.2c0,0,0,0,0,0.1v2c0,0.3-0.1,0.7-0.4,0.9c-0.5,0.5-1.4,0.5-1.9,0
	c-0.3-0.2-0.4-0.6-0.4-0.9v-8.6c0-0.5,0.2-1.1,0.6-1.4c0.4-0.4,0.9-0.6,1.4-0.6L169.1,58z M166.2,54.9c0,0.1,0.1,0.2,0.2,0.2
	c0,0,0,0,0.1,0h5.3c0.3,0,0.5,0.1,0.7,0.3c0.2,0.2,0.3,0.5,0.3,0.7c0,0.3-0.1,0.5-0.3,0.7c-0.2,0.2-0.4,0.3-0.7,0.3H158
	c-0.3,0-0.5-0.1-0.7-0.3c-0.2-0.2-0.3-0.4-0.3-0.7c0-0.3,0.1-0.5,0.3-0.7c0.2-0.2,0.5-0.3,0.7-0.3h5.1c0.1,0,0.2-0.1,0.2-0.2
	c0,0,0,0,0-0.1v-0.6c0-0.1-0.1-0.2-0.2-0.2c0,0,0,0-0.1,0h-4.7v0c0,0.1,0,0.1-0.1,0.2l-0.8,0.4c-0.1,0.1-0.2,0.1-0.4,0.1
	c-0.1,0-0.2,0-0.4-0.1c-0.2-0.1-0.4-0.3-0.5-0.5c-0.2-0.5-0.3-1-0.5-1.4c0,0,0,0-0.1,0c0,0,0,0,0,0.1v15.9c0,0.3-0.1,0.7-0.4,0.9
	c-0.5,0.5-1.3,0.5-1.8,0c-0.2-0.2-0.4-0.6-0.4-0.9V48.8c0-0.3,0.1-0.7,0.4-0.9c0.2-0.2,0.6-0.4,0.9-0.4c0.3,0,0.7,0.1,0.9,0.4
	c0.2,0.2,0.4,0.6,0.4,0.9v2.4c0,0,0,0.1,0,0.1c0,0,0.1,0,0.1,0c0.2-0.1,0.4-0.1,0.5-0.1c0.2,0,0.3,0,0.5,0.1
	c0.3,0.1,0.6,0.4,0.8,0.7c0.3,0.7,0.5,1.3,0.7,1.9c0,0,0,0,0,0c0,0,0,0,0,0c0,0,0,0,0,0c0-0.5,0.2-0.9,0.5-1.2
	c0.3-0.3,0.7-0.5,1.2-0.5h3c0.1,0,0.2-0.1,0.2-0.2c0,0,0,0,0-0.1v-0.5c0-0.1-0.1-0.2-0.2-0.2c0,0,0,0-0.1,0h-4.4
	c-0.3,0-0.5-0.1-0.7-0.3c-0.2-0.2-0.3-0.4-0.3-0.7c0-0.3,0.1-0.5,0.3-0.7c0.2-0.2,0.5-0.3,0.7-0.3h4.4c0.1,0,0.2,0,0.2-0.1
	c0,0,0,0,0,0v0c0-0.4,0.1-0.7,0.4-1c0.3-0.3,0.6-0.4,1-0.4c0.4,0,0.7,0.1,1,0.4c0.3,0.3,0.4,0.6,0.4,1v0c0,0.1,0,0.2,0.1,0.2
	c0,0,0,0,0,0h4.6c0.3,0,0.5,0.1,0.7,0.3c0.2,0.2,0.3,0.5,0.3,0.7c0,0.3-0.1,0.5-0.3,0.7c-0.2,0.2-0.4,0.3-0.7,0.3h-4.5
	c-0.1,0-0.2,0.1-0.2,0.2c0,0,0,0,0,0.1v0.5c0,0.1,0.1,0.2,0.2,0.2c0,0,0,0,0.1,0h4c0.3,0,0.5,0.1,0.7,0.3c0.2,0.2,0.3,0.4,0.3,0.7
	c0,0.3-0.1,0.5-0.3,0.7c-0.2,0.2-0.4,0.3-0.7,0.3h-4c-0.1,0-0.2,0.1-0.2,0.2c0,0,0,0,0,0.1L166.2,54.9z M181.7,58.8L181.7,58.8
	c-0.2-0.1-0.3-0.2-0.4-0.4c-0.1-0.2-0.1-0.4,0-0.5c0.2-0.6,0.4-1.2,0.5-1.7c0-0.1,0-0.1,0-0.2c0,0-0.1-0.1-0.2-0.1h-3.2
	c-0.1,0-0.1,0-0.1,0.1c0,0,0,0.1,0,0.1c0.2,0.5,0.4,1.1,0.6,1.7c0,0.2,0,0.4-0.1,0.5c-0.1,0.2-0.3,0.3-0.5,0.4v0H181.7z M181.5,52
	c-0.1,0-0.2,0.1-0.2,0.2c0,0,0,0,0,0.1v1.2c0,0.1,0.1,0.2,0.2,0.2c0,0,0,0,0.1,0h2.6c0.3,0,0.6,0.1,0.8,0.4c0.2,0.2,0.4,0.5,0.4,0.8
	c0,0.3-0.1,0.6-0.4,0.8c-0.2,0.2-0.5,0.4-0.8,0.4h-0.7c0,0,0,0,0,0s0,0,0,0c0.2,0.1,0.4,0.2,0.5,0.4c0.1,0.2,0.1,0.4,0,0.6
	c-0.5,1-0.7,1.6-0.7,1.6c0,0,0,0.1,0,0.1c0,0,0,0.1,0.1,0.1h0.4c0.3,0,0.6,0.1,0.8,0.4c0.2,0.2,0.4,0.5,0.4,0.8
	c0,0.3-0.1,0.6-0.4,0.8c-0.2,0.2-0.5,0.4-0.8,0.4h-2.2c-0.1,0-0.2,0.1-0.2,0.2c0,0,0,0,0,0.1v1.4c0,0.1,0.1,0.2,0.2,0.2
	c0,0,0,0,0.1,0h1.9c0.3,0,0.6,0.1,0.8,0.4c0.2,0.2,0.4,0.5,0.4,0.9c0,0.3-0.1,0.6-0.4,0.9c-0.2,0.2-0.5,0.4-0.8,0.4h-1.9
	c-0.1,0-0.2,0.1-0.2,0.2c0,0,0,0,0,0.1v2.8c0,0.3-0.1,0.7-0.4,0.9c-0.5,0.5-1.4,0.5-1.9,0c-0.3-0.2-0.4-0.6-0.4-0.9v-2.8
	c0-0.1-0.1-0.2-0.2-0.2c0,0,0,0-0.1,0h-2.1c-0.3,0-0.6-0.1-0.9-0.4c-0.2-0.2-0.4-0.5-0.4-0.9c0-0.3,0.1-0.6,0.4-0.9
	c0.2-0.2,0.5-0.4,0.9-0.4h2.1c0.1,0,0.2-0.1,0.2-0.2c0,0,0,0,0-0.1v-1.4c0-0.1-0.1-0.2-0.2-0.2c0,0,0,0-0.1,0h-2.3
	c-0.3,0-0.6-0.1-0.8-0.4c-0.2-0.2-0.4-0.5-0.4-0.8c0-0.3,0.1-0.6,0.4-0.8c0.2-0.2,0.5-0.4,0.8-0.4h0.4c0,0,0.1,0,0.1-0.1
	c0,0,0-0.1,0-0.1c-0.1-0.6-0.3-1.1-0.5-1.6c-0.1-0.2-0.1-0.4,0-0.6c0.1-0.2,0.2-0.3,0.4-0.4c0,0,0,0,0,0l0,0h-1.1
	c-0.3,0-0.6-0.1-0.8-0.4c-0.2-0.2-0.4-0.5-0.4-0.8c0-0.3,0.1-0.6,0.4-0.8c0.2-0.2,0.5-0.4,0.8-0.4h2.8c0.1,0,0.2-0.1,0.2-0.2
	c0,0,0,0,0-0.1v-1.2c0-0.1-0.1-0.2-0.2-0.2c0,0,0,0-0.1,0h-2c-0.3,0-0.6-0.1-0.8-0.3c-0.2-0.2-0.3-0.5-0.3-0.8
	c0-0.3,0.1-0.6,0.3-0.8c0.2-0.2,0.5-0.3,0.8-0.3h2c0.1,0,0.2-0.1,0.2-0.2c0,0,0,0,0-0.1v-0.6c0-0.3,0.1-0.7,0.4-0.9
	c0.2-0.3,0.6-0.4,0.9-0.4c0.4,0,0.7,0.1,0.9,0.4c0.3,0.2,0.4,0.6,0.4,0.9v0.6c0,0.1,0.1,0.2,0.2,0.2c0,0,0,0,0.1,0h1.7
	c0.3,0,0.6,0.1,0.8,0.3c0.2,0.2,0.4,0.5,0.4,0.8c0,0.3-0.1,0.6-0.4,0.8c-0.2,0.2-0.5,0.3-0.8,0.3L181.5,52z M188.4,60.2
	C188.4,60.2,188.4,60.2,188.4,60.2C188.3,60.2,188.3,60.2,188.4,60.2l-0.1,7.2c0,0,0,0.1,0.1,0.1c0,0,0.1,0,0.1,0
	c0.7-0.6,1.4-1.3,2-2.1c0.1-0.1,0.1-0.3,0-0.4C189.6,63.5,188.9,61.9,188.4,60.2z M193.3,59.2c0-0.1,0-0.1,0-0.2
	c0,0-0.1-0.1-0.1-0.1h-2.5c-0.1,0-0.1,0-0.1,0.1c0,0,0,0.1,0,0.2c0.4,1.1,0.9,2.2,1.5,3.3c0,0,0.1,0.1,0.1,0.1c0,0,0.1,0,0.1-0.1
	C192.6,61.5,193,60.4,193.3,59.2L193.3,59.2z M194.2,56.7c0.1,0,0.2,0,0.4,0c0.2,0,0.3,0,0.5,0.1l0.4,0.2c0.2,0.1,0.4,0.2,0.6,0.5
	c0.1,0.2,0.2,0.5,0.1,0.7c-0.4,2.4-1.2,4.6-2.2,6.7c-0.1,0.1-0.1,0.3,0,0.4c0.6,0.6,1.2,1.2,1.9,1.7c0.3,0.2,0.5,0.5,0.5,0.8
	c0,0.1,0,0.1,0,0.2c0,0.3-0.1,0.6-0.3,0.8c-0.2,0.3-0.6,0.5-1,0.6c-0.1,0-0.2,0-0.3,0c-0.3,0-0.6-0.1-0.8-0.3
	c-0.6-0.5-1.1-1-1.6-1.5c-0.1-0.1-0.2-0.1-0.3,0c-0.3,0.4-0.7,0.9-1.1,1.2c-0.3,0.3-0.7,0.4-1.1,0.4c-0.1,0-0.1,0-0.2,0
	c-0.5,0-0.9-0.3-1.3-0.6c0,0,0,0,0,0c0,0,0,0-0.1,0c0,0,0,0,0,0.1c0,0.3-0.1,0.7-0.4,0.9c-0.2,0.2-0.6,0.4-0.9,0.4h0
	c-0.3,0-0.7-0.1-0.9-0.4c-0.3-0.2-0.4-0.6-0.4-0.9v-18c0-0.5,0.2-1.1,0.6-1.4c0.4-0.4,0.9-0.6,1.4-0.6h5.9c0.5,0,1.1,0.2,1.4,0.6
	c0.4,0.4,0.6,0.9,0.6,1.4V53c0,0.5-0.1,1-0.3,1.5c-0.2,0.4-0.5,0.7-0.9,0.8c-0.9,0.3-1.8,0.4-2.7,0.4h0c-0.3,0-0.7-0.1-0.9-0.3
	c-0.3-0.2-0.5-0.5-0.6-0.9c0-0.1,0-0.2,0-0.3c0-0.2,0.1-0.3,0.2-0.5c0.1-0.2,0.4-0.4,0.7-0.4c0.5,0,1,0,1.6,0c0.1,0,0.3,0,0.4-0.1
	c0.1-0.1,0.1-0.2,0.1-0.3v-1.7c0-0.1-0.1-0.2-0.2-0.2c0,0,0,0-0.1,0h-4.3c-0.1,0-0.2,0.1-0.2,0.2c0,0,0,0,0,0.1v5.3
	c0,0.1,0.1,0.2,0.2,0.2c0,0,0,0,0.1,0h5.5C194.1,56.8,194.1,56.7,194.2,56.7L194.2,56.7z M201.4,60.9c-0.6-0.6-0.9-1.4-0.9-2.2
	c0-0.8,0.3-1.6,0.9-2.2c0.6-0.6,1.4-0.9,2.2-0.9c0.8,0,1.6,0.3,2.2,0.9c0.6,0.6,0.9,1.4,0.9,2.2c0,0.8-0.3,1.6-0.9,2.2
	c-0.6,0.6-1.4,0.9-2.2,0.9C202.8,61.8,202,61.5,201.4,60.9z M226.8,64.3c0-0.1-0.1-0.2-0.2-0.2c0,0,0,0-0.1,0h-9.8
	c-0.1,0-0.2,0.1-0.2,0.2c0,0,0,0,0,0.1v0.4c0,0.1,0.1,0.2,0.2,0.2c0,0,0,0,0.1,0h9.8c0.1,0,0.2-0.1,0.2-0.2c0,0,0,0,0-0.1V64.3z
	 M216.6,67.3c0,0.1,0.1,0.2,0.2,0.2c0,0,0,0,0.1,0h9.8c0.1,0,0.2-0.1,0.2-0.2c0,0,0,0,0-0.1v-0.5c0-0.1-0.1-0.2-0.2-0.2
	c0,0,0,0-0.1,0h-9.8c-0.1,0-0.2,0.1-0.2,0.2c0,0,0,0,0,0.1V67.3z M215.2,70c-0.4,0-0.7-0.1-1-0.4c-0.3-0.3-0.4-0.6-0.4-1v-4.4
	c0-0.5,0.2-1.1,0.6-1.4c0.4-0.4,0.9-0.6,1.4-0.6h11.8c0.5,0,1.1,0.2,1.4,0.6c0.4,0.4,0.6,0.9,0.6,1.4v4.3c0,0.4-0.1,0.7-0.4,1
	c-0.3,0.3-0.6,0.4-1,0.4h-0.8c-0.2,0-0.3-0.1-0.4-0.2c-0.1-0.1-0.2-0.3-0.2-0.4c0-0.1,0-0.1-0.1-0.1h-10.1c0,0-0.1,0-0.1,0.1
	c0,0.2-0.1,0.3-0.2,0.4c-0.1,0.1-0.3,0.2-0.5,0.2L215.2,70z M223.1,53.5c-0.1,0-0.2,0.1-0.2,0.2c0,0,0,0,0,0.1v0.4
	c0,0.1,0.1,0.2,0.2,0.2c0,0,0,0,0.1,0h3.4c0.1,0,0.2-0.1,0.2-0.2c0,0,0,0,0-0.1v-0.4c0-0.1-0.1-0.2-0.2-0.2c0,0,0,0-0.1,0H223.1z
	 M223.1,50.6c-0.1,0-0.2,0.1-0.2,0.2c0,0,0,0,0,0.1v0.4c0,0.1,0.1,0.2,0.2,0.2c0,0,0,0,0.1,0h3.4c0.1,0,0.2-0.1,0.2-0.2
	c0,0,0,0,0-0.1v-0.4c0-0.1-0.1-0.2-0.2-0.2c0,0,0,0-0.1,0H223.1z M229.6,54c0,0.5-0.2,1.1-0.6,1.4c-0.4,0.4-0.9,0.6-1.4,0.6h-4.4
	c-0.1,0-0.2,0.1-0.2,0.2c0,0,0,0,0,0.1v0.4c0,0.1,0.1,0.2,0.2,0.2c0,0,0,0,0.1,0h6.6c0.2,0,0.5,0.1,0.6,0.3c0.2,0.2,0.3,0.4,0.3,0.6
	c0,0.2-0.1,0.5-0.3,0.6c-0.2,0.2-0.4,0.3-0.6,0.3h-6.6c-0.1,0-0.2,0.1-0.2,0.2c0,0,0,0,0,0.1v0.4c0,0.1,0.1,0.2,0.2,0.2
	c0,0,0,0,0.1,0h8.2c0.3,0,0.5,0.1,0.7,0.3c0.2,0.2,0.3,0.4,0.3,0.7c0,0.3-0.1,0.5-0.3,0.7c-0.2,0.2-0.4,0.3-0.7,0.3h-19.5
	c-0.3,0-0.5-0.1-0.7-0.3c-0.2-0.2-0.3-0.4-0.3-0.7c0-0.3,0.1-0.5,0.3-0.7c0.2-0.2,0.4-0.3,0.7-0.3h8c0.1,0,0.2-0.1,0.2-0.2
	c0,0,0,0,0-0.1v-0.4c0-0.1-0.1-0.2-0.2-0.2c0,0,0,0-0.1,0h-6.4c-0.2,0-0.5-0.1-0.6-0.3c-0.2-0.2-0.2-0.4-0.2-0.6
	c0-0.2,0.1-0.4,0.2-0.6c0.2-0.2,0.4-0.3,0.6-0.3h6.4c0.1,0,0.2-0.1,0.2-0.2c0,0,0,0,0-0.1v-0.4c0-0.1-0.1-0.2-0.2-0.2c0,0,0,0-0.1,0
	h-6c-0.2,0-0.4-0.1-0.6-0.2c-0.2-0.2-0.2-0.4-0.2-0.6c0-0.2,0.1-0.4,0.2-0.6c0.2-0.2,0.4-0.2,0.6-0.2h6c0.1,0,0.2-0.1,0.2-0.2
	c0,0,0,0,0-0.1v-0.4c0-0.1-0.1-0.2-0.2-0.2c0,0,0,0-0.1,0h-8c-0.3,0-0.5-0.1-0.7-0.3c-0.2-0.2-0.3-0.4-0.3-0.7
	c0-0.3,0.1-0.5,0.3-0.7c0.2-0.2,0.4-0.3,0.7-0.3h8c0.1,0,0.2-0.1,0.2-0.2c0,0,0,0,0-0.1v-0.4c0-0.1-0.1-0.2-0.2-0.2c0,0,0,0-0.1,0
	h-5.7c-0.2,0-0.4-0.1-0.6-0.2c-0.2-0.2-0.2-0.4-0.2-0.6c0-0.2,0.1-0.4,0.2-0.6c0.2-0.2,0.4-0.3,0.6-0.2h5.8c0.1,0,0.1-0.1,0.1-0.2
	c0-0.4,0.1-0.7,0.4-0.9c0.3-0.3,0.6-0.4,1-0.4h0.1c0.4,0,0.7,0.1,1,0.4c0.3,0.2,0.4,0.6,0.4,0.9c0,0.1,0,0.2,0.1,0.2c0,0,0,0,0,0
	h4.5c0.5,0,1.1,0.2,1.4,0.6c0.4,0.4,0.6,0.9,0.6,1.4v0.3c0,0.1,0.1,0.2,0.2,0.2c0,0,0,0,0.1,0h1.5c0.3,0,0.5,0.1,0.7,0.3
	c0.2,0.2,0.3,0.4,0.3,0.7c0,0.3-0.1,0.5-0.3,0.7c-0.2,0.2-0.4,0.3-0.7,0.3h-1.5c-0.1,0-0.2,0.1-0.2,0.2c0,0,0,0,0,0.1L229.6,54z
	 M253,56c0.1,0,0.2-0.1,0.2-0.2c0,0,0,0,0-0.1v-1c0-0.1-0.1-0.2-0.2-0.2c0,0,0,0-0.1,0h-4.3c-0.1,0-0.2,0.1-0.2,0.2c0,0,0,0,0,0.1v1
	c0,0.1,0.1,0.2,0.2,0.2c0,0,0,0,0.1,0H253z M253,59.5c0.1,0,0.2-0.1,0.2-0.2c0,0,0,0,0-0.1v-1c0-0.1-0.1-0.2-0.2-0.2c0,0,0,0-0.1,0
	h-4.3c-0.1,0-0.2,0.1-0.2,0.2c0,0,0,0,0,0.1v1c0,0.1,0.1,0.2,0.2,0.2c0,0,0,0,0.1,0L253,59.5z M253,62.9c0.1,0,0.2-0.1,0.2-0.2
	c0,0,0,0,0-0.1v-1c0-0.1-0.1-0.2-0.2-0.2c0,0,0,0-0.1,0h-4.3c-0.1,0-0.2,0.1-0.2,0.2c0,0,0,0,0,0.1v1c0,0.1,0.1,0.2,0.2,0.2
	c0,0,0,0,0.1,0L253,62.9z M245.9,54.5c0-0.5,0.2-1.1,0.6-1.4c0.4-0.4,0.9-0.6,1.4-0.6h0.7c0.1,0,0.3-0.1,0.3-0.2
	c0.1-0.3,0.1-0.6,0.2-1.1c0-0.1,0-0.1-0.1-0.2c0,0-0.1-0.1-0.1-0.1h-2.6c-0.3,0-0.6-0.1-0.8-0.4c-0.2-0.2-0.4-0.5-0.4-0.9
	c0-0.3,0.1-0.6,0.4-0.9c0.2-0.2,0.5-0.4,0.8-0.4h9c0.3,0,0.6,0.1,0.9,0.4c0.2,0.2,0.4,0.5,0.4,0.9c0,0.3-0.1,0.6-0.4,0.9
	c-0.2,0.2-0.5,0.4-0.9,0.4h-2.8c-0.1,0-0.3,0.1-0.3,0.2c-0.2,0.5-0.3,0.8-0.4,1.1c0,0.1,0,0.1,0,0.2c0,0,0.1,0.1,0.1,0.1h2
	c0.5,0,1.1,0.2,1.4,0.6c0.4,0.4,0.6,0.9,0.6,1.4V63c0,0.5-0.2,1.1-0.6,1.4c-0.4,0.4-0.9,0.6-1.4,0.6h-6c-0.5,0-1.1-0.2-1.4-0.6
	c-0.4-0.4-0.6-0.9-0.6-1.4L245.9,54.5z M242.3,49.1c0.1-0.3,0.3-0.6,0.6-0.7c0.2-0.1,0.4-0.2,0.6-0.2c0.1,0,0.2,0,0.3,0
	c0.3,0.1,0.5,0.3,0.7,0.6c0,0.1,0.1,0.2,0.1,0.4c0,0.2,0,0.3-0.1,0.5c-0.2,0.4-0.4,0.7-0.5,1c-0.1,0.2-0.3,0.4-0.6,0.5
	c-0.1,0.1-0.3,0.1-0.4,0.1c-0.1,0-0.3,0-0.4-0.1c-0.2-0.1-0.4-0.2-0.5-0.5c-0.1-0.2-0.1-0.5,0-0.7L242.3,49.1z M237.7,49.7
	c0,0.1,0.1,0.3,0.1,0.4c0,0.2,0,0.3-0.1,0.4c-0.1,0.3-0.4,0.5-0.7,0.6c-0.1,0-0.2,0.1-0.3,0.1c-0.1,0-0.3,0-0.4-0.1
	c-0.3-0.1-0.4-0.3-0.5-0.6c-0.1-0.3-0.2-0.6-0.4-0.8c-0.1-0.1-0.1-0.3-0.1-0.4c0-0.1,0-0.2,0-0.3c0.1-0.2,0.3-0.4,0.5-0.5
	c0.1-0.1,0.3-0.1,0.4-0.1c0.1,0,0.3,0,0.4,0.1c0.3,0.1,0.5,0.3,0.6,0.5C237.5,49.2,237.6,49.5,237.7,49.7L237.7,49.7z M240.7,58.1
	c-0.2,0.2-0.5,0.4-0.9,0.4c-0.3,0-0.6-0.1-0.9-0.4c-0.2-0.2-0.4-0.5-0.4-0.9v-0.8c0,0,0-0.1-0.1-0.1c0,0-0.1,0-0.1,0
	c-0.5,0.6-1,1.2-1.6,1.7c-0.2,0.2-0.4,0.3-0.7,0.3c-0.1,0-0.1,0-0.2,0c-0.3,0-0.6-0.2-0.8-0.4c-0.2-0.2-0.3-0.4-0.3-0.7
	c0,0,0-0.1,0-0.1c0-0.3,0.2-0.6,0.4-0.7c0.9-0.7,1.7-1.5,2.3-2.3c0,0,0-0.1,0-0.1c0,0-0.1-0.1-0.1-0.1h-1.7c-0.3,0-0.6-0.1-0.8-0.3
	c-0.2-0.2-0.3-0.5-0.3-0.8c0-0.3,0.1-0.6,0.3-0.8c0.2-0.2,0.5-0.3,0.8-0.3h2.5c0.1,0,0.2-0.1,0.2-0.2c0,0,0,0,0-0.1V49
	c0-0.3,0.1-0.6,0.4-0.9c0.2-0.2,0.5-0.4,0.9-0.4c0.3,0,0.6,0.1,0.9,0.4c0.2,0.2,0.4,0.6,0.4,0.9v2.3c0,0.1,0.1,0.2,0.2,0.2
	c0,0,0,0,0.1,0h2.5c0.3,0,0.6,0.1,0.8,0.3c0.2,0.2,0.3,0.5,0.3,0.8c0,0.3-0.1,0.6-0.3,0.8c-0.2,0.2-0.5,0.3-0.8,0.3h-2.5
	c0,0,0,0,0,0c0,0,0,0.1,0,0.1c0.7,0.4,1.7,0.9,2.9,1.6c0.3,0.2,0.5,0.5,0.5,0.8c0,0.1,0,0.1,0,0.2c0,0.2-0.1,0.5-0.2,0.7
	c-0.2,0.3-0.5,0.4-0.8,0.4h-0.1c-0.3,0-0.5-0.1-0.8-0.3c-0.4-0.3-0.9-0.7-1.6-1.3c0,0-0.1,0-0.1,0c0,0-0.1,0-0.1,0.1v1
	C241,57.6,240.9,57.9,240.7,58.1z M243.5,65.3c0.4,0.3,0.7,0.7,0.7,1.2v0.1c0,0.5-0.2,0.9-0.5,1.2c0,0,0,0,0,0.1c0,0,0,0,0,0
	c1.1-0.5,2.2-1.2,3.1-1.9c0.3-0.2,0.7-0.4,1.1-0.4h0.2c0.3,0,0.6,0.1,0.9,0.3c0.3,0.2,0.5,0.5,0.5,0.9c0,0.3-0.1,0.6-0.4,0.8
	c-0.7,0.5-1.4,1.1-2.1,1.5c-0.4,0.2-0.8,0.3-1.2,0.3c-0.1,0-0.3,0-0.4,0c-0.6-0.1-1.1-0.4-1.6-0.8c-0.1-0.1-0.2-0.2-0.3-0.3
	c0,0,0,0,0,0c-0.1,0.1-0.3,0.2-0.4,0c0,0,0,0,0,0c-0.9-0.8-1.8-1.5-2.7-2.2c-0.1-0.1-0.2-0.1-0.3,0.1c-0.8,1.2-1.9,2.3-3.2,2.9
	c-0.2,0.1-0.4,0.2-0.6,0.2c-0.1,0-0.3,0-0.4-0.1c-0.3-0.1-0.6-0.3-0.8-0.6c-0.1-0.2-0.2-0.4-0.2-0.6c0-0.1,0-0.2,0-0.2
	c0.1-0.3,0.2-0.6,0.5-0.7c1.5-0.7,2.6-2,3-3.6c0-0.1,0-0.1,0-0.2c0,0-0.1-0.1-0.2-0.1H236c-0.3,0-0.6-0.1-0.9-0.4
	c-0.2-0.2-0.4-0.5-0.4-0.9c0-0.3,0.1-0.6,0.4-0.9c0.2-0.2,0.5-0.4,0.9-0.4h2.4c0.1,0,0.2,0,0.2-0.1c0,0,0,0,0,0v-0.2
	c0-0.3,0.1-0.7,0.4-0.9c0.2-0.2,0.6-0.4,0.9-0.4c0.3,0,0.7,0.1,0.9,0.4c0.2,0.2,0.4,0.6,0.4,0.9v0.2c0,0.1,0.1,0.2,0.2,0.2h2.6
	c0.3,0,0.6,0.1,0.9,0.4c0.2,0.2,0.4,0.5,0.4,0.9c0,0.3-0.1,0.6-0.4,0.9c-0.2,0.2-0.5,0.4-0.9,0.4h-2.6c-0.1,0-0.3,0.1-0.3,0.2
	c0,0,0,0,0,0c0,0.1,0,0.3,0.2,0.4C242,64.2,242.8,64.7,243.5,65.3L243.5,65.3z M252.1,67.4c-0.2-0.2-0.4-0.4-0.4-0.7
	c0-0.3,0.1-0.6,0.4-0.7c0.3-0.2,0.6-0.3,1-0.3c0.4,0,0.7,0.1,1,0.3c0.8,0.6,1.5,1.1,2,1.5c0.2,0.2,0.4,0.5,0.4,0.8
	c0,0.4-0.2,0.7-0.5,0.9c-0.3,0.2-0.6,0.3-0.9,0.3H255c-0.4,0-0.7-0.2-1-0.4C253.5,68.5,252.9,67.9,252.1,67.4L252.1,67.4z
	 M267.7,68.3c0.1,0.2,0.2,0.4,0.2,0.6c0,0.1,0,0.2,0,0.2c-0.1,0.3-0.2,0.5-0.5,0.6c-0.2,0.1-0.5,0.2-0.7,0.2c-0.1,0-0.2,0-0.4,0
	c-0.4-0.1-0.7-0.2-0.9-0.5c-2.6-2.9-3.9-6.7-3.9-10.6c-0.1-3.9,1.3-7.7,3.9-10.6c0.2-0.3,0.6-0.5,0.9-0.5c0.1,0,0.2,0,0.4,0
	c0.2,0,0.5,0.1,0.7,0.2c0.3,0.1,0.5,0.3,0.5,0.6c0,0.1,0,0.1,0,0.2c0,0.2-0.1,0.4-0.2,0.6c-2.3,2.7-3.5,6.1-3.5,9.6
	C264.2,62.2,265.4,65.6,267.7,68.3L267.7,68.3z M287.1,64.4c0.1,0,0.2-0.1,0.2-0.2c0,0,0,0,0-0.1v-0.7c0-0.1-0.1-0.2-0.2-0.2
	c0,0,0,0-0.1,0h-3.9c-0.1,0-0.2,0.1-0.2,0.2c0,0,0,0,0,0.1v0.7c0,0.1,0.1,0.2,0.2,0.2c0,0,0,0,0.1,0H287.1z M283.2,60
	c-0.1,0-0.2,0.1-0.2,0.2c0,0,0,0,0,0.1v0.6c0,0.1,0.1,0.2,0.2,0.2c0,0,0,0,0.1,0h3.9c0.1,0,0.2-0.1,0.2-0.2c0,0,0,0,0-0.1v-0.6
	c0-0.1-0.1-0.2-0.2-0.2c0,0,0,0-0.1,0L283.2,60z M276.3,55c0,0.1,0.1,0.2,0.2,0.2c0,0,0,0,0.1,0h3.3c0.1,0,0.2-0.1,0.2-0.2
	c0,0,0,0,0-0.1v-0.7c0-0.1-0.1-0.2-0.2-0.2c0,0,0,0-0.1,0h-3.3c-0.1,0-0.2,0.1-0.2,0.2c0,0,0,0,0,0.1V55z M286.8,54.3
	c0-0.1-0.1-0.2-0.2-0.2c0,0,0,0-0.1,0h-3.4c-0.1,0-0.2,0.1-0.2,0.2c0,0,0,0,0,0.1V55c0,0.1,0.1,0.2,0.2,0.2c0,0,0,0,0.1,0h3.4
	c0.1,0,0.2-0.1,0.2-0.2c0,0,0,0,0-0.1L286.8,54.3z M291.6,61.1c0.3,0,0.6,0.1,0.8,0.3c0.2,0.2,0.3,0.5,0.3,0.8
	c0,0.3-0.1,0.6-0.3,0.8c-0.2,0.2-0.5,0.3-0.8,0.3h-1.1c-0.1,0-0.2,0.1-0.2,0.2c0,0,0,0,0,0.1V66c0,0.4-0.2,0.8-0.4,1
	c-0.3,0.3-0.6,0.4-1,0.4h-0.6c-0.2,0-0.5-0.1-0.6-0.3c-0.2-0.2-0.3-0.4-0.3-0.6c0-0.1,0-0.1-0.1-0.1h-4c-0.1,0-0.2,0.1-0.2,0.2
	c0,0,0,0,0,0.1v0.5c0,0.5-0.1,1.1-0.3,1.6c-0.2,0.4-0.6,0.7-1,0.8c-1,0.3-2,0.4-3,0.4h0c-0.3,0-0.7-0.1-0.9-0.3
	c-0.3-0.2-0.5-0.5-0.7-0.8c0-0.1-0.1-0.2-0.1-0.3c0-0.1,0.1-0.3,0.1-0.4c0.1-0.2,0.4-0.4,0.6-0.4c0.5,0,1.1,0,1.7,0
	c0.2,0,0.3-0.1,0.5-0.2c0.1-0.1,0.1-0.3,0.1-0.5v-0.5c0-0.1-0.1-0.2-0.2-0.2c0,0,0,0-0.1,0h-6c-0.3,0-0.5-0.1-0.7-0.3
	c-0.2-0.2-0.3-0.5-0.3-0.7c0-0.3,0.1-0.5,0.3-0.7c0.2-0.2,0.5-0.3,0.7-0.3h6c0.1,0,0.2-0.1,0.2-0.2c0,0,0,0,0-0.1v-0.7
	c0-0.1-0.1-0.2-0.2-0.2c0,0,0,0-0.1,0h-8.2c-0.3,0-0.6-0.1-0.8-0.3c-0.2-0.2-0.3-0.5-0.3-0.8c0-0.3,0.1-0.6,0.3-0.8
	c0.2-0.2,0.5-0.3,0.8-0.3h8.2c0.1,0,0.2-0.1,0.2-0.2c0,0,0,0,0-0.1v-0.6c0-0.1-0.1-0.2-0.2-0.2c0,0,0,0-0.1,0h-5.9
	c-0.3,0-0.5-0.1-0.7-0.3c-0.2-0.2-0.3-0.4-0.3-0.7c0-0.3,0.1-0.5,0.3-0.7c0.2-0.2,0.4-0.3,0.7-0.3h5.9c0.1,0,0.2-0.1,0.2-0.2
	c0,0,0,0,0-0.1v-0.6c0-0.1-0.1-0.2-0.2-0.2c0,0,0,0-0.1,0h-4.2c-0.5,0-1.1-0.2-1.4-0.6c-0.4-0.4-0.6-0.9-0.6-1.4v-0.7
	c0-0.5,0.2-1.1,0.6-1.4c0.4-0.4,0.9-0.6,1.4-0.6h4.2c0.1,0,0.2-0.1,0.2-0.2c0,0,0,0,0-0.1v-0.5c0-0.1-0.1-0.2-0.2-0.2c0,0,0,0-0.1,0
	h-7.6c-0.3,0-0.6-0.1-0.8-0.3c-0.2-0.2-0.3-0.5-0.3-0.8c0-0.3,0.1-0.6,0.3-0.8c0.2-0.2,0.5-0.3,0.8-0.3h7.7c0.1,0,0.1-0.1,0.1-0.2
	c0-0.4,0.1-0.7,0.4-1c0.3-0.3,0.6-0.4,1-0.4h0.1c0.4,0,0.7,0.1,1,0.4c0.3,0.3,0.4,0.6,0.4,1c0,0.1,0,0.2,0.1,0.2c0,0,0,0,0,0h7.9
	c0.3,0,0.6,0.1,0.8,0.3c0.2,0.2,0.3,0.5,0.3,0.8c0,0.3-0.1,0.6-0.3,0.8c-0.2,0.2-0.5,0.3-0.8,0.3h-7.8c-0.1,0-0.2,0.1-0.2,0.2
	c0,0,0,0,0,0.1v0.5c0,0.1,0.1,0.2,0.2,0.2c0,0,0,0,0.1,0h4.5c0.5,0,1.1,0.2,1.4,0.6c0.4,0.4,0.6,0.9,0.6,1.4V55
	c0,0.5-0.2,1.1-0.6,1.4c-0.4,0.4-0.9,0.6-1.4,0.6h-4.6c-0.1,0-0.2,0.1-0.2,0.2c0,0,0,0,0,0.1v0.6c0,0.1,0.1,0.2,0.2,0.2
	c0,0,0,0,0.1,0h5c0.5,0,1.1,0.2,1.4,0.6c0.4,0.4,0.6,0.9,0.6,1.4v0.7c0,0.1,0.1,0.2,0.2,0.2c0,0,0,0,0.1,0L291.6,61.1z M299.5,53
	c-0.1,0.1-0.1,0.3-0.1,0.4v6.8c0,0,0,0.1,0,0.1c0,0,0.1,0,0.1,0c1.5-2,2.5-5,3.1-9c0-0.1,0-0.2-0.1-0.2c-0.4,0-0.7-0.1-1-0.4
	c-0.3-0.3-0.4-0.6-0.4-1v-0.4c0,0,0,0,0,0c0,0,0,0,0,0C300.6,50.4,300.1,51.6,299.5,53L299.5,53z M306.2,56.4c0-0.1,0-0.1,0-0.2
	c0,0-0.1-0.1-0.2-0.1h-1.6c-0.1,0-0.3,0.1-0.3,0.2c-0.2,0.6-0.4,1.2-0.6,1.6c-0.1,0.1,0,0.3,0.1,0.4c0.7,0.5,1.2,0.9,1.6,1.3
	c0,0,0.1,0.1,0.1,0c0.1,0,0.1-0.1,0.1-0.1C305.8,58.5,306.1,57.4,306.2,56.4L306.2,56.4z M311.9,63c0,0.3-0.1,0.6-0.4,0.9
	c-0.2,0.2-0.6,0.4-0.9,0.4c-0.3,0-0.7-0.1-0.9-0.4c-0.2-0.2-0.4-0.5-0.4-0.9V51.3c0-0.1-0.1-0.2-0.2-0.2c0,0,0,0-0.1,0h-3.6
	c-0.1,0-0.3,0.1-0.3,0.2c-0.2,1.1-0.4,1.8-0.4,2.1c0,0.1,0,0.1,0,0.2c0,0,0.1,0.1,0.1,0.1h1.9c0,0,0.1,0,0.1,0c0.1,0,0.2,0,0.4,0
	c0.2,0,0.3,0,0.5,0.1l0.4,0.1c0.2,0.1,0.4,0.2,0.6,0.4c0.1,0.2,0.2,0.4,0.2,0.7c-0.3,2.9-1.1,5.7-2.1,8.4c-0.8,2.1-2.1,4.1-3.7,5.7
	c-0.2,0.2-0.5,0.3-0.8,0.3c-0.1,0-0.1,0-0.2,0c-0.4-0.1-0.7-0.3-0.9-0.5c-0.2-0.2-0.3-0.6-0.3-0.9c0-0.4,0.2-0.8,0.4-1.1
	c1.3-1.2,2.3-2.6,3-4.2c0.1-0.1,0-0.3-0.1-0.4c-0.5-0.6-1.1-1.1-1.7-1.6c-0.1-0.1-0.2-0.1-0.3,0c0,0.1-0.1,0.1-0.1,0.2
	c-0.2,0.4-0.7,0.7-1.2,0.7c-0.5,0-1-0.2-1.3-0.6c0-0.1-0.1-0.1-0.1-0.2c0,0-0.1,0-0.1,0c0,0-0.1,0.1-0.1,0.1v7.8
	c0,0.3-0.1,0.7-0.4,0.9c-0.5,0.5-1.3,0.5-1.8,0c0,0,0,0,0,0c-0.3-0.2-0.4-0.6-0.4-0.9V58.1c0,0,0-0.1,0-0.1c0,0,0,0-0.1,0
	c0,0,0,0,0,0l-0.3,0.5c-0.2,0.2-0.4,0.4-0.7,0.4c-0.1,0-0.1,0-0.2,0c-0.4,0-0.7-0.3-0.8-0.6c-0.2-0.4-0.2-0.8-0.2-1.1
	c0-0.1,0-0.2,0-0.3c0-0.5,0.2-1,0.5-1.4c1.4-2,2.5-4.2,3.3-6.6c0.1-0.4,0.4-0.7,0.7-0.8c0.2-0.1,0.4-0.2,0.6-0.2
	c0.1,0,0.3,0,0.4,0.1l1.1,0.3c0.1,0,0.2,0.1,0.1,0.3c0,0,0,0,0,0c0,0,0,0,0,0h6.8c0.4,0,0.8,0.2,1.1,0.4c0.3,0.3,0.5,0.7,0.4,1.1
	c0,0.1,0,0.2,0.1,0.2c0,0,0,0,0,0h0.1c0.5,0,1.1,0.2,1.4,0.6c0.4,0.4,0.6,0.9,0.6,1.4L311.9,63z M313.5,49.3c0-0.3,0.1-0.7,0.4-0.9
	c0.2-0.3,0.6-0.4,0.9-0.4c0.3,0,0.7,0.1,0.9,0.4c0.3,0.2,0.4,0.6,0.4,0.9v17.4c0,0.6-0.1,1.2-0.2,1.8c-0.2,0.4-0.5,0.8-0.9,1
	c-0.8,0.3-1.7,0.5-2.6,0.5h-0.1c-0.4,0-0.8-0.1-1.1-0.4c-0.3-0.3-0.6-0.6-0.7-1c0-0.1,0-0.2,0-0.3c0-0.2,0.1-0.4,0.2-0.6
	c0.2-0.3,0.5-0.4,0.8-0.4h0.8c0.3,0,0.5,0,0.7,0c0.2,0,0.3,0,0.4-0.1c0.1-0.1,0.1-0.3,0.1-0.4L313.5,49.3z M319.5,49.1
	c-0.1-0.2-0.2-0.4-0.2-0.6c0-0.1,0-0.1,0-0.2c0.1-0.3,0.2-0.5,0.5-0.6c0.2-0.1,0.5-0.2,0.7-0.2c0.1,0,0.2,0,0.4,0
	c0.4,0.1,0.7,0.2,0.9,0.5c2.6,2.9,3.9,6.7,3.9,10.6c0.1,3.9-1.3,7.7-3.9,10.6c-0.2,0.3-0.6,0.5-0.9,0.5c-0.1,0-0.2,0-0.4,0
	c-0.2,0-0.5-0.1-0.7-0.2c-0.3-0.1-0.5-0.3-0.5-0.6c0-0.1,0-0.2,0-0.2c0-0.2,0.1-0.4,0.2-0.6c2.3-2.7,3.5-6.1,3.5-9.6
	C323,55.2,321.8,51.8,319.5,49.1L319.5,49.1z"/>
<path id="パス_72346" class="st0" d="M43,0c1.7,0,3,1.3,3,3s-1.3,3-3,3s-3-1.3-3-3S41.3,0,43,0z"/>
<path id="パス_72347" class="st0" d="M67,0c1.7,0,3,1.3,3,3s-1.3,3-3,3s-3-1.3-3-3S65.3,0,67,0z"/>
<path id="パス_72348" class="st0" d="M91,0c1.7,0,3,1.3,3,3s-1.3,3-3,3s-3-1.3-3-3S89.3,0,91,0z"/>
<path id="パス_72349" class="st0" d="M115,0c1.7,0,3,1.3,3,3s-1.3,3-3,3s-3-1.3-3-3S113.3,0,115,0z"/>
</svg>
