<svg xmlns="http://www.w3.org/2000/svg" width="588.813" height="38" viewBox="0 0 588.813 38">
  <g id="グループ_16636" data-name="グループ 16636" transform="translate(-358 -6361)">
    <path id="パス_72344" data-name="パス 72344" d="M0,0H98V11H0Z" transform="translate(358 6388)" fill="#ffea00"/>
    <path id="パス_72345" data-name="パス 72345" d="M8.367-15.4a.176.176,0,0,0-.035-.164.189.189,0,0,0-.152-.07H5.039a.131.131,0,0,0-.129.07.178.178,0,0,0-.012.141,9.522,9.522,0,0,1,.492,1.336,2.164,2.164,0,0,1,.023.3,1.027,1.027,0,0,1-.164.563,1.174,1.174,0,0,1-.7.539q-.023,0-.012.012l.012.012H8.953q.023,0,.023-.012t-.023-.012a1.2,1.2,0,0,1-.82-.609,1.275,1.275,0,0,1-.164-.609,1.4,1.4,0,0,1,.07-.445A8.881,8.881,0,0,0,8.367-15.4ZM8.2-6.047a.083.083,0,0,0-.094.094.158.158,0,0,0,.07.141q.68.492,2.3,1.758a1.159,1.159,0,0,1,.492.867.689.689,0,0,1,.023.164,1.184,1.184,0,0,1-.3.8,1.02,1.02,0,0,1-.82.4L9.844-1.8a1.105,1.105,0,0,1-.855-.375q-.34-.375-.715-.727a.091.091,0,0,0-.105-.023.091.091,0,0,0-.059.094V.656a1.337,1.337,0,0,1-.4.984,1.323,1.323,0,0,1-.973.4,1.362,1.362,0,0,1-.984-.4,1.318,1.318,0,0,1-.41-.984V-2.555A.055.055,0,0,0,5.3-2.613a.07.07,0,0,0-.07.012,20.023,20.023,0,0,1-1.9,2.273,1.177,1.177,0,0,1-.82.352A.442.442,0,0,1,2.367,0a1.342,1.342,0,0,1-.914-.469,1.193,1.193,0,0,1-.328-.844,1.2,1.2,0,0,1,.422-.937A15.739,15.739,0,0,0,4.641-5.859a.093.093,0,0,0,.012-.117.113.113,0,0,0-.105-.07H2.32A1.151,1.151,0,0,1,1.477-6.4a1.151,1.151,0,0,1-.352-.844,1.151,1.151,0,0,1,.352-.844,1.151,1.151,0,0,1,.844-.352H5.109a.207.207,0,0,0,.234-.234v-1.383a.207.207,0,0,0-.234-.234H2.227a1.113,1.113,0,0,1-.832-.352,1.157,1.157,0,0,1-.34-.832,1.157,1.157,0,0,1,.34-.832,1.113,1.113,0,0,1,.832-.352h.82a.22.22,0,0,0,.141-.059.14.14,0,0,0,.047-.152q-.094-.539-.258-1.148a1.541,1.541,0,0,1-.047-.375A1.275,1.275,0,0,1,3.094-15a1.134,1.134,0,0,1,.773-.586v-.023a.021.021,0,0,0-.023-.023H2.484a1.132,1.132,0,0,1-.832-.34,1.118,1.118,0,0,1-.34-.82,1.118,1.118,0,0,1,.34-.82,1.132,1.132,0,0,1,.832-.34H5.133q.211,0,.211-.234v-.562a1.318,1.318,0,0,1,.41-.984,1.362,1.362,0,0,1,.984-.4,1.323,1.323,0,0,1,.973.4,1.337,1.337,0,0,1,.4.984v.563a.207.207,0,0,0,.234.234h2.578a1.132,1.132,0,0,1,.832.34,1.118,1.118,0,0,1,.34.82,1.118,1.118,0,0,1-.34.82,1.132,1.132,0,0,1-.832.34H9.773q-.023,0-.023.012t.023.035a.917.917,0,0,1,.7.516.942.942,0,0,1,.141.492.983.983,0,0,1-.094.4q-.352.867-.562,1.313a.2.2,0,0,0,.012.152.138.138,0,0,0,.129.059h1.008a1.113,1.113,0,0,1,.832.352,1.157,1.157,0,0,1,.34.832,1.157,1.157,0,0,1-.34.832,1.113,1.113,0,0,1-.832.352H8.344a.207.207,0,0,0-.234.234v1.383a.207.207,0,0,0,.234.234h2.531a1.151,1.151,0,0,1,.844.352,1.151,1.151,0,0,1,.352.844,1.151,1.151,0,0,1-.352.844,1.151,1.151,0,0,1-.844.352Zm13.664-6.375a1.263,1.263,0,0,1,.926.387,1.263,1.263,0,0,1,.387.926,1.263,1.263,0,0,1-.387.926,1.263,1.263,0,0,1-.926.387h-.727a.207.207,0,0,0-.234.234V.563a1.329,1.329,0,0,1-.41.973,1.358,1.358,0,0,1-1.945,0,1.329,1.329,0,0,1-.41-.973V-9.562a.207.207,0,0,0-.234-.234H15.938a.207.207,0,0,0-.234.234q-.094,6.891-2.789,10.617a1.044,1.044,0,0,1-.844.4h-.023a1.361,1.361,0,0,1-.961-.4,1.428,1.428,0,0,1-.469-.937,1.086,1.086,0,0,1-.023-.211,1.418,1.418,0,0,1,.258-.82,10.488,10.488,0,0,0,1.734-4.16,27.9,27.9,0,0,0,.422-5.051V-16.9a1.114,1.114,0,0,1,.469-.937,1.187,1.187,0,0,1,.7-.234,1.317,1.317,0,0,1,.34.047.628.628,0,0,0,.34,0,33.29,33.29,0,0,0,4.523-1.406,2.319,2.319,0,0,1,.961-.211,3.021,3.021,0,0,1,.375.023,2.3,2.3,0,0,1,1.2.563.934.934,0,0,1,.328.7v.211a.837.837,0,0,1-.609.7,43.424,43.424,0,0,1-5.7,1.594.261.261,0,0,0-.234.281v2.906a.207.207,0,0,0,.234.234Zm12.07,7.734a1.553,1.553,0,0,1,.375,1.031,1.594,1.594,0,0,1-.422,1.1,1.025,1.025,0,0,1-.773.352H33a1.184,1.184,0,0,1-.844-.492q-.633-.937-1.477-2.086a.127.127,0,0,0-.117-.035.113.113,0,0,0-.094.082A12.388,12.388,0,0,1,27.656.82a1.2,1.2,0,0,1-.844.352h-.141A1.478,1.478,0,0,1,25.711.68a1.244,1.244,0,0,1-.375-.914,1.31,1.31,0,0,1,.4-.961q2.227-2.414,2.648-7.1a.225.225,0,0,0-.07-.164.225.225,0,0,0-.164-.07H26.3a1.244,1.244,0,0,1-.914-.375,1.244,1.244,0,0,1-.375-.914,1.244,1.244,0,0,1,.375-.914,1.244,1.244,0,0,1,.914-.375h1.945a.207.207,0,0,0,.234-.234V-13.9a.207.207,0,0,0-.234-.234H26.625a1.217,1.217,0,0,1-.891-.375,1.217,1.217,0,0,1-.375-.891,1.217,1.217,0,0,1,.375-.891,1.217,1.217,0,0,1,.891-.375h1.617a.207.207,0,0,0,.234-.234V-18.75a1.271,1.271,0,0,1,.4-.949,1.316,1.316,0,0,1,.949-.387,1.277,1.277,0,0,1,.938.387,1.291,1.291,0,0,1,.387.949V-16.9a.207.207,0,0,0,.234.234h1.5a1.206,1.206,0,0,1,.9.375,1.236,1.236,0,0,1,.363.891,1.236,1.236,0,0,1-.363.891,1.206,1.206,0,0,1-.9.375h-1.5a.207.207,0,0,0-.234.234v2.555a.207.207,0,0,0,.234.234h1.852a1.283,1.283,0,0,1,.926.375,1.225,1.225,0,0,1,.387.914,1.225,1.225,0,0,1-.387.914,1.283,1.283,0,0,1-.926.375H31.289a.232.232,0,0,0-.258.234v.117a.471.471,0,0,0,.141.4Q32.25-6.656,33.938-4.687Zm4.2-4.969a.207.207,0,0,0-.234.234v.961a.207.207,0,0,0,.234.234h4.781a.207.207,0,0,0,.234-.234v-.961a.207.207,0,0,0-.234-.234Zm0-3.633a.207.207,0,0,0-.234.234v.938a.207.207,0,0,0,.234.234h4.781a.207.207,0,0,0,.234-.234v-.937a.207.207,0,0,0-.234-.234Zm0-3.68a.207.207,0,0,0-.234.234v.938a.207.207,0,0,0,.234.234h4.781a.207.207,0,0,0,.234-.234v-.937a.207.207,0,0,0-.234-.234Zm5.625,16.1h.82q.234,0,.34-.293a4.962,4.962,0,0,0,.129-1.254.733.733,0,0,1,.4-.633.862.862,0,0,1,.422-.117.883.883,0,0,1,.352.07,2.018,2.018,0,0,1,.867.7,1.382,1.382,0,0,1,.258.8.871.871,0,0,1-.023.211A4.758,4.758,0,0,1,46.535.973a2.084,2.084,0,0,1-1.676.645H43.266A2.475,2.475,0,0,1,41.215.949a4.393,4.393,0,0,1-.5-2.5V-5.484a.207.207,0,0,0-.234-.234H39.7a.249.249,0,0,0-.258.234,11.262,11.262,0,0,1-1.277,4.242,7.191,7.191,0,0,1-3.2,2.813,1.248,1.248,0,0,1-.562.141,1.4,1.4,0,0,1-.445-.07,1.869,1.869,0,0,1-.867-.656A1.041,1.041,0,0,1,32.906.4,1.578,1.578,0,0,1,32.93.141a.987.987,0,0,1,.539-.656,5.371,5.371,0,0,0,2.367-2.027,8,8,0,0,0,.938-3.012q.023-.164-.141-.164a1.349,1.349,0,0,1-.973-.4,1.291,1.291,0,0,1-.41-.961V-17.437a1.953,1.953,0,0,1,.6-1.453,1.984,1.984,0,0,1,1.441-.586h6.586a1.984,1.984,0,0,1,1.441.586,1.953,1.953,0,0,1,.6,1.453v9.68a1.964,1.964,0,0,1-.6,1.441,1.964,1.964,0,0,1-1.441.6h-.3a.207.207,0,0,0-.234.234v3.891a1.537,1.537,0,0,0,.07.609Q43.477-.867,43.758-.867Zm11.133-15.4a.207.207,0,0,0,.234.234h2.906a1.908,1.908,0,0,1,1.43.609,1.88,1.88,0,0,1,.563,1.383q0,2.578-.211,7.9-.117,2.672-.328,4.266A5.764,5.764,0,0,1,58.922.258a2.9,2.9,0,0,1-.809.844,2.968,2.968,0,0,1-1.043.375,7.537,7.537,0,0,1-1.406.141h-.023A1.564,1.564,0,0,1,54.563,1.2,2.4,2.4,0,0,1,53.906.117a2.164,2.164,0,0,1-.023-.3A1.077,1.077,0,0,1,54.07-.8a.875.875,0,0,1,.75-.4h.023q.445.023.8.023a.927.927,0,0,0,.8-.445,7.729,7.729,0,0,0,.516-2.977q.164-2.508.281-8.414a.225.225,0,0,0-.07-.164.225.225,0,0,0-.164-.07H55.055a.232.232,0,0,0-.258.234q-.117,3.047-.422,5.379a27.711,27.711,0,0,1-1.008,4.605A14.793,14.793,0,0,1,51.539.914a1.026,1.026,0,0,1-.867.445,1.274,1.274,0,0,1-.961-.422A1.638,1.638,0,0,1,49.2-.094V-.3a1.681,1.681,0,0,1,.258-.891,13.9,13.9,0,0,0,1.9-4.922,44.308,44.308,0,0,0,.7-6.891.225.225,0,0,0-.07-.164.225.225,0,0,0-.164-.07H50.672a1.356,1.356,0,0,1-1-.41,1.343,1.343,0,0,1-.41-.984,1.343,1.343,0,0,1,.41-.984,1.356,1.356,0,0,1,1-.41h1.172a.207.207,0,0,0,.234-.234q.023-.961.023-2.32a1.356,1.356,0,0,1,.41-1,1.356,1.356,0,0,1,1-.41,1.356,1.356,0,0,1,1,.41,1.356,1.356,0,0,1,.41,1Q54.914-17.344,54.891-16.266Zm9.258,13.2a.207.207,0,0,0,.234.234h2.625a.207.207,0,0,0,.234-.234V-14.625a.207.207,0,0,0-.234-.234H64.383a.207.207,0,0,0-.234.234ZM61.383-15.562A1.964,1.964,0,0,1,61.98-17a1.964,1.964,0,0,1,1.441-.6h4.641A1.964,1.964,0,0,1,69.5-17a1.964,1.964,0,0,1,.6,1.441V-.023A1.364,1.364,0,0,1,69.68,1a1.4,1.4,0,0,1-1.008.41h-.094a1.3,1.3,0,0,1-.937-.387,1.271,1.271,0,0,1-.4-.949A.124.124,0,0,0,67.1-.07H64.313a.145.145,0,0,0-.164.164V.211a1.349,1.349,0,0,1-.4.973,1.3,1.3,0,0,1-.973.41,1.343,1.343,0,0,1-.984-.41,1.329,1.329,0,0,1-.41-.973ZM90.82-17.18a.207.207,0,0,0-.234-.234H86.977a.207.207,0,0,0-.234.234v.914a.207.207,0,0,0,.234.234h3.609a.207.207,0,0,0,.234-.234Zm-4.172,4.289a.163.163,0,0,0,.047.164.225.225,0,0,0,.164.07h3.727a.207.207,0,0,0,.234-.234v-.961a.207.207,0,0,0-.234-.234H86.977a.232.232,0,0,0-.258.234Q86.7-13.242,86.648-12.891Zm4.172,2.438a.207.207,0,0,0-.234-.234H86.461a.294.294,0,0,0-.3.234,8.32,8.32,0,0,1-1.57,2.977,1.142,1.142,0,0,1-.867.375h-.07a1.549,1.549,0,0,1-.984-.422,1.2,1.2,0,0,1-.375-.914,1.3,1.3,0,0,1,.3-.844,5.832,5.832,0,0,0,1.242-2.5,14.012,14.012,0,0,0,.3-3.035V-17.6a1.964,1.964,0,0,1,.6-1.441,1.964,1.964,0,0,1,1.441-.6h5.438a1.964,1.964,0,0,1,1.441.6,1.964,1.964,0,0,1,.6,1.441v8.039A3.44,3.44,0,0,1,93.41-8.1a1.693,1.693,0,0,1-.855.785,6.159,6.159,0,0,1-2.227.422h-.07a1.53,1.53,0,0,1-.914-.3,2.018,2.018,0,0,1-.7-.867.827.827,0,0,1-.07-.328.862.862,0,0,1,.117-.422.691.691,0,0,1,.633-.352q.727,0,1.055-.023a.551.551,0,0,0,.352-.082.413.413,0,0,0,.094-.316ZM79.758-16.8a.207.207,0,0,0-.234-.234H77.016a.207.207,0,0,0-.234.234v1.266a.207.207,0,0,0,.234.234h2.508a.207.207,0,0,0,.234-.234Zm-2.977,5.086a.207.207,0,0,0,.234.234h2.508a.207.207,0,0,0,.234-.234v-1.242a.207.207,0,0,0-.234-.234H77.016a.207.207,0,0,0-.234.234ZM76.9-9.281a.1.1,0,0,0-.117.117,1,1,0,0,1-.316.75,1.031,1.031,0,0,1-.738.3h-.258a1.237,1.237,0,0,1-.9-.387,1.237,1.237,0,0,1-.387-.9v-7.828a1.964,1.964,0,0,1,.6-1.441,1.964,1.964,0,0,1,1.441-.6H80.3a1.964,1.964,0,0,1,1.441.6,1.964,1.964,0,0,1,.6,1.441v5.906a1.964,1.964,0,0,1-.6,1.441,1.964,1.964,0,0,1-1.441.6ZM78.516-4.2a.207.207,0,0,0-.234.234v2.719a.207.207,0,0,0,.234.234h1.57a.207.207,0,0,0,.234-.234V-3.961a.207.207,0,0,0-.234-.234Zm6.516.234A.207.207,0,0,0,84.8-4.2H83.18a.207.207,0,0,0-.234.234v2.719a.207.207,0,0,0,.234.234H84.8a.207.207,0,0,0,.234-.234Zm4.688,0a.207.207,0,0,0-.234-.234H87.867a.207.207,0,0,0-.234.234v2.719a.207.207,0,0,0,.234.234h1.617a.207.207,0,0,0,.234-.234Zm2.813,2.719a.207.207,0,0,0,.234.234h1.172a1.159,1.159,0,0,1,.867.363,1.2,1.2,0,0,1,.352.867,1.164,1.164,0,0,1-.352.855,1.178,1.178,0,0,1-.867.352H74.063a1.178,1.178,0,0,1-.867-.352,1.164,1.164,0,0,1-.352-.855A1.2,1.2,0,0,1,73.2-.645a1.159,1.159,0,0,1,.867-.363h1.359a.207.207,0,0,0,.234-.234V-4.359a1.964,1.964,0,0,1,.6-1.441A1.964,1.964,0,0,1,77.7-6.4h12.8a1.964,1.964,0,0,1,1.441.6,1.964,1.964,0,0,1,.6,1.441Zm9.773-3.07q1.5,0,2.883-4.711a36.393,36.393,0,0,0,1.242-5.531.126.126,0,0,0-.035-.141.236.236,0,0,0-.152-.047,7.685,7.685,0,0,0-2.5,1.09,7.236,7.236,0,0,0-1.84,1.723,7.936,7.936,0,0,0-1.078,2,5.975,5.975,0,0,0-.375,2.027A5.278,5.278,0,0,0,101-5.262,1.558,1.558,0,0,0,102.3-4.312ZM110.438.656a2.04,2.04,0,0,1-.539.07,2.227,2.227,0,0,1-.867-.187,2.513,2.513,0,0,1-1.1-.961,1.108,1.108,0,0,1-.164-.562,1.254,1.254,0,0,1,.094-.469,1.133,1.133,0,0,1,.82-.633q.3-.047.586-.117a7.39,7.39,0,0,0,3.891-2.215,5.955,5.955,0,0,0,1.5-4.16,6.663,6.663,0,0,0-1.242-4.1,5.606,5.606,0,0,0-3.492-2.133.211.211,0,0,0-.281.188,55.891,55.891,0,0,1-1.359,6.234,17.963,17.963,0,0,1-2.637,5.7A4.351,4.351,0,0,1,102.188-.68a4.128,4.128,0,0,1-3.41-1.969,8.246,8.246,0,0,1-1.418-4.945,9.382,9.382,0,0,1,.844-3.891,10.125,10.125,0,0,1,2.3-3.246,11.181,11.181,0,0,1,3.492-2.2,11.3,11.3,0,0,1,4.313-.832,10.129,10.129,0,0,1,5.063,1.242,8.514,8.514,0,0,1,3.363,3.352,9.611,9.611,0,0,1,1.16,4.711,9.008,9.008,0,0,1-1.9,5.8A10.019,10.019,0,0,1,110.438.656ZM125.25-2.133q.75,0,.75-1.031,0-.984-.047-2.7a.131.131,0,0,0-.07-.129.132.132,0,0,0-.141.012,5.831,5.831,0,0,0-1.629,1.2,1.91,1.91,0,0,0-.6,1.242,1.227,1.227,0,0,0,.609.961A1.956,1.956,0,0,0,125.25-2.133Zm3.375-8.555v.609a.189.189,0,0,0,.07.152.176.176,0,0,0,.164.035,18.668,18.668,0,0,1,4.336-.562,7.491,7.491,0,0,1,4.664,1.406,4.519,4.519,0,0,1,1.852,3.8,5.533,5.533,0,0,1-1.254,3.691A7.364,7.364,0,0,1,134.484.609q-.7.141-1.5.234a1.578,1.578,0,0,1-.258.023,1.867,1.867,0,0,1-1.055-.328A2.182,2.182,0,0,1,130.8-.539a1.262,1.262,0,0,1-.07-.4,1.1,1.1,0,0,1,.211-.633,1.116,1.116,0,0,1,.938-.516,13.031,13.031,0,0,0,1.313-.141,5.478,5.478,0,0,0,2.484-1.055,2.442,2.442,0,0,0,.961-1.992,2.172,2.172,0,0,0-.961-1.875,4.294,4.294,0,0,0-2.531-.68,16.49,16.49,0,0,0-4.242.586.294.294,0,0,0-.234.3q.023.633.059,1.652t.047,1.664q.012.645.012.973a4.725,4.725,0,0,1-.668,2.906,2.349,2.349,0,0,1-1.934.82A5.994,5.994,0,0,1,123.7.492a6.414,6.414,0,0,1-2.215-1.652,3.4,3.4,0,0,1-.926-2.262,4.243,4.243,0,0,1,1.453-2.941,12.275,12.275,0,0,1,3.656-2.473.332.332,0,0,0,.211-.328q-.023-.469-.023-1.43v-1.758a.189.189,0,0,0-.07-.152.249.249,0,0,0-.164-.059q-.68.023-1.031.023-1.055,0-1.875-.023a1.448,1.448,0,0,1-1.031-.469,1.511,1.511,0,0,1-.422-1.078,1.234,1.234,0,0,1,.4-.937,1.342,1.342,0,0,1,.914-.352h.094q.844.07,1.852.07.4,0,1.125-.047a.232.232,0,0,0,.258-.234v-2.273a1.529,1.529,0,0,1,.4-1.055,1.386,1.386,0,0,1,1.078-.469,1.459,1.459,0,0,1,1.1.469,1.523,1.523,0,0,1,.375,1.008v.141q-.023.258-.047.445-.023.609-.047,1.453a.163.163,0,0,0,.047.164.163.163,0,0,0,.164.047q1.43-.211,2.7-.492a1.708,1.708,0,0,1,.281-.023,1.222,1.222,0,0,1,.727.234,1.136,1.136,0,0,1,.469.961,1.711,1.711,0,0,1-.375,1.1,1.736,1.736,0,0,1-1.055.633q-1.219.211-2.836.422a.232.232,0,0,0-.234.258Q128.625-11.93,128.625-10.687ZM135.68-13.9a1.287,1.287,0,0,1-.656-.8,1.541,1.541,0,0,1-.047-.375,1.275,1.275,0,0,1,.164-.609,1.375,1.375,0,0,1,.82-.656,1.262,1.262,0,0,1,.4-.07,1.318,1.318,0,0,1,.633.164q1.875.984,3.445,1.945a1.448,1.448,0,0,1,.656.914,2.489,2.489,0,0,1,.023.352,1.518,1.518,0,0,1-.211.75,1.22,1.22,0,0,1-.82.586,2.033,2.033,0,0,1-.281.023,1.328,1.328,0,0,1-.75-.234A37.985,37.985,0,0,0,135.68-13.9Zm20.227,6.844a.207.207,0,0,0,.234.234h4.875a.207.207,0,0,0,.234-.234V-9.117a.207.207,0,0,0-.234-.234h-4.875a.207.207,0,0,0-.234.234Zm-8.2,0a.207.207,0,0,0,.234.234h4.734a.207.207,0,0,0,.234-.234V-9.117a.207.207,0,0,0-.234-.234h-4.734a.207.207,0,0,0-.234.234Zm5.2-7.1a.207.207,0,0,0-.234-.234h-4.734a.207.207,0,0,0-.234.234v1.945a.207.207,0,0,0,.234.234h4.734a.207.207,0,0,0,.234-.234Zm8.344,0a.207.207,0,0,0-.234-.234h-4.875a.207.207,0,0,0-.234.234v1.945a.207.207,0,0,0,.234.234h4.875a.207.207,0,0,0,.234-.234Zm-5.344-3.211a.207.207,0,0,0,.234.234h6.047a1.964,1.964,0,0,1,1.441.6,1.964,1.964,0,0,1,.6,1.441V-4.406a1.422,1.422,0,0,1-.434,1.043,1.449,1.449,0,0,1-1.066.434h-.445a.992.992,0,0,1-.727-.3.992.992,0,0,1-.3-.727.1.1,0,0,0-.117-.117h-4.992a.207.207,0,0,0-.234.234V.563a1.449,1.449,0,0,1-.434,1.066,1.436,1.436,0,0,1-1.055.434,1.475,1.475,0,0,1-1.066-.434,1.43,1.43,0,0,1-.445-1.066V-3.844a.207.207,0,0,0-.234-.234h-4.828a.124.124,0,0,0-.141.141,1.085,1.085,0,0,1-.328.8,1.085,1.085,0,0,1-.8.328h-.3a1.4,1.4,0,0,1-1.008-.41,1.364,1.364,0,0,1-.422-1.02V-15.094a1.964,1.964,0,0,1,.6-1.441,1.964,1.964,0,0,1,1.441-.6h5.789a.207.207,0,0,0,.234-.234v-1.477a1.43,1.43,0,0,1,.445-1.066,1.475,1.475,0,0,1,1.066-.434,1.436,1.436,0,0,1,1.055.434,1.449,1.449,0,0,1,.434,1.066Zm23.648,3.844a.854.854,0,0,1,.352-.551.86.86,0,0,1,.633-.152.1.1,0,0,0,.07-.023.068.068,0,0,0,.023-.047q-.164-1.289-.234-2.109a.232.232,0,0,0-.258-.234h-2.6a1.291,1.291,0,0,1-.949-.387,1.291,1.291,0,0,1-.387-.949,1.291,1.291,0,0,1,.387-.949,1.291,1.291,0,0,1,.949-.387h3.211a2.093,2.093,0,0,1,1.488.586,2.27,2.27,0,0,1,.715,1.453A26.064,26.064,0,0,0,184.559-9.9a10.615,10.615,0,0,0,3.691,4.84,1.178,1.178,0,0,1,.492.891.386.386,0,0,1,.023.117,1.075,1.075,0,0,1-.352.82,2.086,2.086,0,0,1-1.148.586,1.192,1.192,0,0,1-.234.023,1.588,1.588,0,0,1-.961-.328,13.887,13.887,0,0,1-4.406-6.75q-.023-.07-.07-.07a.075.075,0,0,0-.07.047A15.838,15.838,0,0,1,177.164-3a1.406,1.406,0,0,1-.961.375.519.519,0,0,1-.164-.023,1.716,1.716,0,0,1-1.125-.516,1.217,1.217,0,0,1-.375-.891,1.29,1.29,0,0,1,.469-1.031Q178.43-7.852,179.555-13.523Zm-6.773-3.727a1.244,1.244,0,0,1,.375.914v.117a1.388,1.388,0,0,1-.539,1.008,1.336,1.336,0,0,1-.867.328h-.187a1.525,1.525,0,0,1-.984-.516,19,19,0,0,0-1.875-1.8,1.045,1.045,0,0,1-.422-.867,1.044,1.044,0,0,1,.4-.844,1.792,1.792,0,0,1,1.078-.4h.047a1.68,1.68,0,0,1,1.031.352A21.964,21.964,0,0,1,172.781-17.25Zm-1.664,6.234a1.964,1.964,0,0,1,1.441.6,1.964,1.964,0,0,1,.6,1.441V-3.7a.78.78,0,0,0,.117.422,4.336,4.336,0,0,0,2,1.57,9.407,9.407,0,0,0,3.152.586q1.711.07,3.609.07,2.93,0,6.281-.164h.07a.935.935,0,0,1,.773.4.964.964,0,0,1,.211.586.827.827,0,0,1-.07.328,2.106,2.106,0,0,1-.7,1.078,1.913,1.913,0,0,1-1.172.445q-2.7.094-5.016.094-2.18,0-4.031-.07a12.046,12.046,0,0,1-3.715-.656,6.58,6.58,0,0,1-2.613-1.828q-.164-.187-.328-.023Q170.508.188,169.781.82a1.306,1.306,0,0,1-.8.281,2.164,2.164,0,0,1-.3-.023,1.265,1.265,0,0,1-.891-.727,1.858,1.858,0,0,1-.164-.75,2.04,2.04,0,0,1,.07-.539,1.87,1.87,0,0,1,.8-1.055q.914-.609,1.688-1.2a.445.445,0,0,0,.188-.375V-8.156a.207.207,0,0,0-.234-.234h-1.219a1.263,1.263,0,0,1-.926-.387A1.263,1.263,0,0,1,167.6-9.7a1.263,1.263,0,0,1,.387-.926,1.263,1.263,0,0,1,.926-.387Zm25.664,6.422a26.765,26.765,0,0,0,1.852-3.586.148.148,0,0,0-.012-.129.138.138,0,0,0-.129-.059,5.326,5.326,0,0,0-2.812,1.324A2.958,2.958,0,0,0,194.648-4.9a1.239,1.239,0,0,0,.258.809.788.788,0,0,0,.633.316A1.6,1.6,0,0,0,196.781-4.594Zm15.164-2.859a2.1,2.1,0,0,1,.891,1.148,2.379,2.379,0,0,1,.094.656,2.256,2.256,0,0,1-.164.82,1.272,1.272,0,0,1-.891.75,1.453,1.453,0,0,1-.352.047,1.273,1.273,0,0,1-.82-.3l-.469-.375q-.187-.141-.281.094A11.753,11.753,0,0,1,205.43.75a2.1,2.1,0,0,1-1.172.352h-.187a2.462,2.462,0,0,1-1.336-.539,1,1,0,0,1-.375-.773.689.689,0,0,1,.023-.164,1,1,0,0,1,.563-.82,9.85,9.85,0,0,0,4.477-5.039.23.23,0,0,0-.117-.328,16.1,16.1,0,0,0-5.133-1.781.3.3,0,0,0-.328.188A48.855,48.855,0,0,1,199.2-2.672,4.559,4.559,0,0,1,197.6-1.078a4.3,4.3,0,0,1-2.109.492,3.556,3.556,0,0,1-2.625-1.031,3.769,3.769,0,0,1-1.031-2.789,5.845,5.845,0,0,1,2.2-4.605,9.436,9.436,0,0,1,5.672-2.121.332.332,0,0,0,.328-.211q1.43-3.281,1.711-3.844a.2.2,0,0,0-.012-.152.138.138,0,0,0-.129-.059q-2.437.07-3.82.164-.164,0-.422.023h-.141a1.429,1.429,0,0,1-.937-.352,1.29,1.29,0,0,1-.492-1.055,1.349,1.349,0,0,1,.422-.984,1.417,1.417,0,0,1,1.008-.4h.469q2.789,0,4.992-.187l.445-.047a2.7,2.7,0,0,1,.609-.07,2.311,2.311,0,0,1,1.5.492,1.123,1.123,0,0,1,.422.8v.141a1.434,1.434,0,0,1-.211.75.273.273,0,0,0-.047.07,46.786,46.786,0,0,0-2.25,4.875.183.183,0,0,0,.023.152.216.216,0,0,0,.117.105,20.015,20.015,0,0,1,4.664,1.406.2.2,0,0,0,.164-.023.226.226,0,0,0,.094-.117,5.036,5.036,0,0,1,.047-.586q.023-.586.023-1.031a1.448,1.448,0,0,1,.469-1.031,1.191,1.191,0,0,1,.867-.375.519.519,0,0,1,.164.023,1.559,1.559,0,0,1,1.078.586,1.523,1.523,0,0,1,.375,1.008v.141q-.117,1.523-.3,2.625a.3.3,0,0,0,.164.352Q211.5-7.711,211.945-7.453Zm8.742-8.625a.207.207,0,0,0-.234-.234h-1.734a.207.207,0,0,0-.234.234v3.75a.207.207,0,0,0,.234.234h1.734a.207.207,0,0,0,.234-.234Zm-2.2,10.758a.207.207,0,0,0,.234.234h1.734a.207.207,0,0,0,.234-.234V-9.375a.207.207,0,0,0-.234-.234h-1.734a.207.207,0,0,0-.234.234Zm2.836-13.547a1.964,1.964,0,0,1,1.441.6,1.964,1.964,0,0,1,.6,1.441V-4.594a1.964,1.964,0,0,1-.6,1.441,1.964,1.964,0,0,1-1.441.6H218.7q-.211,0-.211.234v.563a1.291,1.291,0,0,1-.387.949,1.263,1.263,0,0,1-.926.387,1.263,1.263,0,0,1-.926-.387,1.291,1.291,0,0,1-.387-.949v-15.07a1.964,1.964,0,0,1,.6-1.441,1.964,1.964,0,0,1,1.441-.6Zm4.289,15.328a1.187,1.187,0,0,1-.234-.7,1.086,1.086,0,0,1,.023-.211,1.006,1.006,0,0,1,.516-.773,1.645,1.645,0,0,1,.82-.211,1.578,1.578,0,0,1,.258.023,1.419,1.419,0,0,1,.938.516,20.173,20.173,0,0,1,1.336,1.734,1.24,1.24,0,0,1,.211.68,1.541,1.541,0,0,1-.047.375,1.43,1.43,0,0,1-.7.867,1.191,1.191,0,0,1-.633.188,1.262,1.262,0,0,1-.4-.07,1.468,1.468,0,0,1-.844-.656A17.577,17.577,0,0,0,225.609-3.539Zm11.484-9.281a1.142,1.142,0,0,1,.375.867,1.2,1.2,0,0,1-.363.879,1.2,1.2,0,0,1-.879.363h-.984a.207.207,0,0,0-.234.234v1.594a.207.207,0,0,0,.234.234h.82a1.2,1.2,0,0,1,.879.363,1.2,1.2,0,0,1,.363.879,1.2,1.2,0,0,1-.363.879,1.2,1.2,0,0,1-.879.363h-.82a.207.207,0,0,0-.234.234V-.937A4.1,4.1,0,0,1,234.75.691a1.856,1.856,0,0,1-.937.9,7.833,7.833,0,0,1-2.6.445h-.07a1.584,1.584,0,0,1-1.008-.352,2.193,2.193,0,0,1-.7-1.008,1.189,1.189,0,0,1-.047-.328.989.989,0,0,1,.164-.539.839.839,0,0,1,.75-.4h1.43a.715.715,0,0,0,.41-.082.419.419,0,0,0,.105-.34V-5.93a.207.207,0,0,0-.234-.234h-6.961a1.159,1.159,0,0,1-.867-.363,1.218,1.218,0,0,1-.352-.879,1.218,1.218,0,0,1,.352-.879,1.159,1.159,0,0,1,.867-.363h6.961a.207.207,0,0,0,.234-.234v-1.594a.207.207,0,0,0-.234-.234h-6.984a1.236,1.236,0,0,1-.891-.363,1.179,1.179,0,0,1-.375-.879,1.179,1.179,0,0,1,.375-.879,1.236,1.236,0,0,1,.891-.363h3.938a.207.207,0,0,0,.234-.234V-15.07a.207.207,0,0,0-.234-.234h-3.117a1.206,1.206,0,0,1-.9-.375,1.236,1.236,0,0,1-.363-.891,1.2,1.2,0,0,1,.363-.879,1.225,1.225,0,0,1,.9-.363h3.117a.207.207,0,0,0,.234-.234v-.867a1.356,1.356,0,0,1,.41-1,1.356,1.356,0,0,1,1-.41,1.356,1.356,0,0,1,1,.41,1.356,1.356,0,0,1,.41,1v.867a.207.207,0,0,0,.234.234h3.3a1.236,1.236,0,0,1,.891.363,1.179,1.179,0,0,1,.375.879,1.217,1.217,0,0,1-.375.891,1.217,1.217,0,0,1-.891.375h-3.3a.207.207,0,0,0-.234.234v1.641a.207.207,0,0,0,.234.234h3.984A1.142,1.142,0,0,1,237.094-12.82Zm12.258-.75a1.628,1.628,0,0,1-1.1-.516,1.658,1.658,0,0,1-.445-1.148,1.341,1.341,0,0,1,.445-1.008,1.46,1.46,0,0,1,.961-.352h.117q1.641.117,3.375.117,1.852,0,3.8-.141h.117a1.323,1.323,0,0,1,.938.375,1.335,1.335,0,0,1,.469,1.031,1.576,1.576,0,0,1-.445,1.125,1.605,1.605,0,0,1-1.078.516q-1.781.094-3.562.094T249.352-13.57Zm-2.625,8.086a1.407,1.407,0,0,1,.563-.937,1.43,1.43,0,0,1,.891-.3.519.519,0,0,1,.164.023,1.159,1.159,0,0,1,.867.492,1.418,1.418,0,0,1,.258.82v.164a4.476,4.476,0,0,0-.047.633q0,1.688,3.328,1.688a28.034,28.034,0,0,0,4.359-.328,1.578,1.578,0,0,1,.258-.023,1.336,1.336,0,0,1,.867.328,1.29,1.29,0,0,1,.492,1.055,1.832,1.832,0,0,1-.422,1.2,1.628,1.628,0,0,1-1.125.609,39.3,39.3,0,0,1-4.547.234A8.17,8.17,0,0,1,248.1-.855a3.288,3.288,0,0,1-1.512-2.895A12.087,12.087,0,0,1,246.727-5.484ZM240.68-16.922a1.774,1.774,0,0,1,.609-1.148,1.557,1.557,0,0,1,1.031-.4.519.519,0,0,1,.164.023,1.293,1.293,0,0,1,1.008.586,1.382,1.382,0,0,1,.258.8,1.453,1.453,0,0,1-.047.352q-.07.281-.117.516-.352,1.641-.762,4.383a31.053,31.053,0,0,0-.41,4.336,10.869,10.869,0,0,0,.07,1.289.055.055,0,0,0,.047.059.057.057,0,0,0,.07-.035q.188-.469.586-1.336a.674.674,0,0,1,.492-.41.73.73,0,0,1,.633.129,1.408,1.408,0,0,1,.469.68,1.541,1.541,0,0,1,.047.375,1.327,1.327,0,0,1-.07.422,45.35,45.35,0,0,0-1.406,4.945q-.07.328-.117.7a1.676,1.676,0,0,1-.422,1.008A1.342,1.342,0,0,1,241.9.82h-.141a1.669,1.669,0,0,1-.961-.3,1.5,1.5,0,0,1-.586-.937,32.364,32.364,0,0,1-.609-6.445q0-1.008.07-2.121t.2-2.262q.129-1.148.234-1.91t.27-1.828q.164-1.066.211-1.277l.035-.258Q240.656-16.781,240.68-16.922ZM261.117-5.836a1.534,1.534,0,0,1,.633-1.055,1.714,1.714,0,0,1,1.055-.352.689.689,0,0,1,.164.023,1.226,1.226,0,0,1,.961.563,1.4,1.4,0,0,1,.3.867,1.192,1.192,0,0,1-.023.234,5.874,5.874,0,0,0-.07.867,2.147,2.147,0,0,0,1.2,1.922,7.413,7.413,0,0,0,3.656.7,37.155,37.155,0,0,0,6.727-.562A1.708,1.708,0,0,1,276-2.648a1.3,1.3,0,0,1,.844.3,1.245,1.245,0,0,1,.516,1.031A2.053,2.053,0,0,1,276.914,0a1.9,1.9,0,0,1-1.2.68,42.391,42.391,0,0,1-6.609.469,11.549,11.549,0,0,1-6.094-1.3,4.2,4.2,0,0,1-2.062-3.785A11.843,11.843,0,0,1,261.117-5.836Zm14.109-12.211a.91.91,0,0,1-.07-.727.775.775,0,0,1,.469-.516,1.254,1.254,0,0,1,.469-.094,1.541,1.541,0,0,1,.375.047,1.2,1.2,0,0,1,.656.516q.445.7.867,1.5a.79.79,0,0,1,.141.445.827.827,0,0,1-.07.328,1,1,0,0,1-.539.586,1.084,1.084,0,0,1-.445.094,1.062,1.062,0,0,1-.375-.07,1.176,1.176,0,0,1-.633-.562,1.64,1.64,0,0,1-.117-.234q0-.023-.035-.023t-.035.047v.656a2.093,2.093,0,0,1-.586,1.488,2.081,2.081,0,0,1-1.453.668q-2.859.164-4.828.164-2.367,0-4.9-.141A1.63,1.63,0,0,1,263-14.414a1.663,1.663,0,0,1-.457-1.172,1.36,1.36,0,0,1,.469-1.055,1.435,1.435,0,0,1,.984-.375h.117q2.156.141,4.875.141,3.188,0,6.516-.281a.187.187,0,0,0,.105-.082.148.148,0,0,0,.012-.129Q275.414-17.742,275.227-18.047Zm2.859-1.1a.79.79,0,0,1-.141-.445.821.821,0,0,1,.047-.258.775.775,0,0,1,.469-.516,1.087,1.087,0,0,1,.492-.117,1,1,0,0,1,.352.07,1.1,1.1,0,0,1,.68.492q.445.727.891,1.523a.862.862,0,0,1,.117.422,1.189,1.189,0,0,1-.047.328.915.915,0,0,1-.539.563,1.031,1.031,0,0,1-.422.094,1.062,1.062,0,0,1-.375-.07,1.079,1.079,0,0,1-.633-.539A17,17,0,0,0,278.086-19.148ZM294.258-8.391a.207.207,0,0,0,.234.234h4.594a.207.207,0,0,0,.234-.234v-2.484a.207.207,0,0,0-.234-.234h-4.594a.207.207,0,0,0-.234.234Zm-7.453,0a.163.163,0,0,0,.047.164.225.225,0,0,0,.164.07h4.125a.207.207,0,0,0,.234-.234v-2.484a.207.207,0,0,0-.234-.234h-4.055a.207.207,0,0,0-.234.234v.211Q286.852-9.586,286.8-8.391Zm4.57-7.922a.207.207,0,0,0-.234-.234h-4.055a.207.207,0,0,0-.234.234v2.32a.207.207,0,0,0,.234.234h4.055a.207.207,0,0,0,.234-.234Zm7.711,2.555a.207.207,0,0,0,.234-.234v-2.32a.207.207,0,0,0-.234-.234h-4.594a.207.207,0,0,0-.234.234v2.32a.207.207,0,0,0,.234.234Zm1.031-5.508a1.964,1.964,0,0,1,1.441.6,1.964,1.964,0,0,1,.6,1.441v15.4a4.334,4.334,0,0,1-.293,1.793,1.867,1.867,0,0,1-1.02.926,9.154,9.154,0,0,1-3.141.516h-.047a1.586,1.586,0,0,1-1.055-.4A2.043,2.043,0,0,1,295.9,0a.883.883,0,0,1-.07-.352.989.989,0,0,1,.164-.539.9.9,0,0,1,.773-.4h1.922q.633,0,.633-.562V-5.227a.207.207,0,0,0-.234-.234h-4.594a.207.207,0,0,0-.234.234V-.187A1.375,1.375,0,0,1,293.836.82a1.389,1.389,0,0,1-1.02.422A1.389,1.389,0,0,1,291.8.82a1.375,1.375,0,0,1-.422-1.008V-5.227a.207.207,0,0,0-.234-.234h-4.43a.261.261,0,0,0-.281.234A14.45,14.45,0,0,1,284.344.516a1.071,1.071,0,0,1-.914.492.1.1,0,0,1-.07.023A1.406,1.406,0,0,1,282.4.656a1.518,1.518,0,0,1-.539-.937V-.539a1.479,1.479,0,0,1,.234-.8,9.634,9.634,0,0,0,.633-1.2,10.755,10.755,0,0,0,.867-2.789q.258-1.5.34-2.66t.082-2.707v-6.539a1.964,1.964,0,0,1,.6-1.441,1.964,1.964,0,0,1,1.441-.6ZM319.5-16.687a.105.105,0,0,0-.012-.105.115.115,0,0,0-.105-.059h-5.6a.1.1,0,0,0-.082.047.121.121,0,0,0-.012.117q.234.563.422,1.125a.222.222,0,0,1-.012.211.256.256,0,0,1-.176.117v.023h5.25v-.023a.215.215,0,0,1-.164-.129.223.223,0,0,1,0-.2Q319.336-16.266,319.5-16.687Zm6.375,1.477a1.066,1.066,0,0,1,.785.316,1.052,1.052,0,0,1,.316.773,1.091,1.091,0,0,1-.316.785,1.047,1.047,0,0,1-.785.328H307.336a1.047,1.047,0,0,1-.785-.328,1.091,1.091,0,0,1-.316-.785,1.052,1.052,0,0,1,.316-.773,1.066,1.066,0,0,1,.785-.316h3.844a.115.115,0,0,0,.105-.059.21.21,0,0,0,.035-.105q-.187-.562-.516-1.359-.047-.094.07-.117h-2.367a1.066,1.066,0,0,1-.785-.316,1.052,1.052,0,0,1-.316-.773,1.091,1.091,0,0,1,.316-.785,1.047,1.047,0,0,1,.785-.328H315a.124.124,0,0,0,.141-.141,1.085,1.085,0,0,1,.328-.8,1.085,1.085,0,0,1,.8-.328h.563a1.085,1.085,0,0,1,.8.328,1.085,1.085,0,0,1,.328.8.124.124,0,0,0,.141.141h6.516a1.047,1.047,0,0,1,.785.328,1.091,1.091,0,0,1,.316.785,1.052,1.052,0,0,1-.316.773,1.066,1.066,0,0,1-.785.316h-2.25a.244.244,0,0,1,.176.141.188.188,0,0,1-.012.211q-.211.352-.727,1.125a.078.078,0,0,0-.012.105.1.1,0,0,0,.082.059ZM308.555.75a1.488,1.488,0,0,1-1.031.445h-.07A1.714,1.714,0,0,1,306.4.844.86.86,0,0,1,306,.07a1.05,1.05,0,0,1,.352-.8,8.191,8.191,0,0,0,1.57-2.062,1.491,1.491,0,0,1,.75-.7,1.288,1.288,0,0,1,.539-.117,1.327,1.327,0,0,1,.422.07,1.2,1.2,0,0,1,.727.656,1.04,1.04,0,0,1,.117.469,1.04,1.04,0,0,1-.117.469,10.8,10.8,0,0,1-.8,1.453A7.782,7.782,0,0,1,308.555.75ZM311.7-7.594a.207.207,0,0,0-.234.234v.609a.207.207,0,0,0,.234.234h9.891a.207.207,0,0,0,.234-.234v-.609a.207.207,0,0,0-.234-.234Zm0-2.672a.207.207,0,0,0-.234.234v.563a.207.207,0,0,0,.234.234h9.891a.207.207,0,0,0,.234-.234v-.562a.207.207,0,0,0-.234-.234Zm3.82,9.82h3.3a1.26,1.26,0,0,0,.68-.141.941.941,0,0,0,.328-.539,1,1,0,0,1,.492-.68,1.087,1.087,0,0,1,.492-.117,1.189,1.189,0,0,1,.328.047,1.768,1.768,0,0,1,.867.656,1.24,1.24,0,0,1,.211.68,1.114,1.114,0,0,1-.047.3,2.6,2.6,0,0,1-1,1.617,3.879,3.879,0,0,1-2.074.445h-3.867a5.083,5.083,0,0,1-3.012-.621,2.932,2.932,0,0,1-.762-2.355v-.492a1.964,1.964,0,0,1,.6-1.441,1.964,1.964,0,0,1,1.441-.6h.516a.176.176,0,0,1-.105-.141.189.189,0,0,1,.059-.164l.68-.68a.053.053,0,0,0,.012-.059.054.054,0,0,0-.059-.035h-3.82a1.964,1.964,0,0,1-1.441-.6,1.964,1.964,0,0,1-.6-1.441V-9.984a1.964,1.964,0,0,1,.6-1.441,1.964,1.964,0,0,1,1.441-.6h11.836a1.964,1.964,0,0,1,1.441.6,1.964,1.964,0,0,1,.6,1.441V-6.8a1.964,1.964,0,0,1-.6,1.441,1.964,1.964,0,0,1-1.441.6h-5.531a.041.041,0,0,0-.047.047.1.1,0,0,0,.023.07q.656.3,1.266.656a1.022,1.022,0,0,1,.469.75v.117a.992.992,0,0,1-.3.727,1.386,1.386,0,0,1-.891.4h-.117a1.455,1.455,0,0,1-.844-.258,15.4,15.4,0,0,0-2.18-1.219.117.117,0,0,0-.141,0,.138.138,0,0,0-.07.117v2.18q0,.469.223.6A2.566,2.566,0,0,0,315.516-.445Zm7.1-1.711a.9.9,0,0,1-.281-.656v-.141a.9.9,0,0,1,.48-.691,1.769,1.769,0,0,1,.855-.223h.211a1.781,1.781,0,0,1,.984.445,21.131,21.131,0,0,1,2.2,2.391,1.026,1.026,0,0,1,.258.68,1.114,1.114,0,0,1-.047.3,1.286,1.286,0,0,1-.633.82,1.352,1.352,0,0,1-.68.188,1.453,1.453,0,0,1-.352-.047,1.524,1.524,0,0,1-.867-.586A22.686,22.686,0,0,0,322.617-2.156Zm7.289-13.219a1.752,1.752,0,0,1,.469-1.219,1.565,1.565,0,0,1,1.172-.516h.023a1.488,1.488,0,0,1,1.2.563,1.594,1.594,0,0,1,.422,1.1.519.519,0,0,1-.023.164q-.047.656-.047,1.078v1.031q0,2.2.141,4.008Q333.82-3.4,335.813-3.4q1.008,0,1.992-2.859a1.014,1.014,0,0,1,.773-.7,1.192,1.192,0,0,1,.234-.023.866.866,0,0,1,.7.352,3.172,3.172,0,0,1,.7,1.523,2.385,2.385,0,0,1,.047.469,2.782,2.782,0,0,1-.258,1.172,9.161,9.161,0,0,1-2,2.977A3.357,3.357,0,0,1,335.742.4a4.333,4.333,0,0,1-3.6-2.1q-1.488-2.1-1.957-6.621-.258-2.672-.258-6.422ZM343.219-14.3a1.206,1.206,0,0,1-.211-.656,1.84,1.84,0,0,1,.047-.4,1.124,1.124,0,0,1,.727-.727,2.212,2.212,0,0,1,.7-.117,2.379,2.379,0,0,1,.656.094,1.979,1.979,0,0,1,1.055.82,22.828,22.828,0,0,1,1.969,4.348,31.266,31.266,0,0,1,1.266,4.816,2.843,2.843,0,0,1,.023.352,1.93,1.93,0,0,1-.3,1.031,2.021,2.021,0,0,1-1.1.891,1.254,1.254,0,0,1-.469.094,1.313,1.313,0,0,1-.656-.187,1.294,1.294,0,0,1-.633-.961A24.061,24.061,0,0,0,343.219-14.3Zm20.789,5.063h-.117a1.248,1.248,0,0,1-.844-.328,1.2,1.2,0,0,1-.422-.937,1.5,1.5,0,0,1,.4-1.031,1.452,1.452,0,0,1,1.008-.492q1.781-.117,3.141-.117t2.766.094a1.516,1.516,0,0,1,1.008.492,1.466,1.466,0,0,1,.375,1.008,1.294,1.294,0,0,1-.445,1.008,1.277,1.277,0,0,1-.867.328.442.442,0,0,1-.141-.023q-1.453-.117-2.672-.117Q365.438-9.352,364.008-9.234Zm-.984-7.172a1.708,1.708,0,0,1,.281-.023,1.09,1.09,0,0,1,.727.281,1.092,1.092,0,0,1,.469.914,1.8,1.8,0,0,1-.422,1.172,1.736,1.736,0,0,1-1.055.633q-1.406.258-2.906.445a.293.293,0,0,0-.281.258q-.352,1.641-.68,2.813a72.391,72.391,0,0,1-3.07,9.375,1.792,1.792,0,0,1-.961,1.008,1.911,1.911,0,0,1-.773.164,2.3,2.3,0,0,1-.633-.094,1.481,1.481,0,0,1-.891-.867,1.509,1.509,0,0,1-.117-.586,1.456,1.456,0,0,1,.164-.656q.891-1.9,1.8-4.465t1.477-4.7q.164-.609.445-1.734a.167.167,0,0,0-.023-.152.169.169,0,0,0-.141-.059q-.891.023-1.336.023-.68,0-1.383-.023a1.555,1.555,0,0,1-1.078-.469,1.576,1.576,0,0,1-.445-1.125,1.2,1.2,0,0,1,.422-.937,1.3,1.3,0,0,1,.914-.375h.117q.7.047,1.5.047.938,0,1.875-.047a.287.287,0,0,0,.281-.234q.117-.656.188-1.148.023-.281.047-.586a1.837,1.837,0,0,1,.609-1.219,1.547,1.547,0,0,1,1.1-.445h.141a1.466,1.466,0,0,1,1.148.633,1.53,1.53,0,0,1,.3.914,1.541,1.541,0,0,1-.047.375q-.07.3-.094.445l-.141.68a.15.15,0,0,0,.035.152.15.15,0,0,0,.152.035Q361.922-16.172,363.023-16.406ZM360.891-4.781a1.394,1.394,0,0,1,.586-.961,1.49,1.49,0,0,1,.938-.328h.164a1.253,1.253,0,0,1,.891.516,1.418,1.418,0,0,1,.258.82v.211a4.19,4.19,0,0,0-.047.586,1.526,1.526,0,0,0,.68,1.336,4.612,4.612,0,0,0,2.461.469,26.784,26.784,0,0,0,3.445-.234.771.771,0,0,1,.188-.023,1.248,1.248,0,0,1,.844.328,1.208,1.208,0,0,1,.4.914,1.723,1.723,0,0,1-.469,1.2,1.681,1.681,0,0,1-1.1.563q-1.734.164-3.328.164a8.425,8.425,0,0,1-4.512-.984,3.149,3.149,0,0,1-1.535-2.812A12.57,12.57,0,0,1,360.891-4.781Zm31.688-11.062a1.04,1.04,0,0,1,.117.469.827.827,0,0,1-.07.328.915.915,0,0,1-.539.563,1.031,1.031,0,0,1-.422.094,1.262,1.262,0,0,1-.4-.07,1.082,1.082,0,0,1-.609-.539q-.445-.867-.844-1.547a.9.9,0,0,1-.117-.445,1.317,1.317,0,0,1,.023-.258.777.777,0,0,1,.492-.539,1.04,1.04,0,0,1,.469-.117,1.062,1.062,0,0,1,.375.07,1.2,1.2,0,0,1,.656.516Q392.156-16.594,392.578-15.844Zm-6.3,6.867a.261.261,0,0,1-.117.023,1.151,1.151,0,0,1-.844-.352,1.178,1.178,0,0,1-.422-.914,1.487,1.487,0,0,1,.4-1.043,1.45,1.45,0,0,1,.984-.48q1.641-.117,3.188-.117,1.453,0,2.742.07a1.516,1.516,0,0,1,1.008.492,1.553,1.553,0,0,1,.375,1.031,1.294,1.294,0,0,1-.445,1.008,1.277,1.277,0,0,1-.867.328.442.442,0,0,1-.141-.023q-1.5-.141-2.648-.141Q387.867-9.094,386.273-8.977Zm-.961-7.148a1.578,1.578,0,0,1,.258-.023,1.12,1.12,0,0,1,.75.281,1.111,1.111,0,0,1,.445.914,1.832,1.832,0,0,1-.41,1.172,1.688,1.688,0,0,1-1.043.633q-1.359.258-2.93.445a.293.293,0,0,0-.281.258q-.352,1.664-.656,2.813a73.2,73.2,0,0,1-3.094,9.375A1.7,1.7,0,0,1,377.391.75a1.911,1.911,0,0,1-.773.164,2.063,2.063,0,0,1-.609-.094,1.4,1.4,0,0,1-.914-.867,1.453,1.453,0,0,1-.117-.562,1.5,1.5,0,0,1,.164-.68q.891-1.9,1.816-4.465t1.488-4.676q.422-1.641.445-1.781a.141.141,0,0,0-.035-.141.189.189,0,0,0-.152-.07q-.867.047-1.312.047-.7,0-1.406-.023a1.514,1.514,0,0,1-1.078-.492,1.5,1.5,0,0,1-.445-1.1,1.2,1.2,0,0,1,.422-.937,1.3,1.3,0,0,1,.914-.375h.094q.656.047,1.547.047.914,0,1.875-.07a.261.261,0,0,0,.281-.234q.094-.539.164-1.125.047-.281.07-.609a1.881,1.881,0,0,1,.586-1.219,1.6,1.6,0,0,1,1.1-.445h.141a1.466,1.466,0,0,1,1.148.633,1.53,1.53,0,0,1,.3.914,3.021,3.021,0,0,1-.023.375q-.07.328-.117.469l-.141.68a.119.119,0,0,0,.035.129.206.206,0,0,0,.152.059Q384.141-15.867,385.313-16.125ZM383.156-4.5a1.464,1.464,0,0,1,.586-.961,1.588,1.588,0,0,1,.961-.328h.164a1.14,1.14,0,0,1,.867.516,1.242,1.242,0,0,1,.281.8.871.871,0,0,1-.023.211,4.19,4.19,0,0,0-.047.586,1.548,1.548,0,0,0,.691,1.348,4.525,4.525,0,0,0,2.449.48,25.808,25.808,0,0,0,3.445-.258h.188a1.248,1.248,0,0,1,.844.328,1.178,1.178,0,0,1,.422.914,1.706,1.706,0,0,1-.492,1.219,1.725,1.725,0,0,1-1.1.539q-1.711.164-3.328.164A8.425,8.425,0,0,1,384.551.07a3.149,3.149,0,0,1-1.535-2.812A12.57,12.57,0,0,1,383.156-4.5Zm9.516-13.148a.9.9,0,0,1-.141-.469,1.578,1.578,0,0,1,.023-.258.773.773,0,0,1,.492-.516,1.254,1.254,0,0,1,.469-.094,1.541,1.541,0,0,1,.375.047,1.2,1.2,0,0,1,.656.516q.469.727.891,1.5a.79.79,0,0,1,.141.445.672.672,0,0,1-.07.3.921.921,0,0,1-.516.563,1.084,1.084,0,0,1-.445.094,1.062,1.062,0,0,1-.375-.07,1.1,1.1,0,0,1-.609-.516Q393.094-16.969,392.672-17.648Zm14.063-.656a2.042,2.042,0,0,1,1.289-.609h.141a1.744,1.744,0,0,1,1.172.445,1.468,1.468,0,0,1,.516,1.125,1.512,1.512,0,0,1-.586,1.242q-.023,0-.633.469-.211.188-2.766,2.215t-3.492,2.824a4.24,4.24,0,0,0-.832.9.618.618,0,0,0,.012.645,4.251,4.251,0,0,0,.867.914q.188.164,3.035,2.508t4.3,3.633a1.65,1.65,0,0,1,.563,1.266,1.723,1.723,0,0,1-.562,1.289,1.816,1.816,0,0,1-1.266.492H408.4a1.919,1.919,0,0,1-1.312-.609q-.516-.539-.8-.82-1.43-1.523-7.1-6.328a4.947,4.947,0,0,1-1.5-1.828,1.7,1.7,0,0,1-.164-.727,2.037,2.037,0,0,1,.234-.914,6.567,6.567,0,0,1,1.641-1.8q5.3-4.336,6.727-5.742Q406.453-18.023,406.734-18.3Zm7.781,8.6a.936.936,0,0,1-.469.656,1.04,1.04,0,0,1-.469.117,1.189,1.189,0,0,1-.328-.047,1.171,1.171,0,0,1-.656-.562,1.248,1.248,0,0,1-.141-.562,1.708,1.708,0,0,1,.023-.281,31.074,31.074,0,0,0,.633-4.2,1,1,0,0,1,.352-.68,1,1,0,0,1,.609-.211h.117a1.035,1.035,0,0,1,.727.4.97.97,0,0,1,.258.68A23.483,23.483,0,0,1,414.516-9.7ZM423.4-3.68a.207.207,0,0,0,.234.234h6.7a.207.207,0,0,0,.234-.234v-.656a.207.207,0,0,0-.234-.234h-6.7a.207.207,0,0,0-.234.234Zm7.172-3.8a.207.207,0,0,0-.234-.234h-6.7a.207.207,0,0,0-.234.234v.656a.207.207,0,0,0,.234.234h6.7a.207.207,0,0,0,.234-.234Zm.656-2.32a1.964,1.964,0,0,1,1.441.6,1.964,1.964,0,0,1,.6,1.441v7.1A3.682,3.682,0,0,1,433.02.855a1.662,1.662,0,0,1-.879.809,6.389,6.389,0,0,1-2.414.4H429.7a1.371,1.371,0,0,1-.937-.352,1.765,1.765,0,0,1-.609-.891.885.885,0,0,1-.047-.281.845.845,0,0,1,.164-.492.767.767,0,0,1,.68-.352H430.1a.548.548,0,0,0,.363-.094.389.389,0,0,0,.105-.3v-.539a.207.207,0,0,0-.234-.234h-6.7a.207.207,0,0,0-.234.234V.8a1.263,1.263,0,0,1-.387.926,1.33,1.33,0,0,1-1.875,0A1.263,1.263,0,0,1,420.75.8V-7.758a1.964,1.964,0,0,1,.6-1.441,1.964,1.964,0,0,1,1.441-.6Zm-2.883-3.187a.207.207,0,0,0,.234.234h5.273a.954.954,0,0,1,.715.3,1.012,1.012,0,0,1,.293.727.973.973,0,0,1-.293.715.973.973,0,0,1-.715.293H420.164a1.012,1.012,0,0,1-.727-.293.954.954,0,0,1-.3-.715.992.992,0,0,1,.3-.727.992.992,0,0,1,.727-.3h5.109a.207.207,0,0,0,.234-.234v-.562a.207.207,0,0,0-.234-.234h-4.734v.023q.047.094-.07.164l-.82.4a.832.832,0,0,1-.375.094.7.7,0,0,1-.352-.094.842.842,0,0,1-.492-.539q-.234-.727-.516-1.43-.023-.047-.059-.035a.054.054,0,0,0-.035.059V.773a1.244,1.244,0,0,1-.375.914,1.273,1.273,0,0,1-1.8,0,1.244,1.244,0,0,1-.375-.914V-19.055a1.217,1.217,0,0,1,.375-.891,1.23,1.23,0,0,1,.9-.375,1.23,1.23,0,0,1,.9.375,1.217,1.217,0,0,1,.375.891v2.414a.1.1,0,0,0,.047.082.084.084,0,0,0,.094.012,1.4,1.4,0,0,1,.539-.117,1.313,1.313,0,0,1,.492.094,1.275,1.275,0,0,1,.75.727q.445,1.031.727,1.852a.068.068,0,0,0,.047.023.021.021,0,0,0,.023-.023,1.666,1.666,0,0,1,.492-1.207,1.608,1.608,0,0,1,1.2-.5h3.047a.207.207,0,0,0,.234-.234v-.492a.207.207,0,0,0-.234-.234h-4.359a1.012,1.012,0,0,1-.727-.293.954.954,0,0,1-.3-.715.992.992,0,0,1,.3-.727.992.992,0,0,1,.727-.3h4.43a.145.145,0,0,0,.164-.164v-.047a1.356,1.356,0,0,1,.41-1,1.356,1.356,0,0,1,1-.41,1.4,1.4,0,0,1,1.008.41,1.337,1.337,0,0,1,.422,1v.047a.145.145,0,0,0,.164.164h4.617a.954.954,0,0,1,.715.3,1.012,1.012,0,0,1,.293.727.973.973,0,0,1-.293.715.973.973,0,0,1-.715.293h-4.547a.207.207,0,0,0-.234.234v.492a.207.207,0,0,0,.234.234h3.961a.926.926,0,0,1,.68.281.926.926,0,0,1,.281.68.926.926,0,0,1-.281.68.926.926,0,0,1-.68.281h-3.961a.207.207,0,0,0-.234.234ZM443.789-9v-.023a.6.6,0,0,1-.41-.328.68.68,0,0,1-.035-.539q.328-.961.539-1.664a.176.176,0,0,0-.035-.164.189.189,0,0,0-.152-.07h-3.164a.158.158,0,0,0-.141.07.117.117,0,0,0,0,.141,10.6,10.6,0,0,1,.586,1.664.693.693,0,0,1-.082.539.773.773,0,0,1-.457.352V-9Zm-.117-6.844a.207.207,0,0,0-.234.234v1.2a.207.207,0,0,0,.234.234h2.578a1.151,1.151,0,0,1,.844.352,1.151,1.151,0,0,1,.352.844,1.151,1.151,0,0,1-.352.844,1.151,1.151,0,0,1-.844.352h-.7q-.023,0-.023.012t.023.012a.706.706,0,0,1,.469.4.754.754,0,0,1,.023.609q-.68,1.57-.68,1.594a.105.105,0,0,0,.012.105.1.1,0,0,0,.082.059h.422a1.151,1.151,0,0,1,.844.352,1.151,1.151,0,0,1,.352.844,1.151,1.151,0,0,1-.352.844,1.151,1.151,0,0,1-.844.352h-2.2a.207.207,0,0,0-.234.234v1.383a.207.207,0,0,0,.234.234h1.945a1.151,1.151,0,0,1,.844.352,1.164,1.164,0,0,1,.352.855,1.164,1.164,0,0,1-.352.855,1.151,1.151,0,0,1-.844.352h-1.945a.207.207,0,0,0-.234.234V.7a1.263,1.263,0,0,1-.387.926,1.33,1.33,0,0,1-1.875,0A1.263,1.263,0,0,1,440.789.7V-2.109a.207.207,0,0,0-.234-.234h-2.133a1.178,1.178,0,0,1-.867-.352,1.164,1.164,0,0,1-.352-.855,1.164,1.164,0,0,1,.352-.855,1.178,1.178,0,0,1,.867-.352h2.133a.207.207,0,0,0,.234-.234V-6.375a.207.207,0,0,0-.234-.234h-2.344a1.151,1.151,0,0,1-.844-.352,1.151,1.151,0,0,1-.352-.844,1.151,1.151,0,0,1,.352-.844A1.151,1.151,0,0,1,438.211-9h.422a.144.144,0,0,0,.117-.059.2.2,0,0,0,.047-.129,13.294,13.294,0,0,0-.469-1.641.7.7,0,0,1,.023-.586.636.636,0,0,1,.445-.352q.023,0,.012-.012l-.012-.012h-1.078a1.151,1.151,0,0,1-.844-.352,1.151,1.151,0,0,1-.352-.844,1.151,1.151,0,0,1,.352-.844,1.151,1.151,0,0,1,.844-.352h2.836a.207.207,0,0,0,.234-.234v-1.2a.207.207,0,0,0-.234-.234h-2.016a1.132,1.132,0,0,1-.832-.34,1.132,1.132,0,0,1-.34-.832,1.132,1.132,0,0,1,.34-.832,1.132,1.132,0,0,1,.832-.34h2.039a.186.186,0,0,0,.211-.211v-.562a1.263,1.263,0,0,1,.387-.926,1.277,1.277,0,0,1,.938-.387,1.277,1.277,0,0,1,.938.387,1.263,1.263,0,0,1,.387.926v.563a.186.186,0,0,0,.211.211h1.734a1.143,1.143,0,0,1,.82.34,1.113,1.113,0,0,1,.352.832,1.113,1.113,0,0,1-.352.832,1.143,1.143,0,0,1-.82.34Zm6.867,8.227q-.023-.047-.047-.035a.038.038,0,0,0-.023.035V-.445a.091.091,0,0,0,.059.094.091.091,0,0,0,.105-.023,12.191,12.191,0,0,0,1.992-2.109.306.306,0,0,0,.023-.375A24.172,24.172,0,0,1,450.539-7.617Zm4.875-.984a.289.289,0,0,0-.047-.164.158.158,0,0,0-.141-.07h-2.508a.158.158,0,0,0-.141.07.2.2,0,0,0-.023.164,18.281,18.281,0,0,0,1.5,3.281.138.138,0,0,0,.117.07.138.138,0,0,0,.117-.07A18.444,18.444,0,0,0,455.414-8.6Zm.891-2.508a1.275,1.275,0,0,1,.352-.047,1.313,1.313,0,0,1,.492.094l.422.164a.985.985,0,0,1,.574.457,1.006,1.006,0,0,1,.129.715,23.489,23.489,0,0,1-2.25,6.75.321.321,0,0,0,.047.4,13.519,13.519,0,0,0,1.922,1.688,1.161,1.161,0,0,1,.516.844.771.771,0,0,1,.023.188,1.155,1.155,0,0,1-.3.773,1.56,1.56,0,0,1-.961.609,1.708,1.708,0,0,1-.281.023,1.382,1.382,0,0,1-.8-.258,15.1,15.1,0,0,1-1.641-1.547q-.141-.164-.3,0a10.587,10.587,0,0,1-1.1,1.242,1.564,1.564,0,0,1-1.078.422.771.771,0,0,1-.187-.023A2.157,2.157,0,0,1,450.609.8q-.023-.047-.047-.047A.053.053,0,0,0,450.5.738a.054.054,0,0,0-.035.059,1.217,1.217,0,0,1-.375.891,1.217,1.217,0,0,1-.891.375h-.047a1.256,1.256,0,0,1-.9-.375,1.225,1.225,0,0,1-.387-.914V-17.273a1.964,1.964,0,0,1,.6-1.441,1.964,1.964,0,0,1,1.441-.6h5.93a1.964,1.964,0,0,1,1.441.6,1.964,1.964,0,0,1,.6,1.441v2.461a3.547,3.547,0,0,1-.258,1.5,1.609,1.609,0,0,1-.937.8,7.253,7.253,0,0,1-2.672.4h-.047a1.49,1.49,0,0,1-.937-.328,1.912,1.912,0,0,1-.633-.891,1.189,1.189,0,0,1-.047-.328.845.845,0,0,1,.164-.492.767.767,0,0,1,.68-.352q.727.023,1.57.023a.767.767,0,0,0,.387-.105.321.321,0,0,0,.105-.27v-1.734a.207.207,0,0,0-.234-.234H450.7a.207.207,0,0,0-.234.234v5.273a.207.207,0,0,0,.234.234h5.484A.261.261,0,0,0,456.3-11.109Zm7.242,4.172a3.015,3.015,0,0,1-.891-2.18,2.956,2.956,0,0,1,.9-2.168,2.956,2.956,0,0,1,2.168-.9,2.956,2.956,0,0,1,2.168.9,2.956,2.956,0,0,1,.9,2.168,2.956,2.956,0,0,1-.9,2.168,2.956,2.956,0,0,1-2.168.9A3.015,3.015,0,0,1,463.547-6.937Zm25.43,3.352a.207.207,0,0,0-.234-.234h-9.8a.207.207,0,0,0-.234.234v.4a.207.207,0,0,0,.234.234h9.8a.207.207,0,0,0,.234-.234Zm-10.266,3a.207.207,0,0,0,.234.234h9.8a.207.207,0,0,0,.234-.234v-.469a.207.207,0,0,0-.234-.234h-9.8a.207.207,0,0,0-.234.234Zm-1.383,2.742a1.349,1.349,0,0,1-.973-.4,1.318,1.318,0,0,1-.41-.984V-3.609a1.964,1.964,0,0,1,.6-1.441,1.964,1.964,0,0,1,1.441-.6H489.82a1.964,1.964,0,0,1,1.441.6,1.964,1.964,0,0,1,.6,1.441V.7a1.375,1.375,0,0,1-.422,1.008,1.375,1.375,0,0,1-1.008.422h-.82a.629.629,0,0,1-.445-.176.571.571,0,0,1-.187-.434q0-.094-.07-.094H478.781q-.07,0-.07.094a.608.608,0,0,1-.187.445.636.636,0,0,1-.469.188Zm7.945-16.523a.207.207,0,0,0-.234.234v.445a.207.207,0,0,0,.234.234h3.4a.207.207,0,0,0,.234-.234v-.445a.207.207,0,0,0-.234-.234Zm0-2.859a.207.207,0,0,0-.234.234v.422a.207.207,0,0,0,.234.234h3.4a.207.207,0,0,0,.234-.234v-.422a.207.207,0,0,0-.234-.234Zm6.469,3.375a1.964,1.964,0,0,1-.6,1.441,1.964,1.964,0,0,1-1.441.6h-4.43a.207.207,0,0,0-.234.234v.375a.207.207,0,0,0,.234.234h6.586a.833.833,0,0,1,.609.258.833.833,0,0,1,.258.609.833.833,0,0,1-.258.609.833.833,0,0,1-.609.258h-6.586a.207.207,0,0,0-.234.234v.4a.207.207,0,0,0,.234.234h8.2a.973.973,0,0,1,.715.293.959.959,0,0,1,.293.7.959.959,0,0,1-.293.7.973.973,0,0,1-.715.293H473.953a.973.973,0,0,1-.715-.293.959.959,0,0,1-.293-.7.959.959,0,0,1,.293-.7.973.973,0,0,1,.715-.293h7.992a.207.207,0,0,0,.234-.234V-9a.207.207,0,0,0-.234-.234H475.5a.822.822,0,0,1-.621-.258.853.853,0,0,1-.246-.609.853.853,0,0,1,.246-.609.822.822,0,0,1,.621-.258h6.445a.207.207,0,0,0,.234-.234v-.375a.207.207,0,0,0-.234-.234h-5.953a.814.814,0,0,1-.6-.246.8.8,0,0,1-.246-.586.762.762,0,0,1,.246-.574.835.835,0,0,1,.6-.234h5.953a.207.207,0,0,0,.234-.234v-.445a.207.207,0,0,0-.234-.234h-7.992a.946.946,0,0,1-.691-.293.959.959,0,0,1-.293-.7.921.921,0,0,1,.293-.691.965.965,0,0,1,.691-.281h7.992a.207.207,0,0,0,.234-.234v-.422a.207.207,0,0,0-.234-.234h-5.7a.776.776,0,0,1-.586-.246.82.82,0,0,1-.234-.586.82.82,0,0,1,.234-.586.776.776,0,0,1,.586-.246h5.789q.141,0,.141-.164a1.271,1.271,0,0,1,.4-.949,1.33,1.33,0,0,1,.961-.387h.141a1.33,1.33,0,0,1,.961.387,1.271,1.271,0,0,1,.4.949.145.145,0,0,0,.164.164h4.5a1.964,1.964,0,0,1,1.441.6,1.964,1.964,0,0,1,.6,1.441v.281a.207.207,0,0,0,.234.234H493.5a.965.965,0,0,1,.691.281.921.921,0,0,1,.293.691.959.959,0,0,1-.293.7.946.946,0,0,1-.691.293h-1.523a.207.207,0,0,0-.234.234Zm23.391,2.016a.207.207,0,0,0,.234-.234v-.984a.207.207,0,0,0-.234-.234H510.8a.207.207,0,0,0-.234.234v.984a.207.207,0,0,0,.234.234Zm0,3.445a.207.207,0,0,0,.234-.234V-9.633a.207.207,0,0,0-.234-.234H510.8a.207.207,0,0,0-.234.234v1.008a.207.207,0,0,0,.234.234Zm0,3.492a.207.207,0,0,0,.234-.234V-6.164a.207.207,0,0,0-.234-.234H510.8a.207.207,0,0,0-.234.234v1.031a.207.207,0,0,0,.234.234Zm-7.148-8.484a1.964,1.964,0,0,1,.6-1.441,1.964,1.964,0,0,1,1.441-.6h.7a.294.294,0,0,0,.3-.234q.094-.4.234-1.078a.249.249,0,0,0-.059-.164.168.168,0,0,0-.129-.07H508.5a1.151,1.151,0,0,1-.844-.352,1.164,1.164,0,0,1-.352-.855,1.164,1.164,0,0,1,.352-.855,1.151,1.151,0,0,1,.844-.352h8.953a1.178,1.178,0,0,1,.867.352,1.164,1.164,0,0,1,.352.855,1.164,1.164,0,0,1-.352.855,1.178,1.178,0,0,1-.867.352h-2.836a.332.332,0,0,0-.328.211q-.281.7-.445,1.1a.155.155,0,0,0,0,.164.158.158,0,0,0,.141.07h2.039a1.964,1.964,0,0,1,1.441.6,1.964,1.964,0,0,1,.6,1.441v8.555a1.964,1.964,0,0,1-.6,1.441,1.964,1.964,0,0,1-1.441.6h-6a1.964,1.964,0,0,1-1.441-.6,1.964,1.964,0,0,1-.6-1.441Zm-3.562-5.367a1.227,1.227,0,0,1,.609-.727,1.147,1.147,0,0,1,.586-.164,2.317,2.317,0,0,1,.328.023.991.991,0,0,1,.656.563,1.062,1.062,0,0,1,.07.375,1.04,1.04,0,0,1-.117.469q-.3.586-.539.984a1.1,1.1,0,0,1-.609.516,1.031,1.031,0,0,1-.422.094,1.062,1.062,0,0,1-.375-.07.775.775,0,0,1-.516-.469.914.914,0,0,1,0-.7Zm-4.547.633a1.125,1.125,0,0,1,.07.4,1.2,1.2,0,0,1-.094.445,1.273,1.273,0,0,1-.656.586.827.827,0,0,1-.328.07.862.862,0,0,1-.422-.117,1.1,1.1,0,0,1-.539-.609,6.443,6.443,0,0,0-.352-.844,1.031,1.031,0,0,1-.094-.422,1.189,1.189,0,0,1,.047-.328.844.844,0,0,1,.516-.516,1.084,1.084,0,0,1,.445-.094,1.262,1.262,0,0,1,.4.07,1.2,1.2,0,0,1,.633.539Q499.711-18.516,499.875-18.117ZM502.8-9.7a1.178,1.178,0,0,1-.867.352,1.2,1.2,0,0,1-.879-.363,1.2,1.2,0,0,1-.363-.879v-.8q0-.047-.059-.07t-.082.023a13.826,13.826,0,0,1-1.594,1.688,1.006,1.006,0,0,1-.7.281.519.519,0,0,1-.164-.023,1.4,1.4,0,0,1-.844-.445.979.979,0,0,1-.281-.68.442.442,0,0,1,.023-.141.954.954,0,0,1,.422-.727,11.9,11.9,0,0,0,2.344-2.344.093.093,0,0,0,.012-.117.113.113,0,0,0-.105-.07H498a1.085,1.085,0,0,1-.8-.328,1.071,1.071,0,0,1-.328-.785,1.071,1.071,0,0,1,.328-.785,1.085,1.085,0,0,1,.8-.328h2.461a.207.207,0,0,0,.234-.234V-18.8a1.2,1.2,0,0,1,.363-.879,1.2,1.2,0,0,1,.879-.363,1.159,1.159,0,0,1,.867.363,1.218,1.218,0,0,1,.352.879v2.32a.207.207,0,0,0,.234.234h2.531a1.058,1.058,0,0,1,.773.328,1.071,1.071,0,0,1,.328.785,1.071,1.071,0,0,1-.328.785,1.058,1.058,0,0,1-.773.328h-2.484q-.023,0-.035.047a.07.07,0,0,0,.012.07q1.078.563,2.883,1.641a1.09,1.09,0,0,1,.516.773,1.086,1.086,0,0,1,.023.211,1.088,1.088,0,0,1-.234.68,1.1,1.1,0,0,1-.8.445h-.141a1.181,1.181,0,0,1-.75-.258q-.539-.445-1.57-1.266a.151.151,0,0,0-.117,0,.092.092,0,0,0-.07.094v.984A1.258,1.258,0,0,1,502.8-9.7Zm2.836,7.172a1.554,1.554,0,0,1,.68,1.242v.117a1.706,1.706,0,0,1-.492,1.219.114.114,0,0,0,.023.059q.023.035.023.012a14.078,14.078,0,0,0,3.141-1.945,2.183,2.183,0,0,1,1.078-.445h.188a1.721,1.721,0,0,1,.914.258,1.028,1.028,0,0,1,.516.914.891.891,0,0,1-.375.75,18.117,18.117,0,0,1-2.109,1.5,2.461,2.461,0,0,1-1.219.328,2.273,2.273,0,0,1-.445-.047,3.21,3.21,0,0,1-1.57-.8Q505.8.445,505.641.3q-.023-.023-.047.023a.317.317,0,0,1-.492,0,33.259,33.259,0,0,0-2.7-2.156q-.164-.141-.281.07a8.2,8.2,0,0,1-3.187,2.93,1.236,1.236,0,0,1-.586.164,1.327,1.327,0,0,1-.422-.07,1.734,1.734,0,0,1-.844-.633,1,1,0,0,1-.211-.609.627.627,0,0,1,.047-.234.993.993,0,0,1,.516-.7,5.713,5.713,0,0,0,3-3.633.176.176,0,0,0-.035-.164.189.189,0,0,0-.152-.07h-2.156a1.19,1.19,0,0,1-.855-.352A1.159,1.159,0,0,1,496.875-6a1.159,1.159,0,0,1,.363-.867,1.19,1.19,0,0,1,.855-.352h2.367a.145.145,0,0,0,.164-.164V-7.57A1.244,1.244,0,0,1,501-8.484a1.23,1.23,0,0,1,.9-.375,1.23,1.23,0,0,1,.9.375,1.244,1.244,0,0,1,.375.914v.188q0,.164.188.164h2.6a1.178,1.178,0,0,1,.867.352,1.178,1.178,0,0,1,.352.867,1.178,1.178,0,0,1-.352.867,1.178,1.178,0,0,1-.867.352h-2.625a.246.246,0,0,0-.27.234.318.318,0,0,0,.176.352Q504.539-3.375,505.641-2.531Zm8.6,2.063a.826.826,0,0,1-.352-.7.818.818,0,0,1,.4-.727,1.724,1.724,0,0,1,1-.3,1.724,1.724,0,0,1,1,.3q1.172.844,2.016,1.547a.955.955,0,0,1,.352.75,1.032,1.032,0,0,1-.469.891,1.473,1.473,0,0,1-.867.281h-.164a1.67,1.67,0,0,1-.984-.445Q515.367.4,514.242-.469Zm15.586.914a.964.964,0,0,1,.211.586,1.192,1.192,0,0,1-.023.234.851.851,0,0,1-.516.633,1.65,1.65,0,0,1-.7.164,1.275,1.275,0,0,1-.352-.047,1.562,1.562,0,0,1-.937-.516,15.656,15.656,0,0,1-3.867-10.617,15.656,15.656,0,0,1,3.867-10.617,1.562,1.562,0,0,1,.938-.516,1.275,1.275,0,0,1,.352-.047,1.65,1.65,0,0,1,.7.164.851.851,0,0,1,.516.633,1.086,1.086,0,0,1,.023.211.9.9,0,0,1-.211.586,14.8,14.8,0,0,0-3.469,9.586A14.711,14.711,0,0,0,529.828.445Zm19.359-3.891a.207.207,0,0,0,.234-.234v-.68a.207.207,0,0,0-.234-.234H545.32a.207.207,0,0,0-.234.234v.68a.207.207,0,0,0,.234.234ZM545.32-7.8a.207.207,0,0,0-.234.234v.563a.207.207,0,0,0,.234.234h3.867a.207.207,0,0,0,.234-.234V-7.57a.207.207,0,0,0-.234-.234ZM538.43-12.82a.207.207,0,0,0,.234.234h3.281a.207.207,0,0,0,.234-.234v-.68a.207.207,0,0,0-.234-.234h-3.281a.207.207,0,0,0-.234.234Zm10.547-.68a.207.207,0,0,0-.234-.234H545.32a.207.207,0,0,0-.234.234v.68a.207.207,0,0,0,.234.234h3.422a.207.207,0,0,0,.234-.234Zm4.734,6.727a1.047,1.047,0,0,1,.785.328,1.078,1.078,0,0,1,.316.773,1.038,1.038,0,0,1-.316.762,1.066,1.066,0,0,1-.785.316h-1.148a.207.207,0,0,0-.234.234v2.508a1.4,1.4,0,0,1-.434,1.02,1.4,1.4,0,0,1-1.02.434h-.586a.833.833,0,0,1-.609-.258.86.86,0,0,1-.258-.633q0-.094-.117-.094H545.32a.207.207,0,0,0-.234.234v.492A3.47,3.47,0,0,1,544.8.926a1.924,1.924,0,0,1-.984.832,9.851,9.851,0,0,1-3.023.4h-.023a1.49,1.49,0,0,1-.937-.328,2.017,2.017,0,0,1-.656-.82.827.827,0,0,1-.07-.328.653.653,0,0,1,.141-.4.671.671,0,0,1,.609-.352q.773.023,1.734.023a.715.715,0,0,0,.457-.152.639.639,0,0,0,.129-.457v-.492a.207.207,0,0,0-.234-.234h-6.023a.992.992,0,0,1-.727-.3,1,1,0,0,1-.3-.738.967.967,0,0,1,.3-.727,1.012,1.012,0,0,1,.727-.293h6.023a.207.207,0,0,0,.234-.234v-.68a.207.207,0,0,0-.234-.234h-8.156A1.066,1.066,0,0,1,533-4.91a1.038,1.038,0,0,1-.316-.762A1.078,1.078,0,0,1,533-6.445a1.047,1.047,0,0,1,.785-.328h8.156a.207.207,0,0,0,.234-.234V-7.57a.207.207,0,0,0-.234-.234h-5.906a.926.926,0,0,1-.68-.281.926.926,0,0,1-.281-.68.926.926,0,0,1,.281-.68.926.926,0,0,1,.68-.281h5.906a.207.207,0,0,0,.234-.234v-.586a.207.207,0,0,0-.234-.234h-4.219a1.964,1.964,0,0,1-1.441-.6,1.964,1.964,0,0,1-.6-1.441v-.68a1.964,1.964,0,0,1,.6-1.441,1.964,1.964,0,0,1,1.441-.6h4.219a.207.207,0,0,0,.234-.234v-.516a.207.207,0,0,0-.234-.234h-7.57a1.085,1.085,0,0,1-.8-.328,1.085,1.085,0,0,1-.328-.8,1.085,1.085,0,0,1,.328-.8,1.085,1.085,0,0,1,.8-.328h7.664q.141,0,.141-.164a1.329,1.329,0,0,1,.41-.973,1.356,1.356,0,0,1,1-.41h.117a1.329,1.329,0,0,1,.973.41,1.329,1.329,0,0,1,.41.973.145.145,0,0,0,.164.164h7.875a1.124,1.124,0,0,1,.809.328,1.066,1.066,0,0,1,.34.8,1.066,1.066,0,0,1-.34.8,1.124,1.124,0,0,1-.809.328h-7.8a.207.207,0,0,0-.234.234v.516a.207.207,0,0,0,.234.234h4.547a1.964,1.964,0,0,1,1.441.6,1.964,1.964,0,0,1,.6,1.441v.68a1.964,1.964,0,0,1-.6,1.441,1.964,1.964,0,0,1-1.441.6H545.32a.207.207,0,0,0-.234.234v.586a.207.207,0,0,0,.234.234h4.969a1.964,1.964,0,0,1,1.441.6,1.964,1.964,0,0,1,.6,1.441v.68a.207.207,0,0,0,.234.234Zm7.922-8.109a1.084,1.084,0,0,0-.094.445v6.773a.075.075,0,0,0,.047.07.077.077,0,0,0,.094-.023q2.18-2.93,3.094-9,.023-.164-.141-.164a1.4,1.4,0,0,1-1.008-.41,1.337,1.337,0,0,1-.422-1v-.422a.038.038,0,0,0-.023-.035q-.023-.012-.023.035Q562.523-16.875,561.633-14.883Zm6.727,3.4a.176.176,0,0,0-.035-.164.189.189,0,0,0-.152-.07h-1.594a.332.332,0,0,0-.328.234q-.328.961-.586,1.641a.291.291,0,0,0,.117.352q1.031.75,1.641,1.289a.106.106,0,0,0,.129.047.148.148,0,0,0,.105-.117A32.334,32.334,0,0,0,568.359-11.484Zm5.7,6.633a1.2,1.2,0,0,1-.363.879,1.211,1.211,0,0,1-.891.363,1.211,1.211,0,0,1-.891-.363,1.2,1.2,0,0,1-.363-.879v-11.7a.207.207,0,0,0-.234-.234H567.75a.261.261,0,0,0-.281.234q-.328,1.641-.445,2.133a.289.289,0,0,0,.047.164.158.158,0,0,0,.141.07h1.852a.208.208,0,0,0,.094-.023,2.843,2.843,0,0,1,.352-.023,1.624,1.624,0,0,1,.469.07l.422.117a1.01,1.01,0,0,1,.574.434,1.022,1.022,0,0,1,.152.691A32.581,32.581,0,0,1,568.992-4.5a16.507,16.507,0,0,1-3.727,5.672,1.111,1.111,0,0,1-.773.328.871.871,0,0,1-.211-.023,1.506,1.506,0,0,1-.914-.539,1.4,1.4,0,0,1-.3-.867,1.393,1.393,0,0,1,.445-1.055,13.187,13.187,0,0,0,3-4.2.349.349,0,0,0-.07-.4A18.232,18.232,0,0,0,564.7-7.219q-.187-.141-.3.047a1.532,1.532,0,0,1-.094.164,1.278,1.278,0,0,1-1.16.656,1.7,1.7,0,0,1-1.3-.586A1.53,1.53,0,0,0,561.7-7.1a.091.091,0,0,0-.105-.023.091.091,0,0,0-.059.094V.75a1.263,1.263,0,0,1-.387.926,1.3,1.3,0,0,1-1.852,0,1.263,1.263,0,0,1-.387-.926V-9.727a.075.075,0,0,0-.047-.07.046.046,0,0,0-.07.023l-.328.469a.849.849,0,0,1-.7.375.519.519,0,0,1-.164-.023,1.008,1.008,0,0,1-.8-.609,2.96,2.96,0,0,1-.234-1.148,2.164,2.164,0,0,1,.023-.3,2.954,2.954,0,0,1,.492-1.383,26.759,26.759,0,0,0,3.3-6.586,1.36,1.36,0,0,1,.7-.82,1.318,1.318,0,0,1,.633-.164,1.125,1.125,0,0,1,.4.07l1.125.328q.211.047.141.281a.021.021,0,0,0,.023.023h6.773a1.468,1.468,0,0,1,1.078.445,1.468,1.468,0,0,1,.445,1.078.145.145,0,0,0,.164.164h.141a1.964,1.964,0,0,1,1.441.6,1.964,1.964,0,0,1,.6,1.441Zm1.523-13.711a1.263,1.263,0,0,1,.387-.926,1.263,1.263,0,0,1,.926-.387,1.263,1.263,0,0,1,.926.387,1.263,1.263,0,0,1,.387.926V-1.148a4.89,4.89,0,0,1-.246,1.758,1.885,1.885,0,0,1-.9.961,6.861,6.861,0,0,1-2.625.516h-.07a1.645,1.645,0,0,1-1.055-.375,2.037,2.037,0,0,1-.68-1.031,1.189,1.189,0,0,1-.047-.328,1.041,1.041,0,0,1,.188-.586.9.9,0,0,1,.773-.4h.8q.445,0,.7-.023a.592.592,0,0,0,.422-.117.552.552,0,0,0,.117-.4Zm6.047-.141a.9.9,0,0,1-.211-.586,1.086,1.086,0,0,1,.023-.211.851.851,0,0,1,.516-.633,1.65,1.65,0,0,1,.7-.164,1.275,1.275,0,0,1,.352.047,1.562,1.562,0,0,1,.938.516,15.656,15.656,0,0,1,3.867,10.617A15.656,15.656,0,0,1,583.945,1.5a1.562,1.562,0,0,1-.937.516,1.275,1.275,0,0,1-.352.047,1.65,1.65,0,0,1-.7-.164.851.851,0,0,1-.516-.633,1.192,1.192,0,0,1-.023-.234.964.964,0,0,1,.211-.586,14.711,14.711,0,0,0,3.469-9.562A14.8,14.8,0,0,0,581.625-18.7Z" transform="translate(359 6393)" fill="#22AC38"/>
    <path id="パス_72346" data-name="パス 72346" d="M3,0A3,3,0,1,1,0,3,3,3,0,0,1,3,0Z" transform="translate(368 6361)" fill="#ffea00"/>
    <path id="パス_72347" data-name="パス 72347" d="M3,0A3,3,0,1,1,0,3,3,3,0,0,1,3,0Z" transform="translate(392 6361)" fill="#ffea00"/>
    <path id="パス_72348" data-name="パス 72348" d="M3,0A3,3,0,1,1,0,3,3,3,0,0,1,3,0Z" transform="translate(416 6361)" fill="#ffea00"/>
    <path id="パス_72349" data-name="パス 72349" d="M3,0A3,3,0,1,1,0,3,3,3,0,0,1,3,0Z" transform="translate(440 6361)" fill="#ffea00"/>
  </g>
</svg>
