<svg xmlns="http://www.w3.org/2000/svg" xmlns:xlink="http://www.w3.org/1999/xlink" width="78.344" height="29.569" viewBox="0 0 78.344 29.569"><defs><clipPath id="a"><rect width="78.344" height="29.569" fill="none"/></clipPath></defs><path d="M11.677,58.15,8.5,55.488H30.752Z" transform="translate(-4.701 -30.673)" fill="#bf0000"/><g transform="translate(0 0)"><g clip-path="url(#a)"><path d="M19.212,27.52v-5.9h2.556l4.424,5.9h4.523L25.369,20.4a6.555,6.555,0,0,0-3.8-11.9H15.6V27.52Zm0-15.405H21.57a2.947,2.947,0,1,1,0,5.894H19.212Z" transform="translate(-8.623 -4.701)" fill="#bf0000"/><path d="M74.233,12.229a7.914,7.914,0,0,0-5.2-1.6H63.006V28.694h3.653V22.777h2.378a7.912,7.912,0,0,0,5.2-1.6,5.46,5.46,0,0,0,1.939-4.459,5.493,5.493,0,0,0-1.939-4.488m-2.789,6.682a4.738,4.738,0,0,1-2.634.665H66.659V13.829h2.152a4.741,4.741,0,0,1,2.634.665,2.453,2.453,0,0,1,1.019,2.223,2.422,2.422,0,0,1-1.019,2.194" transform="translate(-34.829 -5.876)" fill="#bf0000"/><path d="M106.631,20.466a4.681,4.681,0,0,0-1.812-2,5.13,5.13,0,0,0-2.746-.75,5.8,5.8,0,0,0-3.27.962,6.781,6.781,0,0,0-2.321,2.676,8.721,8.721,0,0,0-.864,3.979,8.651,8.651,0,0,0,.864,3.95A6.766,6.766,0,0,0,98.8,31.962a5.8,5.8,0,0,0,3.27.963,5.2,5.2,0,0,0,2.746-.737,4.582,4.582,0,0,0,1.812-1.982l.283,2.406h3.03V18.059h-3.03Zm-1.175,8a3.376,3.376,0,0,1-5.168,0,4.676,4.676,0,0,1-1.019-3.129,4.732,4.732,0,0,1,1.019-3.143,3.35,3.35,0,0,1,5.168,0,4.776,4.776,0,0,1,1.005,3.143,4.719,4.719,0,0,1-1.005,3.129" transform="translate(-52.856 -9.795)" fill="#bf0000"/><path d="M147.639,18.48h-3.766L140.107,27.2l-3.766-8.721h-4.105l5.918,12.233-3.264,6.434h3.681Z" transform="translate(-73.098 -10.215)" fill="#bf0000"/></g></g></svg>