<svg xmlns="http://www.w3.org/2000/svg" width="27.725" height="24.609" viewBox="0 0 27.725 24.609"><defs><style>.a{fill:#fee05d;}</style></defs><g transform="translate(0)"><path class="a" d="M4.879,8.031,25.339,0V22.223L4.879,14.2,0,15.654V6.569Z" transform="translate(1.193 1.193)"/><path class="a" d="M26.532,24.609a1.337,1.337,0,0,0,.641-.161.994.994,0,0,0,.553-.862V1.023a1,1,0,0,0-.553-.862A1.364,1.364,0,0,0,26.029.1L6.013,8.073,1.593,6.728A1.379,1.379,0,0,0,.5,6.858a.986.986,0,0,0-.5.835v9.224a.986.986,0,0,0,.5.835,1.369,1.369,0,0,0,1.087.13l4.42-1.343,20.018,7.975a1.346,1.346,0,0,0,.5.1M25.339,2.627V21.984L6.575,14.508a1.38,1.38,0,0,0-.9-.037l-3.288,1V9.141l3.287,1a1.411,1.411,0,0,0,.9-.037Z" transform="translate(0 0)"/></g></svg>